<?xml version="1.0" encoding="utf-8"?><!-- Generator: Adobe Illustrator 19.2.1, SVG Export Plug-In . SVG Version: 6.00 Build 0) --><svg version="1.1" id="Calque_1" xmlns="http://www.w3.org/2000/svg" xmlns:xlink="http://www.w3.org/1999/xlink" x="0px" y="0px" viewBox="0 0 602.3 602.4" style="enable-background:new 0 0 602.3 602.4;" xml:space="preserve"><style type="text/css"> .st0{fill:#FFFFFF;} .st1{fill:#8F8F8F;} .st2{fill:#DAE7A2;} .st3{fill:#8BC53F;} .st4{fill:#1889A8;} .st5{fill-rule:evenodd;clip-rule:evenodd;fill:#1889A8;} .st6{fill:#8BC541;} .st7{fill-rule:evenodd;clip-rule:evenodd;fill:#272727;} .st8{fill-rule:evenodd;clip-rule:evenodd;fill:#FBFCFB;} .st9{fill-rule:evenodd;clip-rule:evenodd;fill:#686868;} .st10{fill-rule:evenodd;clip-rule:evenodd;fill:#64666A;} .st11{fill-rule:evenodd;clip-rule:evenodd;fill:#F1F8F9;} .st12{fill-rule:evenodd;clip-rule:evenodd;fill:#EBF6F6;} .st13{fill-rule:evenodd;clip-rule:evenodd;fill:#EFF8F8;} .st14{fill-rule:evenodd;clip-rule:evenodd;fill:#F8FBFB;} .st15{fill-rule:evenodd;clip-rule:evenodd;fill:#F3F7F7;} .st16{fill-rule:evenodd;clip-rule:evenodd;fill:#ECF6F6;} .st17{fill-rule:evenodd;clip-rule:evenodd;fill:#D7EBF0;} .st18{fill-rule:evenodd;clip-rule:evenodd;fill:#DBEDF1;} .st19{fill-rule:evenodd;clip-rule:evenodd;fill:#ECF4F6;}</style><g><g><circle class="st0" cx="301" cy="300.9" r="299.5"/><path class="st1" d="M301,600.9c-80.1,0-155.5-31.2-212.1-87.9C32.2,456.3,1,381,1,300.9S32.2,145.4,88.9,88.7 C145.5,32.1,220.9,0.9,301,0.9s155.5,31.2,212.1,87.9c56.7,56.7,87.9,132,87.9,212.1S569.8,456.3,513.1,513 C456.5,569.6,381.2,600.9,301,600.9z M301,1.9C136.2,1.9,2.1,136,2.1,300.9c0,164.8,134.1,298.9,298.9,298.9S600,465.7,600,300.9 C600,136,465.9,1.9,301,1.9z"/></g><g><circle class="st2" cx="301" cy="301.1" r="182.6"/><path class="st3" d="M301,496.5c-107.7,0-195.3-87.6-195.3-195.3c0-107.7,87.6-195.3,195.3-195.3c107.7,0,195.3,87.6,195.3,195.3 C496.3,408.8,408.7,496.5,301,496.5z M301,131.2c-93.7,0-170,76.2-170,170c0,93.7,76.2,170,170,170s170-76.2,170-170 C471,207.4,394.7,131.2,301,131.2z"/></g><g><path d="M142.1,155.5c-3.8,4.1-8,5.8-12.8,5.1c-4.8-0.7-9.6-3.2-14.3-7.6c-4.8-4.4-7.7-8.9-8.8-13.6c-1.1-4.7,0.2-9.1,4-13.2 c3.8-4.1,8-5.8,12.8-5.1c4.8,0.7,9.6,3.2,14.3,7.6c4.8,4.4,7.7,8.9,8.8,13.6C147.2,147,145.9,151.4,142.1,155.5z M114.9,130.6 c-1.6,1.8-1.7,3.9-0.3,6.5c1.4,2.6,3.7,5.3,6.9,8.2c3.2,3,6.2,5,8.8,6.2c2.6,1.2,4.8,0.9,6.4-0.9c1.7-1.8,1.8-4,0.4-6.5 c-1.4-2.5-3.7-5.2-7-8.2c-3.2-3-6.2-5-8.8-6.2C118.7,128.6,116.6,128.9,114.9,130.6z"/><path d="M169.2,130.6c-4.6,3.5-8.7,5.6-12.2,6.3l-23.4-30.5c0.7-1.5,1.8-3.1,3.3-4.8c1.5-1.7,3.3-3.4,5.5-5 c4.2-3.2,8-4.9,11.5-4.9c3.5,0,6.2,1.3,8.2,3.9c1.5,2,2.2,4.1,1.9,6.3c-0.2,2.2-1,4.1-2.2,5.7c2.1-0.8,4.5-1,7.1-0.7 c2.6,0.4,4.7,1.6,6.3,3.7c2.5,3.2,3.2,6.6,2.1,10C176.1,123.9,173.4,127.3,169.2,130.6z M145.8,100.9c-0.4,0.3-0.8,0.6-1.2,1 c-0.4,0.4-0.9,0.9-1.3,1.6l7.6,9.9l1.5-1.2c2.4-1.9,3.8-3.6,4.2-5.1c0.3-1.6-0.2-3.3-1.7-5.1C152.3,98.5,149.3,98.2,145.8,100.9z M155.3,115.9l-1.6,1.2l8.3,10.7c0.5-0.2,1-0.4,1.6-0.7c0.6-0.3,1.2-0.7,1.8-1.2c1.9-1.5,3.1-3,3.4-4.6c0.3-1.5-0.2-3.3-1.7-5.2 c-1.6-2.1-3.3-3.2-5.1-3.3C160.2,112.9,158,113.8,155.3,115.9z"/><path d="M196.3,112.6c-2.3,1.3-4.3,2.1-6,2.6c-1.7,0.5-3.3,0.6-4.9,0.5l-1.3-7.2c1,0.1,2.1,0,3.3-0.2c1.2-0.2,2.4-0.7,3.6-1.4 c1.5-0.8,2.5-1.9,3-3.2c0.5-1.3,0.3-2.6-0.4-4c-0.7-1.2-1.6-2-2.8-2.4c-1.2-0.4-3.2-0.5-6-0.2c-2.8,0.2-5.3-0.3-7.5-1.4 c-2.1-1.2-3.8-2.8-4.8-4.8c-1.8-3.2-2.2-6.5-1.2-9.9c1-3.4,3.2-6,6.7-7.9c2-1.1,3.7-1.8,5.3-2.2c1.6-0.4,3.1-0.5,4.5-0.4l1.1,6.3 c-1.1-0.1-2.1,0-3.2,0.2c-1.1,0.2-2.1,0.6-3.2,1.2c-3,1.6-3.7,3.9-2.1,6.7c0.7,1.3,1.6,2.1,2.9,2.4c1.2,0.4,3.4,0.4,6.5,0.2 c3.1-0.3,5.7,0.2,7.8,1.4s3.7,2.9,4.9,5.2c1.8,3.3,2.2,6.7,1.1,10.2C202.3,107.9,199.9,110.6,196.3,112.6z"/><path d="M214.9,102.5l-15-39.4l20.2-7.7l2.4,6.2l-10.8,4.1l3.8,10l9.5-3.6l2.3,6.1l-9.5,3.6l4.1,10.8l10.8-4.1l2.4,6.2 L214.9,102.5z"/><path d="M261.2,88.5l-13.7-16.1l3.8,18.2l-9.6,2.1l-8.5-39.4c1.4-1.1,3.1-2.1,5.1-3c2-0.9,4.3-1.6,6.8-2.1 c5.4-1.2,9.7-0.9,12.9,0.8c3.2,1.7,5.2,4.5,6.1,8.6c0.6,2.7,0.2,5.2-1.2,7.5c-1.4,2.3-3.4,4-6.1,5l14.9,16.1L261.2,88.5z M246.3,53.7c-1,0.2-1.9,0.6-2.7,1.1l3.2,15.1c0.5,0.1,1.2,0,2.1-0.2c2.5-0.5,4.2-1.6,5.2-3.3c1-1.7,1.2-3.8,0.6-6.3 c-0.6-2.7-1.5-4.6-2.8-5.6C250.7,53.4,248.8,53.1,246.3,53.7z"/><path d="M295.4,84.9l-8.6,0.4l-14.7-41.5l10.5-0.5l7,24.2c0.3,0.9,0.5,1.9,0.7,2.9c0.2,1,0.4,1.7,0.5,2.2c0.1-0.7,0.2-1.6,0.3-2.4 c0.1-0.9,0.3-1.8,0.5-2.8l4.9-24.8l9.5-0.4L295.4,84.9z"/><path d="M335.7,87.5l-1.5-9.3l-12.6-1.5l-3.8,8.6l-8.8-1.1l18.7-40.2l9.6,1.2l8.5,43.5L335.7,87.5z M331.5,58.3 c-0.2-1.4-0.3-2.4-0.3-3.2c0-0.7,0-1.4,0-2c-0.2,0.6-0.3,1.1-0.5,1.6c-0.2,0.5-0.6,1.6-1.3,3.3l-5.6,13.1l9.8,1.2L331.5,58.3z"/><path d="M374.7,60.3L365,94.5l-9.6-2.7l9.7-34.1l-7.1-2l1.8-6.4l23.7,6.7l-1.8,6.4L374.7,60.3z"/><path d="M391.6,105.4c-5-2.3-7.9-5.9-8.7-10.7c-0.8-4.8,0.2-10.1,2.9-15.9c2.7-5.9,6.1-10,10.3-12.5c4.1-2.5,8.7-2.6,13.8-0.2 c5,2.3,7.9,5.9,8.7,10.7c0.8,4.8-0.2,10.1-2.9,15.9c-2.7,5.9-6.1,10-10.3,12.5C401.3,107.7,396.7,107.8,391.6,105.4z M407.1,72 c-2.2-1-4.3-0.5-6.3,1.7c-2,2.1-3.9,5.1-5.7,9c-1.8,4-2.9,7.4-3.3,10.2c-0.3,2.9,0.6,4.8,2.8,5.8c2.2,1,4.3,0.5,6.3-1.6 c2-2.1,3.9-5.1,5.7-9.1c1.8-4,2.9-7.4,3.2-10.3C410.2,75,409.3,73,407.1,72z"/><path d="M412.8,116l22.7-35.5l8.4,5.3l-22.7,35.5L412.8,116z"/><path d="M443.8,138.7l4.3-20.7l-12,14.2l-7.5-6.3l25.8-31c1.7,0.4,3.5,1.2,5.5,2.2c1.9,1.1,3.9,2.4,5.8,4 c4.3,3.6,6.7,7.1,7.4,10.7c0.7,3.6-0.4,6.9-3,10.1c-1.8,2.1-4,3.3-6.7,3.7c-2.7,0.3-5.2-0.2-7.7-1.7l-3.5,21.7L443.8,138.7z M462.1,105.6c-0.8-0.7-1.6-1.1-2.6-1.4l-9.9,11.9c0.3,0.4,0.8,1,1.5,1.6c1.9,1.6,3.9,2.3,5.8,2c1.9-0.3,3.7-1.4,5.4-3.4 c1.8-2.1,2.7-4,2.7-5.7C465,108.9,464,107.2,462.1,105.6z"/><path d="M456,150.1l31.5-28l14.3,16.1l-5,4.4l-7.7-8.7l-8,7.1l6.7,7.6L483,153l-6.7-7.6l-8.7,7.7l7.7,8.7l-5,4.4L456,150.1z"/></g><g><path d="M101.9,240.7l-23.6-8.4c-2.3-0.8-4.8-1.6-6.2-2l2-5.6l3.1,0.8l0-0.1c-1.8-2.1-2.1-5-1.2-7.6c1.7-4.8,7.3-7.3,13.6-5 c6.9,2.4,9.3,8.2,7.6,13c-0.9,2.5-2.5,4.2-4.2,4.6l0,0.1l11.1,4L101.9,240.7z M86.3,227.9c0.3,0.1,0.8,0.2,1.2,0.3 c1.8,0.2,3.8-0.6,4.5-2.6c1-2.9-1-5.3-4.2-6.5c-3.5-1.2-6.3-0.3-7.2,2.3c-0.7,1.8,0.1,3.8,1.7,4.8c0.4,0.3,0.9,0.5,1.4,0.7 L86.3,227.9z"/><path d="M76.5,248.4c-2.8-0.4-4.7,2-5.3,5.1c-0.5,2.3-0.6,4.1-0.4,6l-4.7-0.1c-0.4-2.4-0.3-5.1,0.4-8c1.6-7.2,6.6-10.4,13.2-9 c5.4,1.2,10.6,5.8,9,13.2c-1.5,6.9-7.4,8.3-12.6,7.2c-1.1-0.2-2.1-0.6-2.6-0.8L76.5,248.4z M79.3,257.1c1.6,0.3,4.4,0.2,5.1-2.8 c0.6-2.8-1.7-4.4-3.4-5L79.3,257.1z"/><path d="M94.1,282.5l-0.5,6.7L62.2,287l0.5-6.7L94.1,282.5z"/><path d="M61.9,309.3l2.2-0.4l0-0.1c-1.8-1.4-2.7-3.6-2.8-6.2c-0.1-4.4,3-7.1,6.5-7.1c5.6-0.1,8.4,4.9,8.6,12.6l0.3,0 c1.2,0,2.8-0.7,2.7-4c0-2.2-0.9-4.6-1.8-6l4.3-1.3c0.9,1.5,2,4.4,2.1,8.4c0.2,7.2-4.1,9.6-9.2,9.7l-7.5,0.2 c-2.1,0-4.1,0.2-5.3,0.4L61.9,309.3z M72.2,308.3c0-3.6-0.9-6.3-3.5-6.2c-1.7,0-2.5,1.2-2.5,2.7c0,1.7,1.2,3,2.6,3.5 c0.4,0.1,0.8,0.1,1.2,0.1L72.2,308.3z"/><path d="M64.4,337.7c1.4-0.2,4-0.6,6.4-1.1l24.5-4.9l1.3,6.6l-12.1,2.4l0,0.1c2.1,0.9,3.7,2.9,4.3,5.8c1,5.1-2.4,9.7-9,10.9 c-7.7,1.5-12.5-2.6-13.4-7.4c-0.5-2.5-0.1-5.1,2.2-7.1l0-0.1l-3,0.3L64.4,337.7z M74.8,342.6c-0.4,0.1-0.8,0.2-1.1,0.4 c-1.7,0.8-2.7,2.6-2.4,4.5c0.6,2.8,3.1,4.1,6.9,3.4c3.3-0.7,5.6-2.7,5-5.8c-0.4-1.8-2-3.2-4-3.2c-0.4,0-0.8,0-1.2,0.1L74.8,342.6z "/><path d="M71.5,368.6l20.7-6.4l2,6.4L73.5,375L71.5,368.6z M100.1,367c-1.8,0.6-3.6-0.4-4.3-2.5c-0.6-2,0.4-3.8,2.2-4.3 c1.9-0.6,3.7,0.3,4.3,2.4C102.9,364.6,101.9,366.4,100.1,367z"/><path d="M95.3,400.2c-7.3,3.1-12.9-0.7-15.1-6c-2.5-5.8-0.5-12,5.9-14.7c6.5-2.7,12.4-0.2,15.1,6.2 C103.8,391.8,101.3,397.7,95.3,400.2z M89,385.9c-3.4,1.5-5.4,4-4.3,6.6c1,2.4,4.1,2.9,7.7,1.4c3-1.3,5.5-3.7,4.3-6.5 C95.5,384.4,91.9,384.6,89,385.9z"/><path d="M128,416.3l-21.5,12.8c-2.1,1.3-4.3,2.6-5.5,3.5l-3.1-5.1l2.6-1.9l0-0.1c-2.8,0.1-5.2-1.5-6.6-3.9 c-2.6-4.4-1-10.2,4.8-13.7c6.3-3.8,12.2-2,14.9,2.4c1.4,2.3,1.6,4.6,0.8,6.2l0,0.1l10.1-6L128,416.3z M108.2,420.3 c0.3-0.2,0.7-0.5,1-0.7c1.4-1.3,1.9-3.3,0.8-5.1c-1.6-2.6-4.8-2.6-7.7-0.8c-3.2,1.9-4.2,4.6-2.8,7c1,1.7,2.9,2.3,4.8,1.7 c0.5-0.1,0.9-0.3,1.4-0.6L108.2,420.3z"/><path d="M107.1,440.9l17.4-13l4,5.4l-17.4,13L107.1,440.9z M133.5,430c-1.5,1.1-3.6,0.9-4.9-0.9c-1.3-1.7-0.9-3.7,0.6-4.8 c1.5-1.2,3.6-0.9,4.9,0.8C135.4,426.8,135,428.8,133.5,430z"/><path d="M136.7,443.4l-5.5,8.9c-1,1.6-2,3.1-3.1,4.5l0.1,0.1c1.6-0.9,3-1.8,4.7-2.6l9.4-4.7l4.8,5.3l-21.5,8.5l-4.5-5l10.8-20.4 L136.7,443.4z"/><path d="M146.5,472c-1.7,2.3-0.5,5.1,1.9,7.1c1.7,1.5,3.3,2.5,5.1,3.3l-2.3,4c-2.3-0.8-4.6-2.2-6.8-4.2 c-5.5-4.8-5.9-10.8-1.4-15.9c3.6-4.1,10.2-6.5,15.9-1.5c5.3,4.6,3.7,10.5,0.2,14.5c-0.8,0.9-1.5,1.5-1.9,1.9L146.5,472z M155.5,473.7c1.1-1.2,2.4-3.8,0-5.8c-2.1-1.9-4.7-0.7-6,0.6L155.5,473.7z"/><path d="M167.2,481.4c1.8-2.6,3-4.4,4-5.9l4.8,3.3l-2.1,3.4l0.1,0.1c2.7-1.9,5.7-1.5,7.4-0.3c0.5,0.4,0.8,0.5,1.1,0.9l-3.7,5.2 c-0.3-0.4-0.8-0.8-1.4-1.2c-2-1.4-4.2-1.3-5.7,0.1c-0.3,0.3-0.7,0.7-1,1.2l-6.3,9l-5.5-3.9L167.2,481.4z"/><path d="M179.6,500.2c0.7,1.3,2.5,3.3,4.2,4.3c1.8,1,2.9,0.8,3.4-0.2c0.5-1,0.2-1.8-1.5-3.7c-3.1-3.5-3.4-6.5-2.1-8.7 c2-3.5,6.5-4.5,11.2-1.8c2.2,1.3,3.9,2.9,4.7,4.1l-3.3,3.5c-0.6-0.9-1.9-2.5-3.5-3.4c-1.4-0.8-2.6-0.7-3.1,0.3 c-0.5,0.9,0,1.8,1.8,3.9c2.9,3.3,3.4,5.9,1.8,8.7c-2,3.5-6.3,4.5-11.6,1.4c-2.5-1.4-4.4-3.2-5.3-4.8L179.6,500.2z"/><path d="M197.2,516.4l9.1-19.7l6.1,2.8l-9.1,19.7L197.2,516.4z M215.2,494.2c-0.8,1.7-2.7,2.5-4.7,1.5c-1.9-0.9-2.6-2.9-1.8-4.5 c0.8-1.8,2.7-2.5,4.7-1.6C215.3,490.5,216,492.4,215.2,494.2z"/><path d="M228.5,499.4l-2.2,5.8l4.5,1.7l-1.8,4.7l-4.5-1.7l-2.8,7.4c-0.9,2.4-0.8,3.8,1.1,4.5c0.8,0.3,1.4,0.4,1.9,0.5l-1.8,4.8 c-1,0-2.5-0.3-4.3-1c-2-0.8-3.5-2.1-4.1-3.5c-0.7-1.6-0.6-3.8,0.5-6.7l3.1-8.3l-2.7-1l1.8-4.7l2.7,1l1.7-4.4L228.5,499.4z"/><path d="M238.8,522.9c-0.5,2.8,1.8,4.7,4.9,5.5c2.2,0.6,4.1,0.8,6,0.7l-0.3,4.6c-2.4,0.3-5.1,0-7.9-0.7 c-7.1-1.9-10.1-7.1-8.4-13.6c1.4-5.3,6.2-10.3,13.5-8.4c6.8,1.8,8,7.7,6.6,12.9c-0.3,1.1-0.7,2.1-0.9,2.5L238.8,522.9z M247.6,520.5c0.4-1.6,0.4-4.4-2.6-5.2c-2.7-0.7-4.5,1.5-5.1,3.2L247.6,520.5z M255.8,504.1l-6.9,5.2l-4.5-1.2l5.4-5.6 L255.8,504.1z"/><path class="st4" d="M295.2,508.8l-1.9,24.9c-0.2,2.4-0.3,5-0.3,6.5l-6-0.5l-0.1-3.2l-0.1,0c-1.6,2.3-4.3,3.4-7.1,3.1 c-5.1-0.4-8.9-5.1-8.4-11.8c0.5-7.3,5.4-11.1,10.6-10.7c2.7,0.2,4.7,1.3,5.5,2.9l0.1,0l0.9-11.7L295.2,508.8z M287,527.2 c0-0.4,0-0.8,0-1.2c-0.3-1.8-1.6-3.5-3.7-3.6c-3.1-0.2-4.9,2.4-5.1,5.8c-0.3,3.7,1.3,6.1,4.1,6.3c1.9,0.2,3.6-1.1,4.1-2.9 c0.2-0.5,0.3-1,0.3-1.5L287,527.2z"/><path class="st4" d="M309,531.3c0.4,2.8,3.2,4,6.3,3.8c2.3-0.1,4.1-0.5,5.9-1.2l1.1,4.5c-2.2,1-4.9,1.6-7.8,1.7 c-7.4,0.4-11.8-3.7-12.1-10.4c-0.3-5.5,2.8-11.7,10.4-12.1c7-0.4,9.9,5,10.2,10.3c0.1,1.2,0,2.2-0.1,2.7L309,531.3z M316.7,526.3 c-0.1-1.6-0.9-4.3-4-4.2c-2.8,0.1-3.9,2.8-3.9,4.6L316.7,526.3z"/><path class="st4" d="M332.2,532.2c1.3,0.5,4,1,6,0.7c2-0.3,2.7-1.2,2.6-2.3c-0.2-1.1-0.9-1.5-3.6-1.9c-4.7-0.8-6.8-2.9-7.1-5.4 c-0.7-4,2.3-7.6,7.6-8.4c2.5-0.4,4.8-0.2,6.2,0.2l-0.4,4.8c-1.1-0.4-3-0.8-4.8-0.5c-1.6,0.3-2.4,1.1-2.3,2.2 c0.2,1,1.1,1.4,3.9,1.9c4.3,0.7,6.3,2.5,6.9,5.7c0.7,4-2,7.4-8.1,8.4c-2.8,0.5-5.4,0.3-7.2-0.4L332.2,532.2z"/><path class="st4" d="M365.9,500l3.9,10.8l10.5-3.7l-3.9-10.8l6.4-2.3l10,28.2l-6.4,2.3l-4.2-11.8l-10.5,3.7l4.2,11.8l-6.4,2.3 l-10-28.2L365.9,500z"/><path class="st4" d="M415.3,511.1l-1.4-1.7l-0.1,0.1c-0.4,2.2-2,4.1-4.3,5.2c-3.9,2-7.7,0.4-9.3-2.6c-2.6-5,0.6-9.7,7.4-13.3 l-0.1-0.3c-0.5-1-1.9-2.2-4.8-0.6c-2,1-3.7,2.8-4.5,4.2l-3.1-3.3c0.9-1.4,3.1-3.8,6.6-5.6c6.4-3.4,10.4-0.7,12.8,3.8l3.5,6.7 c1,1.8,2,3.6,2.7,4.5L415.3,511.1z M409.8,502.4c-3.2,1.6-5.2,3.6-4,6c0.8,1.5,2.2,1.7,3.6,1c1.5-0.8,2.2-2.4,1.9-3.8 c-0.1-0.4-0.2-0.7-0.4-1.1L409.8,502.4z"/><path class="st4" d="M443.1,484.9c1.6,2.3,3,4.2,4.2,5.6l-4.8,3.4l-2-2.3l-0.1,0.1c0.1,1.6-0.3,4.6-3.5,6.8 c-3.6,2.5-7.8,2.1-11.7-3.3l-7.3-10.4l5.6-3.9l6.7,9.5c1.8,2.6,3.7,3.5,5.7,2.2c1.5-1.1,1.7-2.7,1.4-3.9c-0.1-0.4-0.4-0.9-0.7-1.3 l-7.4-10.6l5.6-3.9L443.1,484.9z"/><path class="st4" d="M442.5,457.8l4.1,4.7l3.6-3.2l3.3,3.7l-3.6,3.2l5.2,5.9c1.7,2,3,2.4,4.5,1.1c0.6-0.6,1.1-1.1,1.4-1.5l3.4,3.8 c-0.4,0.9-1.5,2.1-2.9,3.3c-1.6,1.4-3.5,2.1-5,2c-1.8-0.1-3.6-1.3-5.7-3.6l-5.9-6.6l-2.2,1.9l-3.3-3.7l2.2-1.9l-3.1-3.5 L442.5,457.8z"/><path class="st4" d="M466.4,465.6c1.4-0.4,3.8-1.7,5.2-3.1c1.4-1.5,1.5-2.6,0.6-3.3s-1.7-0.6-4,0.6c-4.2,2.2-7.1,1.8-9,0 c-2.9-2.8-2.8-7.4,0.9-11.3c1.7-1.8,3.7-3.1,5.1-3.6l2.6,4.1c-1.1,0.3-2.8,1.2-4.1,2.6c-1.1,1.2-1.3,2.3-0.5,3.1 c0.7,0.7,1.7,0.4,4.2-0.9c3.9-2,6.6-1.9,8.9,0.3c2.9,2.8,2.9,7.1-1.3,11.7c-1.9,2.1-4.1,3.5-5.9,4.1L466.4,465.6z"/><path class="st4" d="M481.9,435.4l3.5,2.8l-7.2,9.1l-3.5-2.8L481.9,435.4z"/><path class="st4" d="M483.1,401.4l21.3,13.2c2.1,1.3,4.3,2.6,5.6,3.3l-3.2,5.1l-2.9-1.4l0,0.1c1.3,2.5,1,5.3-0.5,7.7 c-2.7,4.4-8.6,5.6-14.4,2c-6.2-3.8-7.4-9.9-4.7-14.3c1.4-2.3,3.3-3.5,5.1-3.6l0-0.1l-10-6.2L483.1,401.4z M495.7,417.1 c-0.3-0.2-0.7-0.4-1.1-0.6c-1.8-0.6-3.8-0.2-4.9,1.6c-1.6,2.6-0.1,5.4,2.8,7.2c3.1,1.9,6,1.6,7.5-0.8c1-1.7,0.7-3.7-0.7-5 c-0.3-0.4-0.7-0.7-1.2-1L495.7,417.1z"/><path class="st4" d="M509.6,399.1c2.6,0.9,5-1,6.3-3.9c1-2.1,1.4-3.9,1.7-5.8l4.5,1.1c-0.1,2.4-0.8,5-2,7.7c-3,6.7-8.7,8.8-14.8,6 c-5-2.3-9.1-7.9-6-14.8c2.9-6.4,9-6.6,13.8-4.4c1.1,0.5,1.9,1,2.3,1.3L509.6,399.1z M508.7,390c-1.5-0.7-4.3-1.2-5.6,1.7 c-1.2,2.6,0.7,4.7,2.3,5.6L508.7,390z"/><path class="st4" d="M516.9,365.7l4.3,1.4l-3.6,11l-4.3-1.4L516.9,365.7z"/><path class="st4" d="M503.5,354.8l3.9-17.9l5.4,1.2l-2.5,11.2l6.7,1.5l2.3-10.5l5.4,1.2l-2.3,10.5l11.7,2.6l-1.5,6.6L503.5,354.8z "/><path class="st4" d="M523.5,332.8c-3.2-0.4-5.3-0.5-7.1-0.7l0.7-5.8l4,0.2l0-0.2c-3-1.5-4-4.3-3.8-6.3c0.1-0.6,0.1-0.9,0.3-1.4 l6.3,0.7c-0.1,0.5-0.3,1-0.4,1.8c-0.3,2.5,0.8,4.3,2.9,5c0.4,0.1,1,0.2,1.5,0.3l10.9,1.3l-0.8,6.7L523.5,332.8z"/><path class="st4" d="M540.3,301.1l-2.2,0.4l0,0.1c1.7,1.4,2.6,3.7,2.6,6.3c-0.1,4.4-3.3,7-6.8,6.9c-5.6-0.1-8.3-5.2-8.1-12.9 l-0.3,0c-1.2,0-2.8,0.6-2.9,3.9c0,2.2,0.7,4.6,1.5,6l-4.4,1.2c-0.8-1.5-1.8-4.5-1.8-8.5c0.1-7.2,4.4-9.5,9.5-9.4l7.5,0.1 c2.1,0,4.1,0,5.3-0.2L540.3,301.1z M530,301.7c-0.1,3.5,0.7,6.3,3.3,6.4c1.7,0,2.6-1.1,2.6-2.6c0-1.7-1.1-3.1-2.4-3.5 c-0.4-0.1-0.8-0.1-1.2-0.2L530,301.7z"/><path class="st4" d="M525.2,285.3c-2.7,0.3-5,0.7-6.9,1l-0.7-5.8l2.9-0.6l0-0.1c-1.5-0.7-3.8-2.7-4.2-6.3c-0.5-4.4,2-8,8.4-8.8 l12.8-1.5l0.8,6.7l-11.9,1.4c-2.8,0.3-4.6,1.5-4.3,3.9c0.2,1.9,1.6,2.8,2.9,3.1c0.4,0.1,1.1,0.1,1.7,0.1l12.4-1.4l0.8,6.7 L525.2,285.3z"/><path class="st4" d="M531,236.2c0.8,1,1.8,3.1,2.4,5.6c1.6,6.8-1.5,12.2-8.1,13.8c-6.2,1.5-12.2-1.5-14.1-9.4 c-0.4-1.7-0.6-3.7-0.4-5.2l5.1-0.1c-0.2,0.9-0.2,2.1,0.2,3.8c0.8,3.5,3.8,5.1,7.3,4.2c3.9-0.9,5.3-4,4.5-7.2 c-0.4-1.6-0.9-2.7-1.5-3.6L531,236.2z"/><path class="st4" d="M519.1,225.8c2.6-1.2,2.9-4.2,1.8-7.2c-0.8-2.2-1.7-3.8-2.9-5.3l4-2.4c1.6,1.8,2.9,4.2,3.9,6.9 c2.5,6.9,0,12.3-6.4,14.7c-5.2,1.9-12.1,0.7-14.6-6.4c-2.4-6.6,1.8-11,6.9-12.8c1.1-0.4,2.1-0.6,2.6-0.7L519.1,225.8z M512,219.9 c-1.5,0.6-3.9,2.2-2.8,5.1c1,2.7,3.8,2.9,5.6,2.4L512,219.9z"/></g><g><g><g><path class="st5" d="M335.9,422c-2,2.7-5.4,4.7-3.7,9.1c0.4,1-0.5,2.7-1.5,4c-12.8,16.7-25.6,33.5-38.4,50.2 c-1.2,1.6-2.7,2.3-4.9,2.6c-4,0.6-5.8-2.2-8.2-4.2c-5.2-4.2-5.4-7.2-1-12c13.6-14.7,27.2-29.5,40.7-44.3c2-2.2,4.1-4.1,7.3-3.5 c1,0.2,1.5-0.5,2-1.1c1.6-1.9,3.2-3.8,4.7-5.7c-18.2-18.8-15.1-45.2,0-59.7c15.4-14.9,39.8-15.7,56-1.7 c16.5,14.2,19.2,38.5,6.2,56.1c-11.5,15.7-35.8,23.7-58.1,8.7C336.6,421.1,336.2,421.5,335.9,422z M395.5,387.3 c0.1-18.4-14.9-33.4-33.3-33.7c-18.9-0.3-33.8,16.4-33.7,33.4c0,18.5,14.9,33.4,33.4,33.5C380.3,420.6,395.4,405.7,395.5,387.3z "/></g></g><g><path class="st5" d="M338.8,369.5c-0.1,2.2,2.2,3.5,4,2.5c0.6-0.3,1-0.9,1.5-1.4c9.2-9.3,21.7-10.4,32.3-2.8 c1.1,0.8,2.1,1.7,3.7,1.1c1.3-0.5,1.1-1.6,1.3-2.6c0.3-1.2-0.7-1.8-1.5-2.5c-11.7-9.7-31-7.7-40.3,4.2 C339.3,368.6,339,369.2,338.8,369.5z"/></g></g><g><g id="XMLID_2_"><g><path class="st6" d="M336.4,287.7c3.5-2.5,9.1,0.1,11.2-5.3c2.1,1.3,4.5,1.9,4.1,5.4c-0.1,1.1-0.2,4.4,3.7,4 c-3.4,3.1-7,4.1-10.8,4.7c-0.4,0.1-0.9-0.2-1.1-0.5C341.1,293.3,338.7,290.5,336.4,287.7z"/></g><g><path class="st6" d="M346.7,324.3c-5.3-2.6-9.1-6.5-12.4-10.9c-1.1-1.5-2.1-3-3.2-4.5c-1.2-1.8-0.6-3.1,1.9-3.2 c1.3-0.1,2.6-0.1,3.9-0.2c2.6-0.2,5.1-0.4,7.7-0.5c0.6,0,1.3,0.2,1.7,0.6C350.4,309.5,350.7,319.1,346.7,324.3z"/></g><g><path class="st6" d="M336.8,303.5c-1.2,0.1-2.3,0.1-3.5,0.1c-1,0-2.5-0.8-2.8-1.6c-1.8-4-3.3-8.1-4.8-12.1 c-0.2-0.6-0.2-1.3-0.3-1.9c8.8-2.3,14.1,1.3,15.6,10.2c0.2,1.3,1.7,2.4,2.9,4c-0.1,0.1-0.6,0.7-1.2,0.8 C340.7,303.2,338.8,303.4,336.8,303.5z"/></g><g><path class="st6" d="M312.9,325.6c0.8,4.2,1.5,8.4,2.3,12.6c-0.4,0.2-0.9,0.4-1.3,0.7c-2-2.2-4.1-4.3-6.1-6.6 c-0.3-0.3,0.1-1.5,0.5-2c1-1.6,2.2-3,3.3-4.5C312.1,325.7,312.5,325.6,312.9,325.6z"/></g><g><path class="st6" d="M313,359.4c-0.4,0.5-2,0.7-2.7,0.4c-1.3-0.6-2.4-1.7-3.4-2.6c-3.5-3.2-3.2-3.4-1.3-7.7 c1.6-3.6,2.5-7.5,3.9-11.5C316.8,342.2,316.3,355.2,313,359.4z"/></g><g><path class="st6" d="M303.4,349c0.2-0.3,0.4-0.7,0.7-1C303.8,348.3,303.6,348.6,303.4,349z"/></g><g><path class="st6" d="M333,313.8c1.5,1.9,3.2,3.7,4.4,5.8c1.5,2.4,2.4,5.2,3.2,8c0.1,0.5-1.5,2.1-2.4,2.2 c-11,0.6-20.4-2.2-26.2-12.5c-1-1.7-1.9-3.6-3.1-5.2c-2.7-3.5-2.5-7.6-2-11.5c0.5-4.1-1.8-12.7-4.9-16.5 c0.3,1.7,0.7,2.8,0.7,3.9c0.1,3,0.1,6.1,0.3,9.1c0.1,1.8-2,4.2,1.5,5.2c0.2,0.1,0.4,1.5,0,1.8c-0.4,0.4-1.5,0.7-2,0.4 c-4.7-2-8.6-4.8-10.5-8.7c-1.5-3.2-1.6-7.1,0.4-11.8c0.6-1.5,1.4-3.1,2.4-4.4c1.9-2.6,2.2-3.1,1-4.9c-0.1-0.1-0.2-0.2-0.2-0.3 c-0.2-0.3-0.5-0.7-0.9-1.1c0-0.1,0-0.1,0-0.2c0-0.2,0-0.4,0.1-0.4c6.3-1.5,11.3-6.9,17.8-7.6c1.5-0.1,3-0.1,4.7,0.4 c0.7,0.2,1.5,0.4,2.8,0.8c-1.3,0.9-2.2,1.5-3.5,2.5c6.7-0.9,12.9-1.7,19.1-2.5c-0.9,3-1.3,6-5.2,4.5c0.4,1.1,0.7,2,1.2,3.4 c-3.3,0.7-6.4,1.4-9.4,2.1c0,0.3,0.1,0.6,0.1,0.9c3.5-0.4,7-0.6,10.4-1.3c3.1-0.6,10.4,3,11.2,6c0.1,0.6-0.6,1.9-1,2 c-7.6,0.7-15.1,1.4-22.7,1.7c-2.3,0.1-7.1-7.4-7.1-9.9c0-0.9-0.2-1.9-0.5-3.6c-1.5,5.9-3.8,6.8-12.2,5.3 c-0.1,0.3-0.1,0.6-0.2,0.9c2.6,0.3,5.3,1.2,7.8,0.9c3.1-0.4,4.9,0.4,6.2,3.1c0.8,1.7,2.2,3.1,3,4.8c1.8,3.5,1.4,5.1-1.8,7.4 c-0.9,0.6-1.9,1.2-2.9,1.7c-0.8,0.5-1.7,0.9-2.8,1.4c5.3,1.3,9.6-2.4,12-10.3c0.9,1.1,1.8,1.8,2.1,2.7c0,0.1,0,0.1,0.1,0.2 c1.6,5.4,3.1,10.9,4.3,16.4c0.1,0.5-1.7,2.1-2.5,2c-3.9-0.2-7.7-0.8-11.5-1.3c-1.2-0.2-2.3-0.7-3.7-1.1c3.3,4,11.7,6.4,16.7,4.5 c2.2-0.8,3.2-0.2,4.4,1.4C332,312.6,332.5,313.2,333,313.8z"/></g><g><path class="st6" d="M301.9,306c2.9,4.5,6.1,8.9,8.5,13.7c0.8,1.7-0.3,4.5-1.1,6.7c-0.9,2.3-3.1,3.5-5.1,1.6 c-4.3-4.1-8.2-8.6-12.2-12.9c3.9,0.3,6.9-2.3,8.5-7.6l0.7-1.6c0,0,0,0,0,0C301.4,306,301.8,305.9,301.9,306z M309.1,321.6 c-1.2-2.5-2.4-5-3.6-7.5c-0.3,0.1-0.5,0.3-0.8,0.4c1.1,2.6,2.2,5.1,3.3,7.7C308.4,322,308.7,321.8,309.1,321.6z"/></g><g><path class="st6" d="M302.8,349.9c0.9-3,1.7-6,2.5-8.9c-0.3-0.1-0.6-0.1-0.9-0.2c-1,2.7-2.1,5.4-3,8.1c-0.1,0.3,0.6,0.9,0.9,1.3 c-3.1,5.1-4.8,5.5-8.7,1c-2.8-3.3-4.9-7.1-7-10.9c-0.4-0.7,0.2-2.5,0.9-3.2c3.1-3,6.6-5.7,9.8-8.6c1.4-1.3,2.4-1.2,3.8-0.2 c5.9,4,7.3,11,3.6,18.6c-0.2,0.4-0.4,0.8-0.7,1.2c-0.2,0.3-0.4,0.7-0.7,1c0,0.1-0.1,0.1-0.1,0.2c-0.1,0.1-0.1,0.2-0.2,0.3 C303,349.5,302.9,349.7,302.8,349.9z"/></g><g><path class="st6" d="M295.5,274.3c0.1,0.1,0.2,0.2,0.2,0.3C295.7,274.5,295.6,274.4,295.5,274.3z"/></g><g><path class="st6" d="M294.6,272.9c0,0.1,0,0.1,0,0.2l0,0C294.6,273.1,294.6,273,294.6,272.9z"/></g><g><path class="st6" d="M305.2,357.6c4.7,4.8,4.7,4.8,0.4,10.1c-4.2,5.1-5.2,5-9.5-0.2c-0.7-0.9-1.5-1.7-2.2-2.6 c-3.5-4.6-3.5-5.4,0.4-10.8c2.1,1.5,4.2,3.1,6.7,1c0.4-0.3,1.5,0,2,0.4C303.9,356,304.5,356.9,305.2,357.6z"/></g><g><path class="st6" d="M291.9,315C291.9,315,291.9,315.1,291.9,315C291.9,315.1,291.9,315.1,291.9,315 C291.9,315.1,291.9,315,291.9,315z"/></g><g><path class="st6" d="M291.9,315C291.9,315,291.9,315.1,291.9,315C291.9,315.1,291.8,315.1,291.9,315L291.9,315z"/></g><g><path class="st6" d="M296.2,323.5c0.5,0.9,0.5,2.8-0.1,3.4c-3.7,3.3-7.7,6.4-11.6,9.4c-2.4,1.8-4.3,0.8-6.1-1.2 c-3.6-4.1-4.3-9.2-4.8-14.4c-0.2-2.1-0.4-4.1-0.7-6.2c-0.4-0.3-0.8-0.5-1.2-0.8c-0.3,0.7-0.4,1.5-0.9,2.1 c-2.9,3.6-5.9,7.2-9.2,10.4c-2.6,2.4-5.5,4.6-8.8,6.3c-2.2,1.1-3.4,0.4-3.7-1.6c0-0.1,0-0.2,0-0.3c-0.1-0.8,0.5-2.1,1.1-2.4 c5.6-2.2,8.2-7.4,11.7-11.6c1.3-1.5,3.1-2.7,4.9-3.6c1.7-0.9,3.5-1.8,5.2-2.7c3.9-2,7.9-4,12.3-6.2c2.2,3.2,4.9,7.2,7.6,11.1 c0,0,0,0,0,0c-0.1,0.8-0.4,1.9-0.1,2.5C293.2,319.6,294.9,321.4,296.2,323.5z"/></g><g><path class="st6" d="M294.5,368.5c0.5,0.8,0.7,2.4,0.2,3.2c-2.6,4.3-5.6,8.3-8.3,12.5c-1.3,1.9-3.2,2.2-4.5,0.7 c-2.6-3.1-5.5-6.4-6.8-10.1c-0.5-1.5,3.1-6.3,4.7-6.2c4,0.2,6-1.7,8.1-4.2c0.5-0.6,1.1-1,1.8-1.7 C291.6,364.9,293.3,366.6,294.5,368.5z"/></g><g><path class="st6" d="M274.9,287.5c1.2-0.8,2.7-1.1,4.4-0.9c4.2,0.4,9.1,3.5,10.1,6.9c0.3,1,0.6,1.9,1,2.7 c2.2,4.6,5.9,7.6,10.7,9.7l-0.7,1.6c-1.5,1.4-2.7,2.5-3.9,3.7c-1.9,2-3.4,1.8-5-0.5c-3.2-4.7-6.5-9.3-9.8-14 c-0.4-0.6-1-1.2-1.9-1.6c0.2,0.7,0.2,1.5,0.6,2c2.3,3,1.1,5-1.5,7c-2.4,1.9-4.9,3.5-7.6,4.9c-2.7,1.3-5.7,2.4-9,2.9 c0.7-4.5,0.1-9,5-11.4c-2.8,1-5.5,2.1-8.3,3.1c-0.2-0.2-0.4-0.5-0.6-0.7c0.5-0.9,0.8-2,1.5-2.7 C264.9,295.8,269.6,291.2,274.9,287.5z"/></g><g><path class="st6" d="M278.4,338.6c0.3,0,0.6,0.4,0.9,0.4c5.1-0.8,5.9,3.4,7.9,6.4c1.2,1.9,2.7,3.5,4,5.3 c0.5,0.7,0.9,1.5,1.6,2.6c-1.7,2.7-3.2,5.6-5.2,8.1c-5,6-8,6-12.3-0.5c-0.4-0.6-0.8-1.2-1.2-1.8c-2.6-4.3-4.6-9-7-13.5 c-0.8-1.6-0.2-2.7,1.4-3.5c1.7-0.8,3.2-1.8,4.8-2.7c0.5-0.3,1.1-0.6,1.7-0.8C276,338.3,277.2,338.5,278.4,338.6z"/></g><g><path class="st6" d="M299,243.8c2.8,3.6,5.3,7.5,7.5,11.5c1.2,2.1,2.8,3.7,4.9,3.1c1.2-0.3,2.4-2.4,2.9-3.9 c6.2-19.8,7.5-39.9,4-60.4c-2.3-13.5-6.1-26.3-14.9-37.2c-8.9-11-20.4-17.2-34.2-19.2c-10.8-1.5-21.4-1-31.6,3.6 c-5.9,2.7-9.9,7.1-13.1,12.4c-0.3,0.5-0.8,1-1.2,1.4c1.8-11.3,11.5-23.6,24.4-26.7c34-8.4,69.1,10.7,78.2,46.7 c3.5,13.9,6,28,5.5,42.5c-0.3,9.8-1.7,19.4-4.7,28.7c-0.4,1.1,0,2.9-2.3,2.4c-0.3-0.1-1.3,2-1.6,3.1c-0.7,2.8-0.9,5.7-1.8,8.5 c-0.4,1.1-1.9,2.3-3.1,2.5c-1.8,0.3-3.6,0.5-5.5,0.7c-2.2,0.2-4.4,0.4-6.7,0.6c0,0.1-0.3-0.6-0.4-1.3c-0.6-8.7-6.2-14.3-11.8-20 c-2.4-2.4-5.2-2.6-8.3-1.3c-6.7,2.7-8.2,6.2-6.5,13.2c1.8,7.7,3.1,15.5,4.4,23.3c0.3,1.6-0.1,3.4-0.7,4.9 c-0.4,0.9-1.9,1.4-2.8,2c-0.5-0.9-1.4-1.9-1.3-2.7c0.9-8.2,0.9-16.3-1.9-24.2c-0.5-1.3-0.8-2.6-1.5-3.7 c-3.4-5.6-4.1-5.4-9.4-4.3c-1.8,0.4-3.4,0.8-4.9,1.6l-1-1.7c1.5-1.4,2.4-2.2,3.3-2.9c-1.3-1.3-2.5-2.6-3.8-3.9l0.7-1.5 c0.4,0.2,0.7,0.3,1.1,0.5c1.2,0.6,2.2,1.5,3.4,2.1c2.8,1.4,4.3,0.4,4.7-2.5c0.2-1.5,0.8-2.9,1.3-4.9c1.7,2,3,3.7,4.4,5.1 c1.3,1.3,2.7,1.4,4.4,0C286.3,235.6,293.2,236.3,299,243.8z"/></g><g><path class="st6" d="M273.4,377.5c1.7,2.1,4.1,5.2,6.8,8.7c-3.4,1.3-6.4,2.6-9.6,3.6c-0.7,0.2-2.2-0.4-2.7-1.1 c-1.8-2.7-3.5-5.4-4.9-8.4c-0.4-0.9,0.1-2.8,0.8-3.7c0.5-0.6,2.2-0.3,3.3-0.1C268.9,376.7,270.7,377,273.4,377.5z"/></g><g><path class="st6" d="M276.8,366c-1.5,2.5-3,4.9-4.7,7.2c-1,1.4-2.5,2.2-4,0.8c-2.5-2.5-4.9-5.1-7.2-7.8 c-1.5-1.7-2.7-3.6-4.1-5.5c0,0,0,0,0,0c1.7-3.9,3.4-7.8,5.3-11.9c0.6-1.4,1.2-2.8,1.9-4.3c0.8,1.8,1.3,3.1,2,4.3 c2.2,3.7,4.5,7.4,6.7,11c1.1,1.7,2.1,3.4,3.2,5.2C276.2,365.4,276.9,365.9,276.8,366z"/></g><g><path class="st6" d="M262,345.6c-0.4,0.9-0.8,1.8-1.2,2.7c-2.8,6.4-5.9,12.5-11.5,17.2c-4-4.6-3.9-10,0-13.7 c0.9-0.8,1.7-1.7,2.5-2.5c0.8-0.8,1.7-1.6,2.7-2.2c2-1.3,4.4-1.9,6.6-2.8C261.4,344.8,261.7,345.2,262,345.6z"/></g><g><path class="st6" d="M256.9,360.7c1.5,3.4,2.7,7,4.7,10.1c2.5,3.8,2.9,3.6-0.9,6.5c-1.2,0.9-2.4,1.8-3.7,2.8 c-1.6-4.3-3.5-8.2-4.5-12.2C251.7,364.6,254.5,362.6,256.9,360.7z"/></g><g><path class="st6" d="M238.8,328.1c0.2-3.6,18.3-22.6,21.7-22.8C260.2,319.8,252.6,328.9,238.8,328.1z"/></g><g><path class="st6" d="M260.2,342.9c-0.8,0.3-2.9-0.2-2.9-0.5c-0.3-3.4-1.7-8-0.1-10c1.5-2,3.3-3.8,5.1-5.5c3-2.9,6.4-5.6,9.7-8.6 c0.1,2,0,3.9,0.3,5.7c0.5,3,0.8,6.1,2.1,8.7c1.3,2.8,0.6,4.2-1.8,5.2c-4,1.7-8,3.4-12.1,4.9 C260.4,342.8,260.3,342.9,260.2,342.9z"/></g><g><path class="st6" d="M256.9,360.7C256.9,360.7,256.9,360.7,256.9,360.7C256.9,360.7,256.9,360.7,256.9,360.7L256.9,360.7z"/></g><g><path class="st6" d="M256.9,360.7C256.9,360.7,256.9,360.7,256.9,360.7C256.9,360.7,256.9,360.7,256.9,360.7 C256.9,360.7,256.9,360.7,256.9,360.7z"/></g><g><path class="st6" d="M247.3,328.8c0.3,0.6,0.9,1.2,1,1.9c0,0.1,0,0.1,0,0.2c0.8,4.4,0.8,4.4,5.6,3.9c0.5,2.7,1.1,5.3,1.5,8 c0.1,0.7-0.6,1.7-1.2,2.2c-1.1,1.1-2.3,2.2-3.4,3.3c-4,3.8-8.1,7.6-12.2,11.4c-1.9-10.7,0.9-20.5,6.6-29.6 C245.6,329.5,246.6,329.2,247.3,328.8z"/></g><g><path class="st6" d="M233.8,214.9c5.4-0.3,10.8-0.6,16.1-0.3c2.5,0.1,5,1.5,7.5,2.3c0.4,0.1,0.8,0.8,1.1,0.7 c4.6-1,5.6,3,7.7,5.5c2,2.4,4,4.8,6.2,7.5c-4.1,4.6-10.2,3.7-15.4,5.7c-0.8-3.5-1.5-6.6-2.2-9.7c-0.2,0-0.5,0-0.7,0.1 c0.2,2.4,0.4,4.7,0.6,7.7c-2.8-2.5-5.1-4.5-7.4-6.6c-0.2,0.2-0.3,0.3-0.5,0.5c2.1,2.3,4.3,4.5,6.6,7c-1.3,0.6-2.1,1-3,1.4 c0.1,0.2,0.2,0.5,0.3,0.6c3,1.3,6,2.6,9,4l-0.7,1.5c-0.3,0.2-0.5,0.4-0.8,0.6c0.3,1.7,0.7,3.4,1.2,6.3l1,1.7 c-1.3,0.7-2.3,1.7-3.2,3.3c-0.9,1.8-3.1,3-4.6,4.3c-0.8-1.5-1.1-3.2-2-3.7c-1.5-0.7-2.9-0.1-3.9,1.8c-0.7,1.4-3.4,3.2-4.1,2.8 c-2.6-1.4,0.2-2.2,0.9-3.3c0.3-0.4,0.9-0.6,1.3-1c2.6-2.1,2.3-4.6-0.8-5.8c-0.8-0.3-1.7-0.6-2.7-0.9c0.2-0.7,0.3-1.4,0.5-2.1 c-1.3,0.5-2.4,1-3.6,1.4c-0.9-5.3-1.1-5.3-6.5-5.7c-2-0.2-3.8-1.3-5.8-2c-6-1.9-11.9,0.7-15.4,6.5c-0.6,1-1.2,2.1-1.8,3.2 c-2.8-3.4-3.3-10.4-1.1-13.6c1.2-1.6,2.6-3.1,3.7-4.8c1-1.7,1.3-4,2.7-5.2c4.5-3.8,9.3-7.2,14.2-10.5 C229.8,215.3,231.9,215,233.8,214.9z"/></g><g><path class="st6" d="M257.9,151.2c5.4,3.5,6.5,8.5,4.5,16.4c-2.6,10.6-13.2,17.6-23.6,15.7c-1-0.2-2.1-0.6-3.1-1.2 c8.6,1.5,16-0.3,21.8-7c2.8-3.2,3-4.4,2-8.6c-5.1,8.7-12.5,9.9-21,7.4c2.3,0,4.7,0.2,7,0c4.6-0.4,8.7-2,11.6-5.9 c2.1-2.9,2-4.9-0.4-7.5c-4.5-4.8-10.2-6.3-16.1-3.1c-7.4,4.1-14.5,8.8-21.4,13.6c-11.4,8-17.1,10-29.2,8.7 c3.1-1.2,6.1-1.7,8.3-3.3c7.8-5.4,15.3-11.2,22.8-17c1.1-0.9,1.5-2.8,2.2-4.3c0.2,1.8,1.1,1.6,2.1,0.6c4-3.9,8.8-6.6,14.2-8 C246.2,146.2,252.3,147.6,257.9,151.2z"/></g><g><path class="st6" d="M239,260.7c2.5,1.3,4.7,3.3,6.6,5.5c2.1,2.4,1.4,7.1-1.1,9.1c-0.7,0.5-2.6,0.5-3.1-0.1 c-2.5-2.6-4.8-5.4-7.1-8.3c-0.9-1.1-1.5-2.4-2.3-3.6l0,0C232.4,260.2,235.4,258.8,239,260.7z"/></g><g><path class="st6" d="M230.2,320.5c0.6-0.4,1.6-0.2,2.4-0.3c-0.2,0.8-0.1,1.7-0.5,2.3c-3,4.3-6.5,7.9-11.5,9.8 c-1.9-2.4-2-4.2,0.8-5.9C224.4,324.6,227.2,322.4,230.2,320.5z"/></g><g><path class="st6" d="M223.3,155.2C223.3,155.2,223.3,155.2,223.3,155.2C223.3,155.2,223.3,155.2,223.3,155.2L223.3,155.2z"/></g><g><path class="st6" d="M223.3,155.1c0,0,0,0.1,0,0.1L223.3,155.1C223.3,155.1,223.3,155.1,223.3,155.1z"/></g><g><path class="st6" d="M220.3,281.5c3.3-2.1,6.6-4.3,9.8-6.4c-0.3-0.4-0.5-0.8-0.8-1.2c-3.2,2.2-6.5,4.4-9.7,6.7 C219.9,280.8,220.1,281.2,220.3,281.5z M232,263.3c0.1,6.9,4.7,13.3,11.4,15.4c0.7,0.2,2.2-0.5,2.6-1.1c1.3-2.2,2.6-4.5,3.3-6.9 c0.7-2.2,1.8-2.7,3.7-1.9c3,1.3,6.5,2.2,5.9,6.8c-0.1,1.1,0.7,2.3,1.3,3.4c3.3,5.9,2.6,11.5-1.2,17c-6.3,9-4.3,8-12.4,2.2 c-4.6-3.3-7.1-8.2-8.7-13.6c-0.5-1.8-0.9-3.6-1.7-5.4c-1.4,3.9,0.6,7.3,1.8,10.7c1.9,5.5,5.3,10.1,9.8,13.8 c2.7,2.2,3.7,2.4,7,1.5c-1.1,3.8-3.6,5.7-7.3,6.9c-3.1,1-6,2.8-9.2,4.4c0.6,0.4,1,0.7,1.5,1.1c-5.7,1.9-8,0.9-10-4.5 c-1.3-3.3-2.3-6.7-3.4-10c-0.3,0.1-0.6,0.1-0.9,0.2c1.2,4.2,2.2,8.5,3.7,12.5c0.7,1.9,0.7,3-0.8,4.3c-3.7,3.1-7.9,5-12.8,5.1 c-2.7,0.1-4.2-1-4.1-3.9c0.2-3.9,0.4-7.8,0.6-11.7c0.1-1.3,0.2-2.6,0.4-3.9c-0.3,0-0.6-0.1-0.9-0.1c-0.9,5.3-1.9,10.5-2.7,14.9 c-2.1,0.8-3.6,1.7-5.2,1.9c-2.5,0.3-5.1,0.4-7.6,0c-0.6-0.1-1.5-2.8-1.1-4c1.4-4.8,3.1-9.4,5-14.1c0.8-2.1,2.7-2.4,4.9-2.6 c10.8-0.8,19.6-5.6,26.1-14.3c0.2-0.2,0.1-0.6,0.4-1.6c-1.7,1.6-3,2.8-4.8,4.6c0.4-1.4,0.6-2,0.8-2.6c-3.7,2.6-7.3,5.1-10.9,7.6 c0.3,0.3,0.7,0.6,1.1,0.9c-2.7,3.7-16.8,3.4-28.5-0.8c4-5.6,7.9-11,11.7-16.3c0.4,0.2,0.8,0.3,1.2,0.5c0.1,1.3,0.3,2.5,0.2,3.8 c-0.3,3.1,1.2,4,4,3.5c5.7-1.1,11.5-1.9,17.1-3.3c5-1.3,8.8-4.3,10.1-9.7c-3.4,3.9-6.9,7.4-12.1,8.6c-4.7,1-9.4,1.8-14.1,2.7 c-1.9,0.3-2.2-0.8-2.3-2.4c-1.1-10.4,1-14,10.8-18.6c0.2-0.1,0.2-0.3,0.3-0.5c-6.2,0-11.2,3.4-12.8,9.1 c-0.8,2.8-1.9,4.2-5.1,3.6c-2.1-0.4-4.4,0.3-7.2,0.6c3.8-5.6,8.7-9.5,14.5-13.6c-3.7-1.2-6.5-2.2-9.4-3.1 c-0.1-0.4-0.1-0.7-0.2-1.1c2.4-0.7,4.8-1.8,7.3-2c5.9-0.6,11.8-1.1,17.7-0.9c3,0.1,6,1.7,8.7,3.1 C230.5,260,231.1,261.9,232,263.3L232,263.3L232,263.3z"/></g><g><path class="st6" d="M215.4,327.2c-3.6,1.5-7,1.3-10-1.3C209.1,324,211.8,328.5,215.4,327.2z"/></g><g><path class="st6" d="M193.2,300.4c1.8-0.2,3.6-0.3,5.4-0.5c0.1,0.5,0.2,1,0.3,1.4c-1.1,1.4-1.7,3.9-4.3,2.4 C193.7,303.2,193.6,301.5,193.2,300.4z"/></g></g></g><g><g><path class="st7" d="M142.3,257.9c0,0.7-0.4,1.2-1,1.4c-0.6,0.1-1.1,0-1.5-0.7c-0.5-0.9-0.8-1.9-0.9-3c-0.3-3.5,0.4-6.7,1.7-9.7 c0.9-2,1.1-4,1.1-6.1c0-2-0.4-3.9-0.2-5.9c0.1-0.9-0.1-1.8-0.2-2.6c-0.5-2.6-1.2-5-2-7.4c-0.4-1.1-1.6-1.3-2.2-0.4 c-0.5,0.8-0.8,1.6-0.8,2.6c0,2.6,0,5.1,0,7.7c0,3.8,0.1,7.5,1.8,10.9c0.1,0.2,0.2,0.4,0.2,0.7c0.2,1.3-0.7,2.2-1.7,1.6 c-1.5-0.8-2.6-2.1-2.8-4.2c-0.1-2.3-0.3-4.5-0.2-6.8c0.1-2-0.2-4-0.5-6c-0.2-1.3-0.9-2.4-0.7-3.8c0.3-2.4-1.2-4.1-2-6 c-0.3-0.6-0.9-0.7-1.5-0.7c-1.2,0-2.4,0.1-3.6,0c-1.5-0.1-3.1-0.1-4.2-1.4c-2.3-2.6-4.6-5.2-5.5-9c-0.1-0.4-0.1-1-0.6-1.1 c-0.6-0.1-1,0.4-1.2,0.9c-0.4,0.8-0.9,1.5-1.5,2c-1.1,0.8-2,1.8-2.7,2.9c-1.1,1.9-2.7,3.2-4,4.9c-0.3,0.4-0.7,0.9-1.2,0.4 c-0.4-0.4-0.3-1-0.1-1.5c0.1-0.2,0.2-0.4,0.3-0.6c1.2-1.7,2.3-3.5,3.7-5c1.7-1.9,3.5-3.9,4.8-6.3c0.3-0.5,0.6-1,0-1.5 c-0.7-0.6-3.5-0.6-4,0.1c-1.6,2.3-4.1,3.2-5.9,5.3c-0.4,0.5-1.1,1-1.8,0.3c-0.6-0.6-0.4-1.5,0.3-2.3c0.1-0.2,0.3-0.3,0.5-0.4 c1.4-1.2,2.8-2.4,3.9-4c0.5-0.7,1.2-1.2,2.1-1.4c1.7-0.4,3.3-0.7,5-0.7c1.3,0.1,2.5-0.2,3.7-0.7c1.1-0.4,2.3-1.2,2.7-2.4 c0.6-2.2,1.8-4.2,2.2-6.4c0.2-0.8,0.3-1.7,1-2.2c1.1-0.8,2.1-1.9,3.4-2.4c1.8-0.6,2.9-2.1,3.5-4.2c0.4-1.5,1.1-2.8,2.3-3.5 c1.8-1,3.7-1.6,5.7-1c0.8,0.2,1.4,0.1,2-0.4c1.1-0.9,2.2-1.3,3.6-1.2c1.5,0.1,3-0.1,4.5,0.1c1.9,0.2,3.9,0.2,5.8,1 c1.2,0.5,2.5,0.7,3.8,0.7c1.4,0,2.9-0.1,4.3-0.1c3.1-0.1,5.1-2.1,7.1-4.4c1.1-1.3,2-2.6,3.3-3.6c2.2-1.7,4-3.8,6.3-5.4 c0.8-0.6,1.8-1,2.5-1.7c2.4-2.4,5-4.1,8.1-4.8c1.3-0.3,2.6-0.7,3.9-1c1.6-0.4,3.1-0.1,4.6,0.5c0.7,0.3,1.2,0.9,1.5,1.7 c0.7,2-0.3,5.6-2,7.1c-0.8,0.7-1.5,1.4-2,2.4c-2.1,4.4-4.8,8.3-8.6,11c-3,2.2-6.3,3.8-9.7,4.9c-0.3,0.1-1,0.2-0.4,0.6 c1.4,0.9,2.2,2.4,3.3,3.5c0.5,0.5,1,0.7,1.7,0.4c1.3-0.5,2.6-1,3.9-1.7c2.9-1.5,5.8-3.1,8.7-4.7c5-2.7,10.2-4.8,15.1-7.9 c3.5-2.2,7.3-2.2,11.1-1.4c2.4,0.5,4.7,3.5,3.9,7c-0.3,1.4-1,2.7-1.4,4.1c-0.5,1.6-1.3,3-2.4,4.1c-0.6,0.6-1.1,1.4-1.4,2.3 c-0.8,2.4-2.1,4.2-3.7,6c-2.3,2.5-4.2,5.4-6.9,7.5c-1.4,1-2.4,2.6-4,3.2c-1.9,0.8-3.8,1.7-5.8,2.4c-1,0.4-1.3,1-1.2,2.1 c0.1,0.6,0.1,1.2,0.4,1.7c0.2,0.5,0.3,1,0.3,1.5c0.1,3.6,0.2,7.2,0.1,10.7c0,0.7-0.1,1.4-0.2,2.1c-0.6,2.8-1.4,5.5-1.7,8.3 c-0.2,2-0.8,4.1-2.6,5.2c-0.3,0.2-0.6,0.5-0.8,0.8c-0.3,0.3-0.6,0.6-0.5,1.2c0.2,0.5,0.5,0.7,0.9,0.8c2.4,0.4,4.6,1.6,6.9,2.6 c0.7,0.3,1.3,0.7,1,1.7c-0.2,0.8-0.9,1.1-1.8,0.9c-0.2-0.1-0.5-0.2-0.7-0.3c-1.5-0.9-3-1.4-4.6-2c-0.4-0.1-0.9-0.1-1.1-0.5 c-0.6-0.9-1.5-0.9-2.3-1c-2.1-0.2-3.5,1.5-5,2.6c-0.6,0.4-0.3,1.3,0.1,1.9c1.3,2,2.4,4,3.9,5.8c0.7,0.9,1.5,1.6,2.2,2.5 c0.8,1.2,1.7,2.2,2.8,3c0.4,0.3,0.9,0.7,1.2,1.1c0.3,0.3,0.4,0.7,0.3,1.1c-0.2,0.5-0.5,0.7-1,0.8c-0.4,0.1-0.8-0.2-1.2-0.4 c-0.9-0.6-1.8-1.4-2.6-2.3c-1.1-1.2-2-2.7-3.2-3.9c-1.1-1-2-2.3-2.9-3.6c-0.9-1.4-2-2.7-3.7-3.2c-1.3-0.3-2.5-0.8-3.5-2 c-0.5-0.6-1.4-0.9-2.2-1c-2.4-0.4-4.8-0.1-7.2-0.5c-0.5-0.1-0.9,0.1-0.7,0.7c0.2,0.6-0.2,1.2,0.1,1.7c0.6,1.4,1.1,3,1.9,4.3 c2.1,3.2,4,6.6,5.7,10.1c0.1,0.2,0.2,0.4,0.4,0.6c1.9,1.8,2.8,4.4,3.9,6.8c1.1,2.5,1.6,5.4,2.8,7.9c0.1,0.3,0.2,0.7,0.2,1 c0.1,1.1-0.3,1.6-1.2,1.5c-0.7-0.1-1.1-0.7-1.3-1.4c-0.2-0.8-0.6-1.5-0.9-2.3c-0.7-1.9-1.6-3.6-2.3-5.5c-0.9-2.7-2-5.2-3.7-7.4 c-1.1-1.5-1.5-3.5-2.7-4.8c-2.2-2.2-3.1-5.4-5.2-7.7c-1.3-1.5-2.6-2.9-3.8-4.6c-0.1-0.1-0.3-0.1-0.4-0.2c0,0.1-0.1,0.3-0.1,0.5 c0,1.1-0.1,2.2,0.3,3.3c1,3.4,2.7,6.5,3.6,10c0.5,2,1.1,4.1,2.1,5.9c0.2,0.4,0.2,0.8,0.2,1.2c0,0.6-0.2,1.1-0.7,1.3 c-0.5,0.2-1,0.1-1.4-0.3c-0.3-0.4-0.7-0.8-0.7-1.4c0-0.7-0.2-1.3-0.5-1.8c-1-2-1.6-4.1-2.2-6.2c-0.1-0.4,0-1-0.3-1.4 c-1.8-2.1-2.7-4.9-4.1-7.3c-1.1-1.8-2-3.9-2.5-6.1c-0.1-0.6-0.5-1.1-0.8-1.7c-0.8-1.2-1.9-2.3-2.3-3.7c-0.8-2.3-1.7-4.6-2-7.1 c-0.4-3.1-1.1-6.1-1.9-9.2c-0.3-1.2-1.3-1.9-2.3-1.8c-0.7,0.1-1.2,0.3-0.9,1.4c0.2,0.6,0.2,1.2,0.2,1.8 c-0.3,4.2,0.4,8.3,0.3,12.5c0,0.3,0.1,0.7,0.2,1c0.3,3.1,0.3,6.1-0.9,8.9c-0.9,2-1.7,4-1.4,6.3 C142.3,256.2,142.4,257,142.3,257.9z M172.2,212.7c1.7,0,3.5,0.1,5.2-0.1c1.1-0.1,2.1-0.2,3.2-0.2c4.6,0,9.2-0.8,13.8-0.5 c0.4,0,0.8,0,0.7-0.6c0-0.6-0.4-0.6-0.8-0.6c-2.8,0.2-5.6-0.2-8.5,0.4c-2,0.4-4.2,0.6-6.3,0.4c-1.7-0.1-3.5,0.4-5.2,0.4 c-1.1,0-2.2,0.1-3.3-0.3c-0.3-1.4-1.4-1.4-2.3-1.6c-2-0.4-4.1-0.4-6.1-0.9c-2.5-0.7-4.6-2.3-6.9-3.4c-1-0.5-1.5-1.8-2-2.9 c-0.5-1.3,0-2.1,1.1-2.6c3.2-1.4,6.6-2.2,10-2.6c3.1-0.4,5.9-1.6,8.4-3.6c1.3-1,2.7-1.9,4.3-2.3c0.3-0.1,0.7-0.3,1-0.5 c0.6-0.4,0.7-0.9,0.2-1.4c-1.5-1.5-2.6-3.5-4.5-4.6c-1.3-0.8-2.4-2.1-3.9-2.4c-2.6-0.4-5-1.5-7.1-3.3c-0.2-0.1-0.4-0.2-0.6-0.2 c-1.5,0-3-0.4-4.6-0.1c-0.9,0.2-1,0.7-0.9,1.6c0.2,2.6,1.3,4.7,2.6,6.7c1.5,2.3,3.3,4.4,4.2,7.2c0.6,1.8,0.5,1.9-1.1,2.2 c-3.1,0.6-6.3,1-9,3.1c-0.8,0.6-1.2,2.8-0.6,4c0.6,1.2,1.5,2.2,2.6,2.9c2.6,1.6,5.2,2.9,8.1,3.4c0.3,0,0.5,0.2,0.8,0.2 c2.1,0.1,4.3,0.1,6.3,0.9C171,212.6,171.5,212.7,172.2,212.7z M169,246.6c0.8,1.1,1.8,0.9,2.9,0.9c2.4-0.1,4.6,0.2,6.6,2.1 c0.8,0.8,2,1.1,3.2,1.2c0.6,0,1.2,0,1.5-0.6c0.9-1.7,2.4-2.7,3.7-3.6c2.5-1.7,4.2-4.5,6.3-6.7c0.7-0.7,0.9-1.9,1.1-3.1 c0.3-1.6,0.2-3.3,0.8-4.7c1.7-4.2,0.8-8.6,1.2-12.9c0.1-0.7-0.2-1.4-0.6-2c-0.6-1-1.6-1.2-2.4-0.5c-0.5,0.4-1.1,0.9-1.5,1.5 c-1.8,2.5-3.9,4.7-5.2,7.6c-0.6,1.3-1,2.7-1.4,4.1c-0.3,1.2-0.8,2.1-1.6,2.9c-1.3,1.4-2.1,3.3-3.4,4.7c-1.4,1.5-2.9,2.3-4.9,2.2 c-1.9-0.1-3.9,0.3-5.8,0.3c-1,0-1.3,0.7-1.6,1.6c-0.2,0.6-0.1,1.2-0.1,2.1C167.4,244.8,168.3,245.6,169,246.6z M132.7,180.2 c-1,0.5-1.6,1.5-2,2.6c-0.5,1.5-1.3,2.8-2.1,4.1c-0.9,1.4-0.5,3.7,0.9,4.6c1.7,1.1,3.4,2,5,3.1c2.5,1.7,4,4,4.2,7.6 c0.2,4.4,3.1,7.2,7,6.5c1-0.2,1.9-1.2,3-1.3c0.8,0,1.3-0.5,2-0.9c0.2-0.1,0.5-0.3,0.5-0.6c1.1-4,0.7-7.8-1.3-11.3 c-1.5-2.5-2.9-5.1-4.3-7.7c-0.7-1.3-1.2-2.8-2-3.9c-1.7-2.4-4-3.7-6.6-3.5C135.3,179.3,134,179.6,132.7,180.2z M170.3,213.5 c-1.4,0-1.6,0.4-1.5,1.9c0.1,2.8,1.3,5,2.8,6.9c1.3,1.6,3.2,1.6,4.8,1c2.6-0.8,4.9-2.4,6-5.6c0.1-0.4,0.3-0.8,0.3-1.2 c0.6-2.9,0.3-3.2-2.3-3.2c-1.5,0-3,0-4.5,0c0,0,0,0,0,0.1C174.2,213.5,172.3,213.4,170.3,213.5z M176.7,199.4 c5.5-1.4,10.9-3.4,16.2-5.6c3.5-1.4,6.9-3,10.2-5c3.6-2.2,7-4.7,10.5-7.2c0.2-0.2,0.4-0.3,0.4-0.7c-0.1-0.5-0.4-0.5-0.7-0.6 c-0.5,0-0.9,0.1-1.3,0.5c-3,2.7-6.4,4.7-9.7,6.8c-4.1,2.6-8.6,4.4-13,6.1c-1.5,0.6-3,1.3-4.5,1.8c-5.7,1.7-11.4,3.6-17.3,4.3 c-0.2,0-0.3,0-0.5,0c-0.5,0-1.1,0.2-1,1c0.1,0.7,0.7,0.5,0.9,0.5C170.4,201.1,173.6,200.2,176.7,199.4z M188.5,204.7 c4.5-0.9,8.9-1.6,13.4-2.7c2-0.5,3.8-1.8,5.7-2.6c0.3-0.1,0.6-0.5,0.4-1c-0.2-0.6-0.6-0.6-1-0.3c-0.7,0.3-1.4,0.6-2,0.9 c-2.3,1.4-4.7,1.9-7.2,2.4c-3.6,0.7-7.2,1.5-10.8,2.1c-2.6,0.5-5.3,0.8-8,1c-3.8,0.3-7.7,0.7-11.5,0.6c-0.1,0-0.1,0-0.2,0 c-0.4,0.1-0.9,0.1-0.9,0.8c0,0.6,0.5,0.6,0.8,0.6c1.5,0,3,0,4.5,0C177.4,205.9,183,205.8,188.5,204.7z M188.7,161.3 c-2.8,2.3-5.8,4.4-8.2,7.5c-0.7,1-1.7,1.7-2.6,2.4c-2.3,1.8-4.4,3.9-6.8,5.5c-0.2,0.1-0.4,0.2-0.2,0.5c0.1,0.2,0.3,0.2,0.4,0.1 c0.2-0.1,0.4-0.1,0.6-0.3c2.5-2.4,5.4-4.3,8-6.7c0.8-0.7,1.4-1.6,2.1-2.4c2.2-2.5,4.8-4.3,7.4-6.4c0.5-0.4,1.1-0.7,1.7-0.7 c0.2,0,0.5,0,0.5-0.3c0-0.2-0.3-0.3-0.6-0.3C190.2,160.4,189.4,160.7,188.7,161.3z M192.9,164.3c-1.5,0.9-2.9,2-4.1,3.5 c-2.6,3.5-5.6,6.4-9.3,8.4c-1.4,0.8-2.4,2.3-3.7,3.1c-0.1,0.1-0.4,0.3-0.2,0.5c0.1,0.2,0.4,0.1,0.6,0c0.1-0.1,0.2-0.2,0.2-0.2 c2-1.7,4.1-3.1,6.2-4.6c2-1.4,3.9-3.1,5.4-5.2c1.4-2,3.1-3.6,5.1-4.8c0.2-0.1,0.4-0.2,0.4-0.5c0-0.1-0.1-0.1-0.2-0.2 C193.2,164.2,193.1,164.2,192.9,164.3z"/></g><g><path class="st8" d="M167.7,243.6c-0.3,1.2,0.6,2,1.3,3c0.8,1.1,1.8,0.9,2.9,0.9c2.4-0.1,4.6,0.2,6.6,2.1c0.8,0.8,2,1.1,3.2,1.2 c0.6,0,1.2,0,1.5-0.6c0.9-1.7,2.4-2.7,3.7-3.6c2.5-1.7,4.2-4.5,6.3-6.7c0.7-0.7,0.9-1.9,1.1-3.1c0.3-1.6,0.2-3.3,0.8-4.7 c1.7-4.2,0.8-8.6,1.2-12.9c0.1-0.7-0.2-1.4-0.6-2c-0.6-1-1.6-1.2-2.4-0.5c-0.5,0.4-1.1,0.9-1.5,1.5c-1.8,2.5-3.9,4.7-5.2,7.6 c-0.6,1.3-1,2.7-1.4,4.1c-0.3,1.2-0.8,2.1-1.6,2.9c-1.3,1.4-2.1,3.3-3.4,4.7c-1.4,1.5-2.9,2.3-4.9,2.2c-1.9-0.1-3.9,0.3-5.8,0.3 c-1,0-1.3,0.7-1.6,1.6C167.6,242.1,167.7,242.7,167.7,243.6z"/></g><g><path class="st8" d="M136.9,179.5c-1.6-0.2-2.9,0.2-4.2,0.8c-1,0.5-1.6,1.5-2,2.6c-0.5,1.5-1.3,2.8-2.1,4.1 c-0.9,1.4-0.5,3.7,0.9,4.6c1.7,1.1,3.4,2,5,3.1c2.5,1.7,4,4,4.2,7.6c0.2,4.4,3.1,7.2,7,6.5c1-0.2,1.9-1.2,3-1.3 c0.8,0,1.3-0.5,2-0.9c0.2-0.1,0.5-0.3,0.5-0.6c1.1-4,0.7-7.8-1.3-11.3c-1.5-2.5-2.9-5.1-4.3-7.7c-0.7-1.3-1.2-2.8-2-3.9 C141.8,180.5,139.5,179.3,136.9,179.5z"/></g><g><path class="st8" d="M171.1,211.7c-0.3-1.4-1.4-1.4-2.3-1.6c-2-0.4-4.1-0.4-6.1-0.9c-2.5-0.7-4.6-2.3-6.9-3.4 c-1-0.5-1.5-1.8-2-2.9c-0.5-1.3,0-2.1,1.1-2.6c3.2-1.4,6.6-2.2,10-2.6c3.1-0.4,5.9-1.6,8.4-3.6c1.3-1,2.7-1.9,4.3-2.3 c0.3-0.1,0.7-0.3,1-0.5c0.6-0.4,0.7-0.9,0.2-1.4c-1.5-1.5-2.6-3.5-4.5-4.6c-1.3-0.8-2.4-2.1-3.9-2.4c-2.6-0.4-5-1.5-7.1-3.3 c-0.2-0.1-0.4-0.2-0.6-0.2c-1.5,0-3-0.4-4.6-0.1c-0.9,0.2-1,0.7-0.9,1.6c0.2,2.6,1.3,4.7,2.6,6.7c1.5,2.3,3.3,4.4,4.2,7.2 c0.6,1.8,0.5,1.9-1.1,2.2c-3.1,0.6-6.3,1-9,3.1c-0.8,0.6-1.2,2.8-0.6,4c0.6,1.2,1.5,2.2,2.6,2.9c2.6,1.6,5.2,2.9,8.1,3.4 c0.3,0,0.5,0.2,0.8,0.2C166.9,210.8,169.1,210.8,171.1,211.7L171.1,211.7z"/></g><g><path class="st8" d="M176.1,213.5c-1.9,0-3.8,0-5.7,0c-1.4,0-1.6,0.4-1.5,1.9c0.1,2.8,1.3,5,2.8,6.9c1.3,1.6,3.2,1.6,4.8,1 c2.6-0.8,4.9-2.4,6-5.6c0.1-0.4,0.3-0.8,0.3-1.2c0.6-2.9,0.3-3.2-2.3-3.2C179,213.5,177.5,213.4,176.1,213.5 C176.1,213.4,176.1,213.5,176.1,213.5z"/></g><g><path class="st8" d="M166.9,201.3c3.5-0.2,6.7-1.1,9.8-1.9c5.5-1.4,10.9-3.4,16.2-5.6c3.5-1.4,6.9-3,10.2-5 c3.6-2.2,7-4.7,10.5-7.2c0.2-0.2,0.4-0.3,0.4-0.7c-0.1-0.5-0.4-0.5-0.7-0.6c-0.5,0-0.9,0.1-1.3,0.5c-3,2.7-6.4,4.7-9.7,6.8 c-4.1,2.6-8.6,4.4-13,6.1c-1.5,0.6-3,1.3-4.5,1.8c-5.7,1.7-11.4,3.6-17.3,4.3c-0.2,0-0.3,0-0.5,0c-0.5,0-1.1,0.2-1,1 C166.1,201.5,166.7,201.3,166.9,201.3z"/></g><g><path class="st8" d="M171.8,206.4c5.6-0.5,11.2-0.6,16.7-1.7c4.5-0.9,8.9-1.6,13.4-2.7c2-0.5,3.8-1.8,5.7-2.6 c0.3-0.1,0.6-0.5,0.4-1c-0.2-0.6-0.6-0.6-1-0.3c-0.7,0.3-1.4,0.6-2,0.9c-2.3,1.4-4.7,1.9-7.2,2.4c-3.6,0.7-7.2,1.5-10.8,2.1 c-2.6,0.5-5.3,0.8-8,1c-3.8,0.3-7.7,0.7-11.5,0.6c-0.1,0-0.1,0-0.2,0c-0.4,0.1-0.9,0.1-0.9,0.8c0,0.6,0.5,0.6,0.8,0.6 C168.8,206.4,170.3,206.4,171.8,206.4z"/></g><g><path class="st8" d="M171.1,211.7c-0.1,1,0.4,1.1,1,1.1c1.7,0,3.5,0.1,5.2-0.1c1.1-0.1,2.1-0.2,3.2-0.2c4.6,0,9.2-0.8,13.8-0.5 c0.4,0,0.8,0,0.7-0.6c0-0.6-0.4-0.6-0.8-0.6c-2.8,0.2-5.6-0.2-8.5,0.4c-2,0.4-4.2,0.6-6.3,0.4c-1.7-0.1-3.5,0.4-5.2,0.4 C173.3,212,172.2,212.2,171.1,211.7L171.1,211.7z"/></g><g><path class="st8" d="M190.9,160.3c-0.8,0.1-1.5,0.4-2.2,1c-2.8,2.3-5.8,4.4-8.2,7.5c-0.7,1-1.7,1.7-2.6,2.4 c-2.3,1.8-4.4,3.9-6.8,5.5c-0.2,0.1-0.4,0.2-0.2,0.5c0.1,0.2,0.3,0.2,0.4,0.1c0.2-0.1,0.4-0.1,0.6-0.3c2.5-2.4,5.4-4.3,8-6.7 c0.8-0.7,1.4-1.6,2.1-2.4c2.2-2.5,4.8-4.3,7.4-6.4c0.5-0.4,1.1-0.7,1.7-0.7c0.2,0,0.5,0,0.5-0.3 C191.5,160.4,191.2,160.3,190.9,160.3z"/></g><g><path class="st8" d="M193.3,164.1c-0.1,0.1-0.3,0.1-0.4,0.2c-1.5,0.9-2.9,2-4.1,3.5c-2.6,3.5-5.6,6.4-9.3,8.4 c-1.4,0.8-2.4,2.3-3.7,3.1c-0.1,0.1-0.4,0.3-0.2,0.5c0.1,0.2,0.4,0.1,0.6,0c0.1-0.1,0.2-0.2,0.2-0.2c2-1.7,4.1-3.1,6.2-4.6 c2-1.4,3.9-3.1,5.4-5.2c1.4-2,3.1-3.6,5.1-4.8c0.2-0.1,0.4-0.2,0.4-0.5C193.5,164.3,193.4,164.2,193.3,164.1z"/></g></g><g><g><path class="st9" d="M476.7,267.4c0,0.1-0.1,0.1-0.1,0.2c-0.8,1.2-1.6,2.4-2.4,3.6c-0.2,0-0.3,0-0.5,0c0.7-1.2,1.3-2.4,2-3.6 c0.1-0.2,0.3-0.4,0.4-0.7c0.1-0.1,0.2-0.3,0.2-0.4l0,0c0.1-0.1,0.2-0.2,0.3-0.3c0,0,0.1-0.1,0.1-0.1c0.6,0,0.5,0.4,0.4,0.8 c0.6,0,0.7-0.2,0.5-0.7c0.1-0.2,0.2-0.3,0.2-0.5c0.5-0.1,0.5-0.5,0.4-0.8c0.3-0.5,0.6-1.1,0.9-1.6c0.3-0.5,0.7-1.1,1.1-1.6 c0.5-0.5,1.2-1,1.8-1.4c3.6-2.5,6.3-5.5,8-9.6c1.1-2.6,1.6-5.4,2.5-8c0.9-2.7,1-5.5,1.4-8.3c0.2-1.3,0.2-2.6,0.1-3.8 c-0.1-1.9-0.5-3.8-1.4-5.7c0,0.3-0.1,0.5,0,0.6c0.1,1.2,0.2,2.5,0.3,3.7c0.1,1.8,0.1,3.6,0.1,5.3c0,1.1-0.2,2.3-0.4,3.4 c-0.3,1.3-0.8,2.5-1.1,3.8c-0.3,1-0.4,2.1-0.7,3.1c-0.3,1.1-0.8,2.2-1.2,3.3c-0.4,1.1-0.9,2.2-1.4,3.2c-1.2,2.7-2.7,5.1-5.1,6.9 c-0.9,0.7-1.6,1.5-2.5,2.2c-0.7,0.6-1.4,1-2.2,1.5c-0.4,0.2-0.6,0.5-0.9,0.9c-0.4,0.7-0.9,1.4-1.5,1.8c-0.7,0.5-1,1.1-1.2,1.8 c-0.2,0.5-0.4,1.1-0.7,1.6c-1.1,1.6-2.2,3.2-3.4,4.7c-0.3,0.4-0.7,0.7-1.1,0.9c-0.7,0.3-1.1,0.8-1.4,1.5 c-0.9,2.1-2.3,3.8-3.9,5.4c-0.3,0.3-0.6,0.4-1,0.6c-1.5,0.5-2.7,1.3-3.6,2.6c-1.2,1.7-2.7,2.9-4.5,3.8c-0.4,0.2-0.7,0.5-0.9,0.8 c-1.1,1.4-2.6,2.4-4.2,3.2c-2.2,1.1-4.3,2.1-6.5,3.1c-0.9,0.4-1.7,0.9-2.6,1.3c-0.6,0.3-1.3,0.4-1.9,0.6 c-0.7,0.2-1.4,0.3-2.1,0.5c-1.3,0.4-2.5,0.8-3.8,1.1c-2.6,0.7-5.1,1.6-7.7,2.2c-2.2,0.5-4.2,1.2-6.2,2.1 c-1.3,0.6-2.6,1.1-3.9,1.6c-0.8,0.3-1.5,0.8-2.3,1c-1,0.3-1.7-0.4-1.6-1.5c0.1-0.6,0.2-1.2,0.2-1.8c0-1.4-0.8-2.5-2.3-2.8 c-0.6-0.1-1.3-0.2-1.9-0.2c-2.4-0.2-4.8-0.3-7.1-0.5c-0.9-0.1-1.9-0.2-2.8-0.3c-0.4,0-0.7-0.1-1.1-0.1c-0.2-0.1-0.4-0.2-0.6-0.3 c-0.1-0.2-0.2-0.3-0.3-0.5c0-0.3,0.1-0.6,0.2-0.9c0.2-0.1,0.4-0.3,0.6-0.4c0.1,0,0.2,0,0.2-0.1c0.1,0,0.2,0,0.2-0.1 c0.1,0,0.2,0,0.2-0.1c0.1,0,0.2,0,0.4-0.1c0.1,0,0.2,0,0.4-0.1c0.4-0.2,1-0.3,1.3-0.6c1.1-1,2.2-2,3.3-3.1 c0.4-0.4,0.8-0.9,1.2-1.4c0.2-0.2,0.4-0.4,0.6-0.6c1.6-1.1,2.5-2.8,3.3-4.5c0.1-0.1,0.2-0.2,0.2-0.4c0.5-0.8,1.1-1.5,1.3-2.5 c0.1-0.5,0.3-0.9,0.5-1.4c0.2-0.5,0.3-1.1,0.5-1.6c-0.1,0-0.2,0-0.2-0.1c-0.1,0.6-0.3,1.1-0.4,1.7c-0.6,1-1.1,2-1.7,3 c-0.1-0.3-0.1-0.6-0.2-1c-0.2,0-0.5,0-0.8,0c0.6-1.4,1.1-2.9,1.7-4.3c0.4-1,0.7-1.9,0.5-3c-0.1-0.6,0.1-1.2,0.4-1.8 c0.2-0.3,0.3-0.8,0.4-1.2c-0.4-0.3-0.7-0.1-1.1,0c-0.4,0.1-1,0.4-1.4,0.2c-1.3-0.6-2.7-0.5-4-0.4c-2.1,0.2-4.3,0.5-6.4,0.8 c-2.9,0.4-5.8,0.8-8.8,1.1c-1.7,0.2-3.4,0.3-5.1,0.5c-0.1,0-0.3,0.2-0.4,0.3c-0.4,1-1,1.7-1.9,2.3c-0.6,0.4-1.1,0.9-1.6,1.4 c0-0.2-0.1-0.4-0.1-0.5c0.2-0.3,0.5-0.6,0.7-1c0,0,0-0.1,0.1-0.1c0.1-0.1,0.2-0.1,0.3-0.2c0.2-0.2,0.4-0.4,0.6-0.6 c0.1-0.2,0.3-0.4,0.4-0.5c0,0,0.1-0.1,0.1-0.1c0.1-0.1,0.2-0.2,0.3-0.3c0.1-0.1,0.2-0.2,0.2-0.3c0.1,0,0.2,0,0.3,0.1 c0-0.1-0.1-0.2-0.1-0.3c0.3-0.4,0-0.4-0.3-0.5c-1-0.1-1.3-0.5-0.8-1.5c0.3-0.6,0.7-1.3,1-1.9c1.1-1.8,2.2-3.6,3.3-5.4 c0.4-0.7,0.9-1.4,1.4-2c0.4-0.6,0.9-1.2,1.3-1.8c0.3-0.4,0.4-0.9,0.7-1.4c1-2.2,2.1-4.4,3.1-6.6c0.6-1.3,0.9-2.6,1.4-3.9 c1.1-3.1,2.5-6,4.7-8.4c1.7-2,3.4-3.9,5.3-5.7c3.6-3.5,7.3-6.9,11.4-9.9c1.4-1,3-1.7,4.6-2.3c1.6-0.6,3.2-1.1,4.6-2 c1-0.6,2-1.3,3.1-1.8c3-1.3,6-2.4,9.2-3.3c4.1-1.2,8.3-2.2,12.3-3.9c2.9-1.2,5.7-2.6,8.1-4.7c2-1.8,3.4-4,4.7-6.4 c0.4-0.7,0.7-1.4,0.8-2.1c0.6-2.2,1-4.4,1.6-6.6c0.9-3.3,1.9-6.6,4-9.3c0.2-0.2,0.4-0.5,0.6-0.7c0.2-0.2,0.4-0.4,0.6-0.5 c0.2-0.2,0.4-0.4,0.6-0.6c0.2-0.1,0.3-0.3,0.5-0.4c0.1-0.1,0.3-0.2,0.4-0.3c0.2-0.1,0.3-0.2,0.5-0.3c0.2-0.1,0.4-0.3,0.6-0.4 c0,0,0.1,0,0.1-0.1c0.1-0.1,0.2-0.1,0.3-0.2c0.1,0,0.1-0.1,0.2-0.1c0.1-0.1,0.2-0.1,0.3-0.2c0,0,0-0.1,0.1-0.1 c0.5-0.3,1.1-0.5,1.6-0.8c0.3-0.1,0.5-0.2,0.8-0.3c1-0.3,1.9-0.6,2.9-0.8c0.1,0,0.2,0,0.2-0.1c0.1,0,0.2,0,0.2,0 c0.6-0.1,1.3-0.2,1.9-0.4c1.1,0,2.2,0,3.3,0c0.4,0.1,0.8,0.2,1.1,0.3c-0.2,0.2-0.4,0.4-0.8,0.3c-0.3-0.1-0.6,0-0.9,0.1 c-0.5,0-1.1,0-1.6,0c-0.2-0.3-0.5-0.3-0.7,0c-0.1,0-0.2,0-0.2,0c-0.2,0-0.3,0.1-0.5,0.1c0,0,0,0.1,0,0.1c-0.1,0-0.2,0-0.3,0 c-0.1,0-0.2-0.1-0.3-0.1c-2.5,0.2-4.8,1-6.9,2.2c-0.1,0-0.1,0.1-0.1,0.2c-0.2,0.1-0.4,0.3-0.6,0.4l0,0l0,0 c-0.1,0.1-0.2,0.1-0.3,0.2l0,0l0,0c-0.1,0.1-0.3,0.2-0.4,0.3c0,0,0,0-0.1,0c-0.1,0.1-0.2,0.1-0.3,0.2c0,0,0,0-0.1,0 c-0.2,0.2-0.4,0.3-0.5,0.5c-0.1,0.1-0.2,0.2-0.4,0.3c-0.4,0-0.6,0.2-0.6,0.6c-0.1,0.3-0.3,0.5-0.4,0.8c-0.5,1-1.2,1.9-1.6,3 c-0.3,0.9-0.4,1.9-0.5,2.9c-0.1,0.5-0.2,1.1-0.2,1.7c0,0.1,0,0.2,0,0.2c-0.2,1.5-0.3,3.1-0.5,4.6c0,0.2,0,0.3,0,0.5 c-0.3,1.7-0.5,3.3-0.8,5c-0.2,1.2-0.5,2.4-0.8,3.6c-0.5,1.7-1.6,2.8-2.9,3.9c-1.1,0.9-2.3,1.8-3.4,2.9c-1.2,1.2-2.4,2.2-4,2.7 c-1.1,0.4-2.2,0.9-3.3,1.4c-0.9,0.4-1.9,0.6-3,0.5c-0.3,0-0.7,0.1-1,0.2c-0.9,0.2-1.7,0.5-2.6,0.7c-0.4,0.1-0.9,0.2-1.3,0.4 c-1.4,0.7-3,1.1-4.5,1.4c-1.1,0.3-2.1,0.7-3.2,1c-1.5,0.5-2.9,1-4.4,1.5c-1.3,0.4-2.5,1.1-3.6,2c-0.8,0.6-1.7,1-2.5,1.5 c-0.4,0.3-0.9,0.5-1.3,0.8c-1.2,1-2.4,1.8-3.8,2.3c-2.2,0.8-3.9,2.3-5.7,3.8c-1.5,1.3-3.2,2.3-4.7,3.5c-0.4,0.3-0.9,0.7-1.2,1.1 c-1.2,1.6-2.3,3.2-3.5,4.8c0,0.1-0.1,0.1-0.1,0.1c-1.5,1.2-2,2.9-3,4.4c-0.5,0.8-1.2,1.3-1.9,1.8c-0.7,0.5-1.1,1.1-1.4,1.9 c-0.2,0.6-0.3,1.1-0.5,1.7c-0.5,1-0.9,2-1.5,2.9c-0.3,0.4-0.8,0.8-1.2,1c-1.9,1.1-2.9,2.8-3.5,4.8c-0.5,1.5-1.4,2.7-2.8,3.6 c-0.9,0.5-1.4,1.3-1.9,2.2c-0.1,0.3-0.3,0.5-0.6,0.7c-0.6,0.4-1,1-1.2,1.7c-0.1,0.7-0.3,1.4-0.6,2c-0.2,0.5-0.5,0.9-0.9,1.3 c-0.3,0.3-0.5,0.6-0.5,1c0,0.2-0.2,0.5-0.3,0.7c0,0.1,0,0.1,0.1,0.2c0.3,0,0.6,0,1,0c1.2-0.1,2.4-0.2,3.5-0.3 c4.3-0.4,8.6-1,12.6-2.7c0-0.1,0-0.2-0.1-0.2c-1,0.2-1.9,0.4-2.9,0.7c-2.4,0.9-5,1.2-7.6,1.6c-0.7,0.1-1.5,0.3-2.2,0.5 c-1,0.1-1.9,0.2-2.9,0.3c-0.2,0-0.4,0-0.6-0.1c-0.4-0.5-0.4-1,0.1-1.6c0.6-0.7,1.2-1.4,1.7-2c0.2-0.3,0.4-0.7,0.6-1 c0.2-0.4,0.4-0.8,0.7-1.2c0.2-0.4,0.5-0.8,0.7-1.1c0.1-0.2,0.3-0.4,0.5-0.4c2.3-1,3.9-2.6,4.7-5c0.3-0.9,0.8-1.6,1.4-2.4 c0.7-1,1.6-1.7,2.6-2.4c1.2-0.9,1.6-2.2,2.2-3.5c0.4-0.9,0.8-1.9,1.2-2.8c0.1-0.3,0.4-0.6,0.7-0.7c1.3-0.7,1.8-2,2.6-3.1 c1.3-1.9,2.7-3.8,4.1-5.7c0.5-0.8,1-1.6,1.7-2.2c1-1,2.2-1.8,3.3-2.7c1.1-0.9,2.2-1.7,3.3-2.6c0.6-0.5,1.2-0.9,1.8-1.3 c0.8-0.5,1.5-1.1,2.3-1.4c1.7-0.7,3.2-1.5,4.5-2.7c0.2-0.2,0.5-0.4,0.8-0.5c1.4-0.4,2.5-1.3,3.6-2.2c0.8-0.7,1.8-1.1,2.8-1.3 c1.3-0.4,2.6-0.9,3.9-1.4c1.5-0.5,2.9-0.9,4.4-1.4c0.9-0.3,1.8-0.5,2.6-0.9c0.9-0.4,1.8-0.6,2.8-0.7c1.4-0.2,2.7-0.5,4-0.8 c2-0.6,4-1.2,5.9-1.9c1.3-0.6,2.6-1.5,3.8-2.2c1.7-1,3.1-2.5,4.4-3.9c1-1.1,1.9-2.3,2.7-3.5c0.4-0.7,0.5-1.6,0.6-2.4 c0.1-1,0.1-2.1,0.2-3.1c0-0.2,0-0.5,0-0.7c0-0.2,0-0.3,0.1-0.5c0-0.2,0-0.5,0.1-0.7c0.1-0.4,0.1-0.8,0.2-1.2c0-0.1,0-0.2,0.1-0.2 c0.1-0.8,0.2-1.6,0.2-2.4c0-1.1,0-2.3,0-3.4c0-0.3,0-0.6,0.1-0.9c0-0.1,0.1-0.3,0.1-0.4c0.1-0.1,0.1-0.2,0.2-0.3 c0.2-0.3,0.4-0.6,0.5-0.9c0.1-0.1,0.1-0.2,0.2-0.3c0.7-0.5,1.4-1,2.1-1.5c0.1,0,0.2,0,0.2,0c0.3-0.1,0.6-0.2,0.9-0.3 c1.6-0.2,3.2-0.4,4.7,0.4c0.8,0.4,1.6,0.7,2.4,1c0.2,0.1,0.5,0.2,0.6,0.4c0.1,0.1,0.3,0.4,0.2,0.6c-0.1,0.2-0.3,0.4-0.5,0.5 c-0.4,0.1-0.8,0-1.1,0c-0.9,0-1.7,0-2.3,0.9c-0.3,0.5-0.9,0.9-1.5,1.2c-0.7,0.4-1,1-1,1.9c0,2,0.2,3.9,0.8,5.7 c0.5,1.3,1.3,2.3,2.7,2.8c1,0.3,1.9,0.8,2.9,1.3c1.1,0.6,2.3,1,3.6,0.8c0.5,0,1.1,0,1.6,0c0.1,0,0.2,0,0.2,0 c1.5,0.7,1.8,1.4,1.6,3.1c0,0.2,0,0.4,0,0.7c0,0.1,0,0.2,0,0.2c0.1,0.4,0.1,0.8,0.2,1.2c0,0.1,0,0.2,0.1,0.2 c0.1,0.6,0.3,1.3,0.4,1.9c0,0.1,0,0.2,0.1,0.2c0,0.3,0.1,0.6,0.1,1c0,0.1,0,0.2,0,0.4c0.3,1.3,0.4,2.6,0.8,3.9 c0.5,1.4,0.6,2.9,0.9,4.4c0.1,0.8,0.3,1.5,0.4,2.3c0,0.2,0,0.5,0.1,0.7c0.1,0.3,0.1,0.6,0.2,0.9c0,0.1,0.1,0.2,0.1,0.2 c0,0.1,0,0.2,0,0.2c0,0.3,0,0.6,0.1,0.8c0,0.1,0,0.2,0,0.4c0,0.2,0.1,0.3,0.1,0.5c0.1,0.4,0.1,0.7,0.2,1.1c0,0.1,0,0.2,0.1,0.2 c0,0.2,0.1,0.3,0.1,0.5c0,0.2,0,0.4,0,0.6c0.1,0.4,0.1,0.8,0.2,1.1c0.1,0.2,0.3,0.3,0.4,0.4c0.1-0.2,0.3-0.3,0.4-0.5 c0.1-0.2,0-0.5,0-0.7c-0.1-3.4-0.7-6.7-1.7-9.9c-0.4-1.2-0.7-2.5-1-3.7c-0.1-0.1-0.1-0.1-0.2-0.2c0-0.1,0.1-0.3,0.1-0.4 c-0.4-2.4-0.8-4.7-1.2-7c0-0.1,0-0.1-0.1-0.2c0-0.1,0-0.2,0-0.2c0-0.4,0-0.9,0-1.3c0-1.2,0.1-2.4,0.1-3.6c0-0.1-0.1-0.2-0.2-0.2 c-1.3-0.1-2.6-0.2-4-0.3c-0.1,0.2-0.1,0.5-0.1,0.7c-0.1,0-0.2-0.1-0.2-0.1c0.1-0.7-0.3-0.9-0.8-1.2c-0.8-0.4-1.6-0.8-2.4-1.1 c-0.1-0.1-0.2-0.1-0.3-0.1c-0.5,0.1-0.8-0.2-1-0.7c-0.3,0.3-0.5,0.6-0.6,0.7c-0.6-0.7-1.2-1.4-1.8-2.1c-0.5-0.6-1-1.3-1-2.2 c0-0.3-0.2-0.6-0.3-0.8c-0.1-0.2-0.1-0.3-0.1-0.5c0-0.6,0-1.3,0-1.9c0-0.2,0.2-0.3,0.3-0.5c-0.2-0.1-0.3-0.2-0.5-0.3 c0.8-0.7,2.2-0.6,2.6-1.9c-0.4,0.1-0.8,0.1-1.2,0.1c0-0.1,0-0.1,0-0.2c2-0.6,3.9-1.2,6-1.8c-0.7-0.4-1.2-0.8-1.8-1.1 c-0.6-0.4-1.4-0.6-2-1.1c-1.1-0.8-2.3-1-3.5-1.4c-0.2-0.1-0.5,0-0.6,0.1c-0.7,0.6-1.5,0.7-2.3,0.6c-0.6,0-1.1,0-1.6,0 c-0.3-0.4-0.6-0.7-0.9-1.2c0-0.4,1.2-0.5,0.7-1.3c0.8-0.7,1.6-1.3,2.3-2c1.5-1.6,3.4-2.5,5.4-2.9c2.3-0.5,4.6-1,7-0.9 c0.5,0,1,0,1.6,0c0.2,0,0.3,0,0.5,0c0,0,0-0.1,0-0.1c-0.4-0.1-0.7-0.2-1.1-0.3c-0.4-0.1-0.6-0.2-0.8-0.5c0.5,0.1,1,0,1.4,0.2 c1.5,0.5,3,1.1,4.4,1.7c1.5,0.7,2.7,1.7,3.5,3.1c1.2,2,3,3.1,5.2,3.9c1.4,0.5,2.7,1.3,3.8,2.4c0.7,0.7,1.4,1.5,2.1,2.2 c0,0.4,0,0.8,0,1.2c-0.2,0-0.4-0.1-0.6-0.1c-2.8-1.3-5.8-1.8-8.9-2c-0.7,0-1.5,0.1-2.2,0.1c0,0.1,0,0.1,0,0.2 c3.7,0.2,7.4,0.5,10.9,2.5c-0.4,0.1-0.6,0.2-0.9,0.2c-1.4,0.1-2.8,0.3-4.2,0.4c-1.7,0.1-3,0.8-3.5,2.5c-0.2,0.7-0.5,1.3-0.8,2 c-0.1,0.1-0.1,0.3-0.2,0.4c-0.1-0.2-0.1-0.3-0.2-0.4c-0.2,0.4-0.4,0.9-0.6,1.2c-0.2,0.4-0.5,0.7-0.8,1.2 c-0.1-0.3-0.1-0.4-0.2-0.6c-0.4,0.9-0.8,1.7-1.2,2.7c-0.2-0.5-0.3-0.8-0.4-1.2c-0.5,0.9-1,1.7-1.5,2.6c-0.1-0.5-0.2-0.8-0.4-1.2 c-0.6,0.5-0.9,1-1.1,1.7c-0.3,1.5-0.3,2.9,0.1,4.4c0.8,3.1,2.2,6,3.6,8.9c0.4,0.9,0.9,1.8,1,2.8c0,0.2,0.1,0.5,0.2,0.7 c0.6,1.4,1.3,2.8,1.8,4.3c0.4,1.3,0.8,2.7,0.9,4.1c0.3,4.5-0.6,8.9-1.3,13.4c-0.4,2.4-1.1,4.6-1.9,6.9c-0.6,1.6-1.3,3.1-2.5,4.4 c-2.7,3.1-5.7,5.9-9,8.5c-0.1,0.1-0.2,0.2-0.3,0.3c-1,1.3-2,2.6-2.9,3.9c-0.3,0.3-0.5,0.7-0.8,1.2c0-0.5,0-0.9,0-1.2 C476.8,267.6,476.7,267.5,476.7,267.4z M411.7,272.6c-1.3,0.4-1.8,1.4-1.8,2.6c0,0.3,0,0.5,0,0.8c0,1,0.5,1.5,1.5,1.6 c2.1,0.1,4.2,0.2,6.4,0.3c2.1,0,4.2-0.4,6.2-1.1c0.6-0.2,1.2-0.6,1.8-0.8c2.3-0.9,4.6-1.8,6.9-2.6c1.1-0.3,2.3-0.4,3.4-0.5 c1.4-0.1,2.9-0.1,4.3-0.1c1.7-0.1,3.4-0.3,5-0.9c2.2-0.9,4.5-1.7,6.7-2.6c1.2-0.5,2.3-1.2,3.5-1.7c1.1-0.5,2.2-0.9,3.2-1.4 c0.7-0.3,1.3-0.8,1.5-1.5c0.5-1.3,0.7-2.7,0.6-4.2c0-0.6,0.2-0.9,0.8-1.1c0.8-0.2,1.5-0.5,2.3-0.9c0.9-0.5,1-1.4,1.1-2.2 c0.1-0.9,0.1-1.8,0.1-2.7c0-0.6,0.2-1,0.7-1.4c1-0.6,1.1-1.6,1.3-2.6c0.1-1,0.4-2,0.5-3c0.3-1.7,0.6-3.3,0.7-5 c0.1-1.6,0-3.2,0-4.8c0.1-2.9-1.1-5.2-3-7.3c-0.5-0.5-0.8-1.1-1.5-1.4c-0.3-0.1-0.5-0.5-0.6-0.8c-0.4-1-1.2-1.5-2.1-2 c-2.3-1.1-4.8-1.3-7.3-1.3c-0.4,0-0.8,0-1.2,0c-2.3-0.3-4.2,0.7-6.2,1.8c-1.5,0.8-3.1,1.6-4.8,2.2c-2.1,0.8-4.3,1.4-6.5,2 c-2.5,0.7-5,1.5-7.5,2.1c-2,0.5-4,0.8-5.8,1.8c-1.1,0.6-2,1.4-3,2.2c-0.9,0.6-1.8,1.3-2.7,1.9c-1.3,0.9-2.4,2-3.1,3.4 c-0.5,1.2-0.9,2.5-1.3,3.7c-0.2,0.6-0.2,1.4-0.2,2c0,2-0.8,3.6-2.5,4.7c-1,0.7-1.9,1.7-2,2.9c-0.1,1.5,0,2.9,0.1,4.4 c0,0.6,0.3,1.2,0.3,1.8c0,0.4-0.2,0.8-0.4,1.2c-0.4,0.7-1.1,1.2-1.1,2.2c0,1,0.4,1.6,1.2,2.1c0.8,0.5,1.6,1,2.4,1.6 c0.9,0.6,1,1.1,0.6,2.1c-0.3,1,0,1.7,1.1,1.8c0.1,0,0.3,0,0.4,0.1c0,0.1,0.1,0.1,0.1,0.2C412,272.4,411.9,272.6,411.7,272.6z M493.3,188.5c-1.3,0.6-2.8,1-3.7,2.4c1.1,0,2.1,0,3-0.4c0.4-0.1,0.8-0.2,1.2-0.2c2.2-0.1,4.4,0.1,6.5,0.5c0.7,0.1,1.3,0.4,2,0.6 c0.4,0.1,0.9,0.3,1.3,0.5c0,0,0.1-0.1,0.1-0.1c-0.2-0.2-0.3-0.5-0.5-0.7c-1.1-1-2.1-2.1-3.5-2.8c-0.3-0.1-0.5-0.2-0.8-0.3 c-1-0.5-2.1-0.9-3.1-1.4c-1.3-0.5-2.5-0.9-3.9-0.7c-0.1,0-0.2,0.1-0.4,0.1C492.2,186.8,492.7,187.6,493.3,188.5z M489.5,192.3 c0,0.1,0,0.1-0.1,0.2c0.3,0.1,0.6,0.3,0.9,0.4c1,0.2,1.9,0.6,2.7,1.3c0.2,0.2,0.6,0.3,0.9,0.3c1.5-0.2,3.1-0.6,4.6-0.8 c1.1-0.2,2.3-0.3,3.3-0.4C497.8,192.1,493.6,192.2,489.5,192.3z M486,188.4c0.4-0.1,0.6-0.4,0.3-0.8c-0.5-0.6-1-1.3-1.5-1.9 c-1-1-3.1-0.8-4.1,0c-0.4,0.3-0.3,1.2,0.2,1.7c0.8,0.8,1.7,1.2,2.9,1.2C484.5,188.6,485.2,188.5,486,188.4z M477.2,267.8 C477.2,267.8,477.2,267.8,477.2,267.8C477.1,267.8,477.1,267.8,477.2,267.8C477.1,267.8,477.2,267.8,477.2,267.8 C477.2,267.8,477.2,267.8,477.2,267.8z"/></g><g><path class="st7" d="M409.1,303.7c-0.2,0.2-0.5,0.5-0.7,0.7c-0.4,0.3-0.8,0.6-1.3,0.9c0.7,0.1,1.3,0.3,2,0.4 c0,0.1,0.1,0.2,0.1,0.2c-0.5,0.6-1,1.2-1.5,1.8c-0.5,0.6-1,1.1-1.5,1.6c-1.1,1.2-2.2,2.4-3.7,3c-1,0.5-2.2,0.7-3.3,0.9 c-1.4,0.3-2.4,1.2-3.3,2.1c-0.3,0.3-0.5,0.8-0.7,1.2c0.2,0,0.2,0,0.2,0c0.6-0.3,1.1-0.8,1.9-0.8c0.5,0,1.1-0.3,1.6-0.5 c0.3-0.1,0.7-0.2,1.1-0.3c0.5,0,0.7,0.3,0.5,0.7c-0.5,0.9-1,1.9-1.8,2.6c-1.4,1.2-1.8,3.2-1,4.8c0.4,0.8,0.5,1.6,0.5,2.5 c0,1.5,0,2.9,0,4.4c0,1.2,0.5,1.9,1.7,2.3c0.6,0.2,0.7,0.5,0.6,1.2c-0.1,0.6,0,1.3-0.1,2c0,0,0.1,0,0.1,0 c0.2-0.2,0.3-0.4,0.5-0.5c0.6-0.6,0.8-1.3,0.9-2.2c0.1-2,0.1-4-0.6-5.9c-0.1-0.3-0.1-0.6-0.1-1c0-0.1,0-0.2,0.1-0.4 c0.7,0.3,1.5,0.3,2.1,1c0.6,0.8,1.4,1.6,2,2.3c0.6,0.7,1.3,1.1,2.2,1.2c1,0.1,2,0.4,3,1c0.6,0.3,1.3,0.5,1.9,0.6 c1.3,0.1,2.5,0.5,3.6,1.1c0.5,0.3,1.1,0.5,1.6,0.7c0.8,0.2,1.3,0,1.5-0.8c0.1-0.4,0.3-0.4,0.6-0.4c1.3,0,2.3,0.4,3.1,1.6 c0.2-0.7-0.1-1.2-0.5-1.6c-0.9-0.9-2-1.3-3.2-1.6c-0.4-0.1-0.8-0.3-1.2-0.5c-0.5-0.2-0.9-0.4-1.4-0.5c-1.2-0.3-2.5-0.5-3.7-0.9 c-0.9-0.3-1.7-0.6-2.5-1c-1.7-0.9-3.5-1.6-4.9-2.9c-0.6-0.6-1.2-1.2-1.5-2.2c0.4,0.1,0.6,0.1,0.8,0.2c0.6,0.4,1.2,0.8,1.8,1.3 c0.5,0.4,1,0.5,1.4,0c0.5-0.5,0.8-0.5,1.3,0.1c0.4,0.5,0.7,1,1.1,1.6c0.1-1.2-0.2-2.1-1-2.8c-0.5-0.5-1.1-1-1.7-1.4 c-0.4-0.3-0.9-0.5-1.4-0.6c-0.9-0.3-1.8-0.5-2.7-0.7c-0.4-0.1-0.6-0.7-0.3-1.3c0.6-0.9,1.1-1.9,1.8-2.7c1.1-1.4,2.3-2.8,3.5-4.2 c1-1.1,2-2.2,3-3.3c0.6-0.7,1.2-1.3,1.8-2c0.1-0.1,0.2-0.1,0.4-0.2c0.1,0.2,0.1,0.3,0.2,0.5c0,0,0.1,0.1,0.1,0 c0.5-0.3,1.1-0.5,1.6-0.9c0.4-0.3,0.8-0.7,1.2-1c1.7-0.8,3.5-1.7,5.3-2.4c1.4-0.5,2.8-0.9,4.3-1.3c1.4-0.4,2.8-0.2,4,0.6 c0.1,0.1,0.2,0.1,0.3,0.1c0,0,0,0,0.1,0c0-0.1,0-0.1,0-0.2c0-0.1,0-0.1,0-0.2c0.6-0.2,0.9,0.3,1.3,0.6c0.7,0.5,1.4,1,2.1,1.5 c0.2-0.3,0.3-0.4,0.5-0.6c0.7,0.7,0.5,1.7,0.8,2.5c0-0.1,0.1-0.2,0.1-0.4c1.1,0.4,0.4,1.5,0.9,2.1c0.3-0.4,0.6-0.7,1-1.1 c0.2-0.2,0.4-0.2,0.6-0.3c0.1,0.2,0.1,0.3,0.2,0.5c0.2,0.3,0.4,0.6,0.6,0.9c0.2,0.3,0.4,0.6,0.6,1c0.7,1.2,1.4,2.4,2,3.6 c0.5,1.1,1,2.2,1.4,3.4c0.2,0.6,0.1,1.4-0.1,2.1c-0.2,1.2-0.6,2.3-0.7,3.5c-0.1,1.2-0.3,2.5,0.6,3.5c0.1,0.1,0.1,0.2,0.1,0.3 c0.1,0,0.1-0.1,0.2-0.1c0-0.6-0.1-1.2-0.1-1.8c0.7-0.2,0.9-0.6,1-1.2c0.1-0.5,0.2-1,0.4-1.5c0.2-0.5,0.5-0.4,0.8-0.1 c0.8,0.8,1.4,1.8,1.5,2.9c0.2,1.5,1,2.8,2.3,3.5c1.4,0.7,2.4,1.9,3.4,3c0.8,0.9,1.7,1.7,2.6,2.4c0.5,0.5,1.2,0.6,1.9,0.4 c1.5-0.3,2.3,0.2,2.9,1.6c0.1,0.3,0.3,0.5,0.5,0.8c0.1,0,0.1,0,0.2,0c0-0.3,0.1-0.6,0.1-0.9c-0.2-0.9-0.5-1.7-1.2-2.4 c-0.7-0.7-1.2-1.5-2-2.1c-0.7-0.7-1.5-1.2-2.3-1.8c-0.6-0.5-1.2-1-1.8-1.6c0.9-0.2,1.7-0.3,2.5,0c0.5,0.2,1.1,0.4,1.6,0.5 c0.4,0.1,0.9,0.1,1.2,0.3c1.1,0.5,2.1,0.3,3.2,0.3c0.5,0,1,0.1,1.5,0.1c0.9,0,2,0.3,2.8,0c1.4-0.4,2.8-0.2,4.1,0 c0.4,0.1,0.8,0.1,1.2,0.1c0.6,0,1.1-0.2,1.3-0.9c0.1-0.1,0.3-0.3,0.5-0.3c0.9-0.1,1.7,0.3,2.4,0.9c0.2,0.1,0.3,0.3,0.5,0.4 c0.1,0,0.1-0.1,0.2-0.1c-0.1-0.3-0.2-0.6-0.3-0.8c-0.8-1.1-2-1.7-3.3-1.9c-0.7-0.1-1.3-0.3-2-0.4c-0.8-0.1-1.7-0.2-2.5-0.1 c-2.7,0.3-5.4,0.3-8.1,0c-2.1-0.3-4.2-0.7-6.3-1.1c-0.2,0-0.4-0.1-0.7-0.3c0.8-0.5,1.5-0.6,2.3-0.6c0.4,0,0.9,0,1.3,0 c0.4,0,0.7-0.2,0.7-0.7c0-0.4,0.2-0.6,0.5-0.6c0.5,0,1.1,0.2,1.6,0.3c0.4,0.1,0.7,0.4,1,0.7c-0.3-1.1-1.5-2-2.7-2.1 c-0.7,0-1.4-0.1-2.1-0.1c-1-0.1-1.7,0.4-2.5,0.7c-0.6,0.2-1.2,0.3-1.8,0.5c-0.6,0.2-1-0.1-1.5-0.5c-1.2-1.1-2.1-2.4-2.7-3.9 c-0.6-1.4-1.4-2.7-2-4c-0.4-0.8-0.8-1.7-1.2-2.6c-0.9-1.7-1.7-3.4-2.6-5c-0.3-0.7-0.7-1.3-1-2c0.3,0,0.5,0.1,0.9,0.1 c-0.4-0.7-0.8-1.3-1.1-2c-0.2-0.3-0.4-0.6-0.4-0.9c0-1.1-0.1-1.4,1.2-1.7c1.7-0.4,3.5-0.8,5-1.9c0.6-0.4,1.2-0.9,1.7-1.4 c0.8-0.8,1.9-1.1,3-1.3c0.5-0.1,1-0.3,1.4-0.6c2-1.7,4.1-3.3,6-5.1c1.5-1.5,3.2-2.6,4.7-4c2.2-2,4.2-4.2,6.3-6.3 c0.8-0.8,1.7-1.5,2.4-2.4c0.8-0.9,1.4-2,2.1-3c0.3-0.4,0.5-0.7,0.7-1.1c-0.2,0-0.3,0-0.5,0c-1.5,1.7-2.9,3.3-4.4,5.1 c-2.7,3.3-5.8,6.1-9.2,8.7c-0.5,0.4-0.9,0.8-1.3,1.2c-0.5,0.5-1.1,1.1-1.6,1.6c-1.3,1.1-2.6,2.2-3.9,3.2 c-1.1,0.8-2.2,1.8-3.6,2.2c-0.8,0.2-1.5,0.5-2.2,0.9c-1.2,0.8-2.4,1.5-3.7,1.9c-1.8,0.6-3.5,1.1-5.3,1.6c-3,0.8-6,1.6-9,2.4 c-1.7,0.5-3.5,0.7-5.2,1.3c-3.3,1.1-6.5,2.3-9.4,4.3c-0.2,0.1-0.4,0.3-0.7,0.5c-0.4-0.6-0.9-0.4-1.3,0c-0.2,0.2-0.6,0.4-0.9,0.6 c0-0.4,0.1-0.6,0.1-0.9c-0.6,0.2-1.1,0.3-1.6,0.5c0,0,0-0.1-0.1-0.1c0.2-0.2,0.3-0.3,0.4-0.5c-0.7-0.3-1.4-0.5-2.1-0.8 c0.4-0.4,0.7-0.7,1-1.1C409.5,303.9,409.3,303.8,409.1,303.7z"/></g><g><path class="st10" d="M350,303c0.4,0.9,1.1,1.2,1.9,1.2c4.1,0,8.2,0.4,12.4-0.2c0.6-0.1,1.3-0.3,1.9-0.4c0-0.1,0-0.3,0-0.4 c-0.3,0-0.7,0.1-1,0.1c-0.1,0-0.2,0-0.3,0.1c-0.2,0-0.3,0.1-0.5,0.1c-0.1,0-0.2,0-0.2,0c-0.3,0-0.6,0.1-0.9,0.1 c-0.1,0-0.2,0-0.4,0c-0.2,0-0.5,0.1-0.7,0.1c-0.2,0-0.3,0-0.5,0c-2.1,0-4.2,0-6.3,0c-1,0-1.9,0-2.9,0c-0.5-0.1-1.1,0.1-1.6-0.6 c1.7-0.9,3.4-1.9,5.1-2.7c1-0.5,2-1,2.8-1.9c-0.1-0.1-0.3-0.2-0.4-0.3c-2.5,1.3-5.1,2.4-7.4,4.1c-0.3,0.2-0.6,0.5-0.9,0.7 C350,302.9,350,302.9,350,303z"/></g><g><path class="st10" d="M483.1,178c0,0,0-0.1,0-0.1c-1.1,0-2.2,0-3.3,0c0,0,0,0.1,0,0.1C480.9,178,482,178,483.1,178z"/></g><g><path class="st10" d="M369.1,288.7c-0.8,0.8-1.7,1.5-2.5,2.3c-0.3,0.3-0.6,0.6-0.9,0.9c-0.2,0.2-0.4,0.3-0.5,0.5 c-0.1,0.1-0.3,0.2-0.4,0.4c-0.1,0.1-0.2,0.2-0.3,0.3c-0.1,0.1-0.2,0.2-0.4,0.3h0c0,0.1,0,0.2,0,0.2l0,0c0.2,0,0.4-0.1,0.6-0.1 c0.1-0.1,0.2-0.1,0.3-0.2c0.1-0.1,0.2-0.2,0.3-0.2c0.2-0.2,0.5-0.4,0.7-0.6c0.1-0.1,0.2-0.2,0.3-0.3c0.3-0.3,0.5-0.5,0.8-0.8 c0.1-0.1,0.2-0.2,0.4-0.3c0,0,0.1-0.1,0.1-0.1c0.1-0.1,0.2-0.2,0.3-0.3c0.8-0.7,1.5-1.4,2.3-2.1 C369.7,288.7,369.4,288.7,369.1,288.7z"/></g><g><path class="st10" d="M371.7,286.1c-0.1,0.1-0.1,0.1-0.2,0.2c-0.1,0.1-0.2,0.3-0.3,0.4c-0.3,0.3-0.5,0.6-0.8,0.8 c-0.1,0.1-0.2,0.2-0.4,0.3c-0.1,0.1-0.2,0.1-0.2,0.2c0.1,0.2,0.2,0.3,0.3,0.5c0,0,0.1-0.1,0.1-0.1c0.1-0.1,0.2-0.2,0.3-0.3 c0.2-0.2,0.5-0.3,0.7-0.5c0.4-0.6,0.8-1.2,1.2-1.7c0.6-0.7,1.3-1.4,2-2.1c-0.2-0.3-0.4-0.1-0.6,0.1c-0.6,0.7-1.2,1.3-1.9,2 C372,285.9,371.9,286,371.7,286.1z"/></g><g><path class="st10" d="M362.1,295.1C362,295.1,362,295.1,362.1,295.1c-0.5,0.4-0.9,0.8-1.3,1.1c-0.1,0.1-0.1,0.1-0.2,0.2 c0,0.2,0,0.3,0,0.5c0.2,0,0.4,0,0.5,0v0c0.1-0.2,0.3-0.4,0.4-0.5c0.3-0.2,0.6-0.5,0.9-0.7c0,0,0.1,0,0.1,0l0,0 c0.2-0.2,0.3-0.4,0.5-0.6c0.2-0.2,0.4-0.4,0.6-0.5l0,0c0.2-0.3,0.3-0.6,0.5-0.8l0,0c-0.1,0-0.2,0-0.3,0c-0.1,0.1-0.2,0.2-0.3,0.3 c-0.2,0.1-0.3,0.3-0.5,0.4c-0.1,0.1-0.1,0.1-0.2,0.2C362.5,294.7,362.3,294.9,362.1,295.1z"/></g><g><path class="st10" d="M378.1,279.8c-0.7,0.7-1.4,1.4-2.1,2.1c0,0.2,0,0.3,0,0.5c0.4-0.3,0.8-0.6,1.2-0.9c0.4-0.5,0.9-1.1,1.3-1.6 C378.4,279.8,378.3,279.8,378.1,279.8z"/></g><g><path class="st10" d="M371.7,286.1c0.1-0.1,0.3-0.2,0.4-0.3c0.6-0.7,1.3-1.3,1.9-2c0.2-0.2,0.3-0.4,0.6-0.1 c0.2-0.2,0.3-0.3,0.5-0.5c0.1-0.3,0.2-0.5,0.2-0.8C373.9,283.5,372.6,284.6,371.7,286.1z"/></g><g><path class="st10" d="M360.5,296.8c0-0.2,0-0.3,0-0.5c-0.7,0.6-1.5,1.2-2.2,1.7c0.1,0.1,0.3,0.2,0.4,0.3 C359.3,297.8,359.9,297.3,360.5,296.8z"/></g><g><path class="st10" d="M378.1,279.8c0.2,0,0.3,0.1,0.5,0.1c0,0,0.1,0,0.1,0c0.1-0.1,0.2-0.3,0.2-0.4c0-0.2-0.1-0.4-0.1-0.5 c0.2-0.3,0.5-0.6,0.7-1C379.1,278.7,378.6,279.2,378.1,279.8z"/></g><g><path class="st10" d="M474.6,179.4c1-0.3,1.9-0.6,2.9-0.8C476.5,178.8,475.5,179.1,474.6,179.4z"/></g><g><path class="st10" d="M370.2,288.5c-0.1-0.2-0.2-0.3-0.3-0.5c-0.3,0.2-0.5,0.5-0.8,0.7c0.3,0,0.7-0.1,1-0.1 C370.1,288.6,370.2,288.5,370.2,288.5z"/></g><g><path class="st10" d="M472.2,180.5c0.5-0.3,1.1-0.5,1.6-0.8C473.2,179.9,472.7,180.2,472.2,180.5z"/></g><g><path class="st10" d="M360.7,296.2c0.4-0.3,0.8-0.7,1.3-1C361.5,295.5,361.1,295.8,360.7,296.2z"/></g><g><path class="st10" d="M365.6,291.9c0.3-0.3,0.6-0.6,0.9-0.9C366.3,291.3,366,291.6,365.6,291.9z"/></g><g><path class="st10" d="M375.3,282.5c-0.1,0.3-0.2,0.5-0.2,0.8c0.3-0.2,0.5-0.5,0.8-0.7C375.7,282.5,375.6,282.5,375.3,282.5 C375.4,282.4,375.3,282.4,375.3,282.5z"/></g><g><path class="st10" d="M375.4,282.4c0.1,0,0.3,0.1,0.4,0.1c0.1-0.1,0.1-0.1,0.2-0.2c0-0.2,0-0.3,0-0.5 C375.8,282.1,375.6,282.3,375.4,282.4z"/></g><g><path class="st10" d="M467.5,184.2c0.2-0.2,0.4-0.5,0.6-0.7C467.9,183.8,467.7,184,467.5,184.2z"/></g><g><path class="st10" d="M468.6,183c0.2-0.2,0.4-0.4,0.6-0.6C469.1,182.7,468.9,182.8,468.6,183z"/></g><g><path class="st10" d="M362.1,295.1c0.2-0.2,0.4-0.4,0.6-0.6C362.5,294.7,362.3,294.9,362.1,295.1z"/></g><g><path class="st10" d="M470.6,181.4c0.2-0.1,0.4-0.3,0.6-0.4C471,181.2,470.8,181.3,470.6,181.4z"/></g><g><path class="st10" d="M380.6,277.2c0.1-0.2,0.3-0.4,0.4-0.5C380.9,276.9,380.7,277,380.6,277.2z"/></g><g><path class="st10" d="M362.9,294.3c0.2-0.1,0.3-0.3,0.5-0.4C363.3,294,363.1,294.2,362.9,294.3z"/></g><g><path class="st10" d="M381.6,276.1c0.1,0,0.2,0,0.3,0.1c0-0.1-0.1-0.2-0.1-0.3C381.8,275.9,381.7,276,381.6,276.1z"/></g><g><path class="st10" d="M371.2,286.7c0.1-0.1,0.2-0.3,0.3-0.4C371.4,286.4,371.3,286.6,371.2,286.7z"/></g><g><path class="st10" d="M364.7,292.8c0.1-0.1,0.3-0.2,0.4-0.4C365,292.5,364.9,292.6,364.7,292.8z"/></g><g><path class="st10" d="M469.7,182.1c0.1-0.1,0.3-0.2,0.4-0.3C470,181.9,469.9,182,469.7,182.1z"/></g><g><path class="st10" d="M364,293.4c0.1-0.1,0.2-0.2,0.4-0.3C364.3,293.2,364.1,293.3,364,293.4z"/></g><g><path class="st10" d="M370.1,287.8c0.1-0.1,0.2-0.2,0.4-0.3C370.3,287.6,370.2,287.7,370.1,287.8z"/></g><g><path class="st10" d="M471.7,180.7c0.1-0.1,0.2-0.1,0.3-0.2C472,180.6,471.9,180.6,471.7,180.7z"/></g><g><path class="st10" d="M471.3,181c0.1-0.1,0.2-0.1,0.3-0.2C471.5,180.8,471.4,180.9,471.3,181z"/></g><g><path class="st10" d="M477.7,178.4c0.1,0,0.2,0,0.2,0C477.8,178.4,477.7,178.4,477.7,178.4z"/></g><g><path class="st10" d="M379.7,278c0.1-0.1,0.2-0.1,0.3-0.2C379.9,277.9,379.8,278,379.7,278z"/></g><g><path class="st10" d="M381.1,276.6c0.1-0.1,0.2-0.2,0.3-0.3C381.3,276.4,381.2,276.5,381.1,276.6z"/></g><g><path class="st10" d="M363.8,293.6c0.1,0,0.2,0,0.3,0c0-0.1,0-0.2,0-0.2C363.9,293.5,363.9,293.5,363.8,293.6z"/></g><g><path class="st10" d="M476.8,267.6c0-0.1-0.1-0.2-0.1-0.2c0,0.1-0.1,0.1-0.1,0.2C476.6,267.6,476.7,267.6,476.8,267.6z"/></g><g><path class="st11" d="M465.8,192.3c-0.2,1.5-0.3,3.1-0.5,4.6c0,0.2,0,0.3,0,0.5c-0.3,1.7-0.5,3.3-0.8,5c-0.2,1.2-0.5,2.4-0.8,3.6 c-0.5,1.7-1.6,2.8-2.9,3.9c-1.1,0.9-2.3,1.8-3.4,2.9c-1.2,1.2-2.4,2.2-4,2.7c-1.1,0.4-2.2,0.9-3.3,1.4c-0.9,0.4-1.9,0.6-3,0.5 c-0.3,0-0.7,0.1-1,0.2c-0.9,0.2-1.7,0.5-2.6,0.7c-0.4,0.1-0.9,0.2-1.3,0.4c-1.4,0.7-3,1.1-4.5,1.4c-1.1,0.3-2.1,0.7-3.2,1 c-1.5,0.5-2.9,1-4.4,1.5c-1.3,0.4-2.5,1.1-3.6,2c-0.8,0.6-1.7,1-2.5,1.5c-0.4,0.3-0.9,0.5-1.3,0.8c-1.2,1-2.4,1.8-3.8,2.3 c-2.2,0.8-3.9,2.3-5.7,3.8c-1.5,1.3-3.2,2.3-4.7,3.5c-0.4,0.3-0.9,0.7-1.2,1.1c-1.2,1.6-2.3,3.2-3.5,4.8c0,0.1-0.1,0.1-0.1,0.1 c-1.5,1.2-2,2.9-3,4.4c-0.5,0.8-1.2,1.3-1.9,1.8c-0.7,0.5-1.1,1.1-1.4,1.9c-0.2,0.6-0.3,1.1-0.5,1.7c-0.5,1-0.9,2-1.5,2.9 c-0.3,0.4-0.8,0.8-1.2,1c-1.9,1.1-2.9,2.8-3.5,4.8c-0.5,1.5-1.4,2.7-2.8,3.6c-0.9,0.5-1.4,1.3-1.9,2.2c-0.1,0.3-0.3,0.5-0.6,0.7 c-0.6,0.4-1,1-1.2,1.7c-0.1,0.7-0.3,1.4-0.6,2c-0.2,0.5-0.5,0.9-0.9,1.3c-0.3,0.3-0.5,0.6-0.5,1c0,0.2-0.2,0.5-0.3,0.7 c0,0.1,0,0.1,0.1,0.2c0.3,0,0.6,0,1,0c0-0.1,0-0.2,0-0.3c-0.4-0.5-0.4-1,0.1-1.6c0.6-0.7,1.2-1.4,1.7-2c0.2-0.3,0.4-0.7,0.6-1 c0.2-0.4,0.4-0.8,0.7-1.2c0.2-0.4,0.5-0.8,0.7-1.1c0.1-0.2,0.3-0.4,0.5-0.4c2.3-1,3.9-2.6,4.7-5c0.3-0.9,0.8-1.6,1.4-2.4 c0.7-1,1.6-1.7,2.6-2.4c1.2-0.9,1.6-2.2,2.2-3.5c0.4-0.9,0.8-1.9,1.2-2.8c0.1-0.3,0.4-0.6,0.7-0.7c1.3-0.7,1.8-2,2.6-3.1 c1.3-1.9,2.7-3.8,4.1-5.7c0.5-0.8,1-1.6,1.7-2.2c1-1,2.2-1.8,3.3-2.7c1.1-0.9,2.2-1.7,3.3-2.6c0.6-0.5,1.2-0.9,1.8-1.3 c0.8-0.5,1.5-1.1,2.3-1.4c1.7-0.7,3.2-1.5,4.5-2.7c0.2-0.2,0.5-0.4,0.8-0.5c1.4-0.4,2.5-1.3,3.6-2.2c0.8-0.7,1.8-1.1,2.8-1.3 c1.3-0.4,2.6-0.9,3.9-1.4c1.5-0.5,2.9-0.9,4.4-1.4c0.9-0.3,1.8-0.5,2.6-0.9c0.9-0.4,1.8-0.6,2.8-0.7c1.4-0.2,2.7-0.5,4-0.8 c2-0.6,4-1.2,5.9-1.9c1.3-0.6,2.6-1.5,3.8-2.2c1.7-1,3.1-2.5,4.4-3.9c1-1.1,1.9-2.3,2.7-3.5c0.4-0.7,0.5-1.6,0.6-2.4 c0.1-1,0.1-2.1,0.2-3.1c0-0.2,0-0.5,0-0.7c0-0.2,0-0.3,0.1-0.5c0-0.2,0-0.5,0.1-0.7c0.1-0.4,0.1-0.8,0.2-1.2c0-0.1,0-0.2,0.1-0.2 c0.1-0.8,0.2-1.6,0.2-2.4c0-1.1,0-2.3,0-3.4c0-0.3,0-0.6,0.1-0.9c0-0.1,0.1-0.3,0.1-0.4c0.1-0.1,0.1-0.2,0.2-0.3 c0.2-0.3,0.4-0.6,0.5-0.9c0.1-0.1,0.1-0.2,0.2-0.3c0.7-0.5,1.4-1,2.1-1.5c0.1,0,0.2,0,0.2,0c0.3-0.1,0.6-0.2,0.9-0.3 c0-0.1-0.1-0.2-0.1-0.3c-0.6,0-1.1,0-1.6,0c-0.3-0.4-0.6-0.7-0.9-1.2c0-0.4,1.2-0.5,0.7-1.3c0.8-0.7,1.6-1.3,2.3-2 c1.5-1.6,3.4-2.5,5.4-2.9c2.3-0.5,4.6-1,7-0.9c0-0.1,0-0.2,0-0.3c-0.5-0.1-1-0.1-1.4-0.2c-0.9,0-1.7,0-2.6,0c-0.2,0-0.3,0-0.5,0 c0,0,0,0.1,0,0.1c-0.1,0-0.2,0.1-0.3,0.1c-0.1,0-0.2,0-0.4,0c-0.1,0-0.3,0-0.4,0.1c-0.5,0.1-1,0.1-1.4,0.2c-0.1,0-0.2,0-0.3,0.1 c-0.3,0.1-0.6,0.2-1,0.3c-0.1,0-0.2,0.1-0.3,0.1c-0.3,0.1-0.6,0.2-0.8,0.3c-0.1,0.1-0.2,0.1-0.3,0.2c-0.2,0.1-0.3,0.1-0.5,0.2 c-0.1,0-0.2,0.1-0.2,0.1c-0.5,0.2-1,0.5-1.5,0.7c-0.1,0.1-0.3,0.2-0.4,0.2c-0.2,0-0.3,0.1-0.4,0.1l0,0l0,0 c-0.1,0.1-0.2,0.1-0.3,0.2l0,0l0,0c-0.1,0.1-0.3,0.2-0.4,0.3c0,0,0,0-0.1,0c-0.1,0.1-0.2,0.1-0.3,0.2c0,0,0,0-0.1,0 c-0.2,0.2-0.4,0.3-0.5,0.5c-0.1,0.1-0.2,0.2-0.4,0.3c-0.2,0.2-0.4,0.4-0.6,0.6c-0.1,0.3-0.3,0.5-0.4,0.8c-0.5,1-1.2,1.9-1.6,3 c-0.3,0.9-0.4,1.9-0.5,2.9c-0.1,0.5-0.2,1.1-0.2,1.7C465.9,192.1,465.8,192.2,465.8,192.3z"/></g><g><path class="st10" d="M412.1,272.1c-0.1,0-0.3,0-0.4-0.1c-1.1-0.1-1.5-0.8-1.1-1.8c0.3-1,0.2-1.5-0.6-2.1 c-0.8-0.6-1.6-1.1-2.4-1.6c-0.8-0.5-1.2-1.1-1.2-2.1c0-0.9,0.7-1.5,1.1-2.2c0.2-0.4,0.4-0.8,0.4-1.2c0-0.6-0.2-1.2-0.3-1.8 c-0.1-1.5-0.2-2.9-0.1-4.4c0.1-1.3,0.9-2.2,2-2.9c1.7-1.1,2.5-2.7,2.5-4.7c0-0.7,0-1.4,0.2-2c0.3-1.3,0.7-2.5,1.3-3.7 c0.7-1.4,1.7-2.6,3.1-3.4c0.9-0.6,1.8-1.2,2.7-1.9c1-0.7,1.9-1.6,3-2.2c1.8-1,3.8-1.3,5.8-1.8c2.5-0.6,5-1.4,7.5-2.1 c2.2-0.6,4.3-1.2,6.5-2c1.6-0.6,3.2-1.4,4.8-2.2c1.9-1.1,3.9-2.1,6.2-1.8c0.4,0,0.8,0,1.2,0c2.5,0,5,0.2,7.3,1.3 c0.9,0.4,1.7,1,2.1,2c0.1,0.3,0.3,0.6,0.6,0.8c0.7,0.3,1.1,0.9,1.5,1.4c1.8,2.1,3,4.5,3,7.3c0,1.6,0.1,3.2,0,4.8 c-0.1,1.7-0.5,3.3-0.7,5c-0.2,1-0.4,2-0.5,3c-0.1,1-0.3,2-1.3,2.6c-0.5,0.3-0.6,0.8-0.7,1.4c0,0.9-0.1,1.8-0.1,2.7 c-0.1,0.9-0.2,1.8-1.1,2.2c-0.7,0.4-1.5,0.7-2.3,0.9c-0.6,0.2-0.8,0.5-0.8,1.1c0.1,1.4-0.1,2.8-0.6,4.2c-0.3,0.8-0.8,1.2-1.5,1.5 c-1.1,0.5-2.2,0.9-3.2,1.4c-1.2,0.5-2.3,1.2-3.5,1.7c-2.2,0.9-4.5,1.7-6.7,2.6c-1.6,0.7-3.3,0.8-5,0.9c-1.4,0.1-2.9,0-4.3,0.1 c-1.1,0.1-2.3,0.1-3.4,0.5c-2.3,0.8-4.6,1.7-6.9,2.6c-0.6,0.2-1.2,0.6-1.8,0.8c-2,0.7-4.1,1.1-6.2,1.1c-2.1,0-4.2-0.2-6.4-0.3 c-1-0.1-1.5-0.6-1.5-1.6c0-0.3,0-0.5,0-0.8c-0.1-1.2,0.5-2.2,1.8-2.6c0.2-0.1,0.3-0.2,0.5-0.3 C412.2,272.3,412.1,272.2,412.1,272.1z M412,270.9c0.6,0,1.2-0.2,1.4,0.7c0.2,1.2-0.1,1.8-1,2.1c-1,0.4-1.2,0.6-1.2,1.6 c0,0.2,0,0.4,0,0.7c0,0.3,0.1,0.5,0.5,0.5c2.1,0.1,4.2,0.2,6.4,0.2c2.7,0,5.1-0.7,7.6-1.9c1.8-0.9,3.8-1.4,5.7-2.1 c0.8-0.3,1.7-0.5,2.5-0.6c0.9-0.1,1.8-0.2,2.7-0.2c1.8-0.1,3.6-0.1,5.3-0.3c1.9-0.1,3.6-0.8,5.3-1.5c1.4-0.6,2.8-1.1,4.2-1.7 c1-0.4,1.9-1,2.9-1.4c1.1-0.5,2.2-1,3.3-1.4c1.2-0.4,1.9-1.1,2-2.3c0.1-1,0.2-1.9,0.2-2.9c0.1-1.1,0.4-1.5,1.4-1.9 c0.8-0.3,1.5-0.6,2.2-0.9c0.2-0.1,0.4-0.4,0.4-0.7c0.1-1,0.2-2,0.2-3c0-1.1,0.3-1.9,1.2-2.6c0.6-0.4,0.6-1.1,0.7-1.7 c0.2-1,0.4-2,0.6-3.1c0.3-1.6,0.6-3.2,0.7-4.8c0.1-1.7,0.1-3.4,0-5c0-1.4-0.4-2.7-1.1-4c-0.8-1.4-1.7-2.6-3-3.6 c-0.4-0.3-0.7-0.7-0.9-1.2c-0.3-0.7-0.9-1-1.5-1.4c-2.2-1.1-4.6-1.2-7-1.2c-0.9,0-1.9,0-2.8,0c-1.3,0.1-2.3,0.9-3.5,1.4 c-0.6,0.3-1.3,0.6-1.9,0.9c-0.8,0.4-1.6,0.9-2.4,1.2c-2,0.9-4.1,1.4-6.2,1.9c-0.7,0.2-1.4,0.5-2.1,0.7c-1.1,0.3-2.2,0.6-3.3,0.9 c-2.6,0.7-5.2,1.3-7.8,2.1c-0.8,0.2-1.5,0.7-2.2,1.2c-1.6,1.1-3.1,2.3-4.6,3.4c-1.5,1.1-2.4,2.5-3.1,4.2c-0.5,1.3-0.8,2.6-0.8,4 c0,2.2-0.8,4.1-2.7,5.4c-1.3,0.9-2,2.1-1.9,3.8c0.1,1.2,0.2,2.5,0.4,3.7c0.3,1.3-0.2,2.4-1,3.4c-0.8,1-0.8,1.4,0.4,2.2 c0.6,0.4,1.2,0.8,1.8,1.1c1.6,1.1,2,2,1.6,3.9C411.9,270.9,411.9,270.9,412,270.9z"/></g><g><path class="st10" d="M409.7,304c-0.3,0.3-0.6,0.6-1,1.1c0.7,0.3,1.4,0.5,2.1,0.8c-0.1,0.1-0.3,0.3-0.4,0.5c0,0,0,0.1,0.1,0.1 c0.5-0.2,1.1-0.3,1.6-0.5c0,0.3-0.1,0.5-0.1,0.9c0.4-0.2,0.7-0.4,0.9-0.6c0.4-0.4,0.9-0.5,1.3,0c0.2-0.2,0.4-0.3,0.7-0.5 c2.9-2,6.1-3.3,9.4-4.3c1.7-0.6,3.5-0.8,5.2-1.3c3-0.8,6-1.6,9-2.4c1.8-0.5,3.6-1,5.3-1.6c1.3-0.4,2.5-1.1,3.7-1.9 c0.6-0.4,1.4-0.7,2.2-0.9c1.4-0.4,2.5-1.4,3.6-2.2c1.3-1,2.6-2.1,3.9-3.2c0.6-0.5,1.1-1.1,1.6-1.6c0.4-0.4,0.8-0.9,1.3-1.2 c3.4-2.6,6.5-5.4,9.2-8.7c1.4-1.7,2.9-3.4,4.4-5.1c0.7-1.2,1.3-2.4,2-3.6c0.1-0.2,0.3-0.4,0.4-0.7c0.1-0.1,0.2-0.3,0.2-0.4l0,0 c0.1-0.1,0.2-0.2,0.3-0.3c0,0,0.1-0.1,0.1-0.1c0.4-0.6,0.7,0,1,0.1c0.1-0.2,0.2-0.3,0.2-0.5c0.1-0.3,0.3-0.6,0.4-0.8 c0.3-0.5,0.6-1.1,0.9-1.6c0.3-0.5,0.7-1.1,1.1-1.6c0.5-0.5,1.2-1,1.8-1.4c3.6-2.5,6.3-5.5,8-9.6c1.1-2.6,1.6-5.4,2.5-8 c0.9-2.7,1-5.5,1.4-8.3c0.2-1.3,0.2-2.6,0.1-3.8c-0.1-1.9-0.5-3.8-1.4-5.7c0,0.3-0.1,0.5,0,0.6c0.1,1.2,0.2,2.5,0.3,3.7 c0.1,1.8,0.1,3.6,0.1,5.3c0,1.1-0.2,2.3-0.4,3.4c-0.3,1.3-0.8,2.5-1.1,3.8c-0.3,1-0.4,2.1-0.7,3.1c-0.3,1.1-0.8,2.2-1.2,3.3 c-0.4,1.1-0.9,2.2-1.4,3.2c-1.2,2.7-2.7,5.1-5.1,6.9c-0.9,0.7-1.6,1.5-2.5,2.2c-0.7,0.6-1.4,1-2.2,1.5c-0.4,0.2-0.6,0.5-0.9,0.9 c-0.4,0.7-0.9,1.4-1.5,1.8c-0.7,0.5-1,1.1-1.2,1.8c-0.2,0.5-0.4,1.1-0.7,1.6c-1.1,1.6-2.2,3.2-3.4,4.7c-0.3,0.4-0.7,0.7-1.1,0.9 c-0.7,0.3-1.1,0.8-1.4,1.5c-0.9,2.1-2.3,3.8-3.9,5.4c-0.3,0.3-0.6,0.4-1,0.6c-1.5,0.5-2.7,1.3-3.6,2.6c-1.2,1.7-2.7,2.9-4.5,3.8 c-0.4,0.2-0.7,0.5-0.9,0.8c-1.1,1.4-2.6,2.4-4.2,3.2c-2.2,1.1-4.3,2.1-6.5,3.1c-0.9,0.4-1.7,0.9-2.6,1.3 c-0.6,0.3-1.3,0.4-1.9,0.6c-0.7,0.2-1.4,0.3-2.1,0.5c-1.3,0.4-2.5,0.8-3.8,1.1c-2.6,0.7-5.1,1.6-7.7,2.2 c-2.2,0.5-4.2,1.2-6.2,2.1c-1.3,0.6-2.6,1.1-3.9,1.6c-0.8,0.3-1.5,0.8-2.3,1c-1,0.3-1.7-0.4-1.6-1.5c0.1-0.6,0.2-1.2,0.2-1.8 c0-1.4-0.8-2.5-2.3-2.8c-0.6-0.1-1.3-0.2-1.9-0.2c-2.4-0.2-4.8-0.3-7.1-0.5c-0.9-0.1-1.9-0.2-2.8-0.3c0,0.1,0,0.2,0,0.3 c0.1,0.1,0.2,0.2,0.4,0.3c0.3,0,0.6,0,0.9,0.1c0.1,0,0.2,0,0.3,0.1c1.3-0.1,2.5,0.2,3.7,0.5c0.5,0.1,1.1,0.2,1.6,0 c0.8-0.4,1.6-0.3,2.4,0c0.1,0.1,0.2,0.1,0.3,0.2c0.7,0.1,1.3,0.3,2,0.3c0.5,0,0.7,0.1,0.7,0.6c0.4,0.4,0.8,0.9,1.2,1.3 c0.1,0,0.2,0.1,0.3,0.1c-0.2,0.1-0.3,0.1-0.4,0.2c-0.2,0-0.5,0.1-0.7,0.1c-0.1,0.1-0.2,0.1-0.2,0.2c0,0.1,0,0.1-0.1,0.2 c0.1,0.1,0.1,0.2,0.2,0.4C410.4,303.6,410,303.7,409.7,304z"/></g><g><path class="st10" d="M380.6,278.1c0.9-0.6,1.5-1.4,1.9-2.3c0.1-0.1,0.3-0.3,0.4-0.3c1.7-0.2,3.4-0.3,5.1-0.5 c2.9-0.3,5.8-0.7,8.8-1.1c2.1-0.3,4.3-0.6,6.4-0.8c1.3-0.1,2.7-0.3,4,0.4c0.4,0.2,0.9-0.1,1.4-0.2c0.4-0.1,0.7-0.4,1.1,0 c-0.1,0.4-0.2,0.8-0.4,1.2c-0.4,0.6-0.6,1.2-0.4,1.8c0.2,1.1-0.1,2-0.5,3c-0.6,1.4-1.1,2.9-1.7,4.3c-0.2,0.3-0.4,0.6-0.6,0.9 c-0.1,0.2-0.3,0.3-0.4,0.5c-0.1,0.1-0.2,0.2-0.3,0.3c-0.2,0.2-0.5,0.4-0.7,0.6c-0.1,0.1-0.2,0.2-0.3,0.2 c-0.1,0.1-0.2,0.3-0.4,0.4c-0.3,0.3-0.6,0.6-0.9,1c-0.1,0.1-0.2,0.2-0.2,0.2c-0.2,0.2-0.5,0.4-0.7,0.6c-0.1,0.1-0.1,0.1-0.2,0.1 c-0.6,0.5-1.3,0.9-1.9,1.4c-0.3,0.3-0.5,0.5-0.8,0.8l0,0l0,0c-0.2,0.2-0.3,0.3-0.5,0.5l0,0c-0.2,0.2-0.5,0.3-0.7,0.5 c-0.2,0.1-0.4,0.2-0.6,0.3c-0.4,0.2-0.7,0.3-1.1,0.5c-0.4,0.2-0.8,0.3-1.2,0.5c-0.2,0.1-0.5,0.2-0.8,0.3c-0.5,0.3-1,0.5-1.6,0.8 c-0.9,0.3-1.8,0.5-2.3,1.4c0.3-0.1,0.6-0.1,0.9-0.2c0,0.1,0.1,0.2,0.1,0.3c-0.2,0.1-0.3,0.2-0.5,0.3c-1,0.7-2,1.4-3,2 c-0.1,0.1-0.3,0.2-0.4,0.3c-0.3,0.2-0.7,0.4-1,0.6c-0.7,0.2-1.4,0.5-2,0.7c-0.1,0-0.2,0-0.3,0c-0.5,0.1-1,0.1-1.5,0.2 c-0.3,0.1-0.6,0.2-0.8,0.3c-0.8,0.3-1.5,0.7-2.3,1c-1,0.3-2,0.5-3.1,0.6c-1.6,0.2-3.2,0.4-4.7,1c-0.2,0-0.3,0.1-0.5,0.1 c-0.1,0-0.2,0-0.2,0c-0.1,0-0.2,0-0.3,0.1c-0.1,0-0.2,0-0.4,0.1c-0.1,0-0.2,0-0.4,0.1c-1.3,0.1-2.7,0.2-4,0.4 c-0.3,0-0.7,0.1-1,0.1c-0.1,0-0.2,0-0.3,0.1c-0.2,0-0.3,0.1-0.5,0.1c-0.1,0-0.2,0-0.2,0c-0.3,0-0.6,0.1-0.9,0.1 c-0.1,0-0.2,0-0.4,0c-0.2,0-0.5,0.1-0.7,0.1c-0.2,0-0.3,0-0.5,0c-2.1,0-4.2,0-6.3,0c0-0.1,0-0.2,0-0.2c1.7,0,3.4,0.1,5.1,0 c1.6-0.1,3.1-0.4,4.7-0.7c1.9-0.3,3.8-0.6,5.7-1c1.9-0.4,3.8-0.8,5.7-1.2c0.6-0.1,1.2-0.2,1.8-0.4c0.6-0.2,1.1-0.4,1.7-0.7 c0.3-0.1,0.6-0.3,0.9-0.4c0.8-0.3,1.6-0.6,2.4-0.9c0.7-0.2,1.5-0.4,2.3-0.6c1.6-0.3,3-1.1,4.1-2.3c0,0,0.1-0.1,0.1-0.1 c0.9-1.4,2.3-2,3.8-2.6c1.1-0.4,2.2-0.9,3.2-1.4c0.5-0.2,0.9-0.7,1.3-1c1.5-1.2,3-2.4,4.5-3.6c0.4-0.3,0.7-0.8,1.1-1.2 c0.8-1,1.7-2,2.5-3c0.8-1,1.2-2.1,1.5-3.3c0.1-0.6,0.3-1.2,0.5-1.7c0.5-1.1,0.2-2.1,0-3.1c0-0.2-0.5-0.5-0.8-0.5 c-2.1-0.1-4.2-0.2-6.3,0c-2,0.2-4,0.7-6,1c-2.9,0.5-5.7,0.9-8.6,1.3c-0.9,0.1-1.8-0.1-2.7,0c-0.7,0-1.3,0.3-1.7,0.9 c-0.2,0.2-0.3,0.4-0.5,0.6c-0.5,0.6-1,1.1-1.6,1.6c-0.4,0.3-0.8,0.6-1.2,0.9c0-0.1-0.1-0.2-0.2-0.3c0.1-0.1,0.2-0.3,0.2-0.4 C379.5,279,380,278.5,380.6,278.1z M390.4,295.2C390.4,295.2,390.4,295.2,390.4,295.2C390.4,295.3,390.5,295.2,390.4,295.2 C390.5,295.2,390.5,295.2,390.4,295.2C390.5,295.2,390.4,295.2,390.4,295.2z"/></g><g><path class="st10" d="M395.3,292.8c0.4-0.2,0.8-0.3,1.2-0.5c0.5,0.3,0.9,0.1,1.1-0.5c0.2-0.1,0.4-0.2,0.6-0.3 c0.4,0.2,0.6,0.1,0.7-0.5l0,0c0.4,0.1,0.6-0.1,0.5-0.5l0,0l0,0c0.3-0.1,0.6-0.2,0.9-0.4c0,0-0.1-0.3-0.1-0.4 c0.6-0.5,1.3-0.9,1.9-1.4c0.2,0.1,0.4,0.2,0.5,0.2c0-0.1,0.1-0.1,0.1-0.2c-0.1-0.1-0.3-0.1-0.5-0.2c0.2-0.2,0.5-0.4,0.7-0.6 c0.1,0.1,0.2,0.2,0.3,0.2c0.1,0,0.2-0.2,0.2-0.3c-0.1-0.1-0.2-0.1-0.3-0.2c0.3-0.3,0.6-0.6,0.9-1c0.1-0.1,0.2-0.2,0.4-0.4 c0.1-0.1,0.2-0.2,0.3-0.2c0.1,0,0.3,0,0.4,0c0.2,0,0.4,0,0.5-0.1c-0.1-0.2-0.2-0.4-0.3-0.6c0.1-0.1,0.2-0.2,0.3-0.3 c0.4,0.1,0.4-0.2,0.4-0.5c0.2-0.3,0.4-0.6,0.6-0.9c0.3,0,0.6,0,0.8,0c0.1,0.4,0.1,0.7,0.2,1c-0.1,0.2-0.2,0.4-0.3,0.6 c-0.6,0-0.6,0.4-0.6,0.8c-0.3,0.4-0.6,0.8-1,1.2c-0.3,0-0.6,0-0.5,0.5c-0.1,0.1-0.2,0.3-0.4,0.4c-0.1-0.1-0.1-0.3-0.2-0.4 c-0.1,0.1-0.1,0.1-0.2,0.2c0.1,0.1,0.2,0.2,0.4,0.2c-0.9,1.1-2.1,1.8-3.4,2.4c0,0.1,0.1,0.1,0.1,0.2c0.3,0,0.6,0,0.8,0 c0,0,0,0.1,0.1,0.1c-0.2,0.1-0.4,0.3-0.5,0.4c-0.4-0.2-0.5-0.1-0.6,0.5c-1.1,0.9-2.2,1.9-3.3,2.8c0,0-0.1,0.1-0.1,0.2 c0.1,0,0.2,0,0.2,0c-0.1,0.1-0.2,0.3-0.3,0.4c-1.1,0.4-2.3,0.8-3.4,1.2c-0.3,0.1-0.7,0.2-1,0.3c-0.3,0-0.6-0.1-0.9-0.1 c-0.3,0-0.4,0.2-0.4,0.4c-0.2,0.1-0.5,0.2-0.7,0.3c-0.6,0-0.6,0-0.5,0.4c-0.3,0.5-0.6,1-0.9,1.6c-0.2,0.1-0.3,0.2-0.5,0.3 c0.5,0.4,1.4,0.5,1.7,0.2c0.1,0,0.2,0,0.2,0c0.1,0.4,0.2,0.7,0.4,1.1c-0.7,0-1.4,0-2.1,0c0-0.3-0.1-0.7-0.4-0.6 c-0.5,0.2-0.9,0-1.3-0.1c-0.4-0.2-0.9-0.4-1.3-0.6c-0.2-0.1-0.3-0.3-0.4-0.4c0.4-0.2,0.7-0.4,1-0.6c0.2,0,0.5,0.1,0.7,0.1 c0,0,0.1-0.1,0.1-0.1c-0.1-0.1-0.2-0.2-0.3-0.3c1-0.7,2-1.4,3-2c0.4,0.3,0.5,0,0.5-0.3c0-0.1-0.1-0.2-0.1-0.3 c0-0.5,0.4-0.4,0.7-0.6c0.3-0.2,0.8,0,0.8-0.6c0.5-0.3,1-0.5,1.6-0.8C394.9,293.3,395.1,293.2,395.3,292.8z M401.6,290.2 c-0.1-0.1-0.2-0.1-0.3-0.2c0,0-0.1,0.1-0.1,0.1c0.1,0,0.1,0.1,0.2,0.1c0,0.1,0.1,0.1,0.1,0.2c0.1,0,0.1-0.1,0.2-0.1 C401.6,290.3,401.6,290.2,401.6,290.2z M404.3,287.3c0-0.1-0.1-0.2-0.1-0.2c-0.2,0.1-0.4,0.2-0.6,0.3c0,0.1,0.1,0.1,0.1,0.2 C404,287.5,404.1,287.4,404.3,287.3z"/></g><g><path class="st12" d="M471.1,187.5c0,0.1,0.1,0.2,0.1,0.3c1.6-0.2,3.2-0.4,4.7,0.4c0.8,0.4,1.6,0.7,2.4,1 c0.2,0.1,0.5,0.2,0.6,0.4c0.1,0.1,0.3,0.4,0.2,0.6c-0.1,0.2-0.3,0.4-0.5,0.5c-0.4,0.1-0.8,0-1.1,0c-0.9,0-1.7,0-2.3,0.9 c-0.3,0.5-0.9,0.9-1.5,1.2c-0.7,0.4-1,1-1,1.9c0,2,0.2,3.9,0.8,5.7c0.5,1.3,1.3,2.3,2.7,2.8c1,0.3,1.9,0.8,2.9,1.3 c1.1,0.6,2.3,1,3.6,0.8c0-0.1,0-0.2,0-0.3c-0.1,0-0.2-0.1-0.2-0.1c0.1-0.7-0.3-0.9-0.8-1.2c-0.8-0.4-1.6-0.8-2.4-1.1 c-0.1-0.1-0.2-0.1-0.3-0.1c-0.5,0.1-0.8-0.2-1-0.7c-0.3,0.3-0.5,0.6-0.6,0.7c-0.6-0.7-1.2-1.4-1.8-2.1c-0.5-0.6-1-1.3-1-2.2 c0-0.3-0.2-0.6-0.3-0.8c-0.1-0.2-0.1-0.3-0.1-0.5c0-0.6,0-1.3,0-1.9c0-0.2,0.2-0.3,0.3-0.5c-0.2-0.1-0.3-0.2-0.5-0.3 c0.8-0.7,2.2-0.6,2.6-1.9c-0.4,0.1-0.8,0.1-1.2,0.1c0-0.1,0-0.1,0-0.2c2-0.6,3.9-1.2,6-1.8c-0.7-0.4-1.2-0.8-1.8-1.1 c-0.6-0.4-1.4-0.6-2-1.1c-1.1-0.8-2.3-1-3.5-1.4c-0.2-0.1-0.5,0-0.6,0.1C472.7,187.5,471.9,187.6,471.1,187.5z"/></g><g><path class="st13" d="M491.6,186c0.6,0.9,1.1,1.7,1.7,2.5c-1.3,0.6-2.8,1-3.7,2.4c1.1,0,2.1,0,3-0.4c0.4-0.1,0.8-0.2,1.2-0.2 c2.2-0.1,4.4,0.1,6.5,0.5c0.7,0.1,1.3,0.4,2,0.6c0.4,0.1,0.9,0.3,1.3,0.5c0,0,0.1-0.1,0.1-0.1c-0.2-0.2-0.3-0.5-0.5-0.7 c-1.1-1-2.1-2.1-3.5-2.8c-0.3-0.1-0.5-0.2-0.8-0.3c-1-0.5-2.1-0.9-3.1-1.4c-1.3-0.5-2.5-0.9-3.9-0.7 C491.9,185.8,491.8,185.9,491.6,186z"/></g><g><path class="st14" d="M405,287.8c-0.9,1.1-2.1,1.8-3.4,2.4c0,0.1,0.1,0.1,0.1,0.2c0.3,0,0.6,0,0.8,0c0,0,0,0.1,0.1,0.1 c-0.2,0.1-0.4,0.3-0.5,0.4c-0.2,0.2-0.4,0.3-0.6,0.5c-1.1,0.9-2.2,1.9-3.3,2.8c0,0.1,0.1,0.1,0.1,0.2c-0.1,0.1-0.2,0.3-0.3,0.4 c-1.1,0.4-2.3,0.8-3.4,1.2c-0.3,0.1-0.7,0.2-1,0.3c-0.4,0.1-0.8,0.2-1.2,0.3c-0.2,0.1-0.5,0.2-0.7,0.3c-0.2,0.1-0.3,0.3-0.5,0.4 c-0.3,0.5-0.6,1-0.9,1.6c0.4,0.1,0.8,0.2,1.2,0.3c0.1,0,0.2,0,0.4,0c0.2-0.1,0.4-0.2,0.6-0.2c1.1-0.5,2.2-0.3,3.3-0.3 c0.1,0,0.2,0,0.4,0.1c0.1,0,0.2,0,0.4,0c0.3,0,0.6,0,0.9,0.1c0.1-0.1,0.2-0.1,0.2-0.2c0-0.1,0-0.2,0-0.3c-0.4,0-0.7-0.1-1.1-0.1 c-0.2-0.1-0.4-0.2-0.6-0.3c-0.1-0.2-0.2-0.3-0.3-0.5c-0.4-0.4-0.2-0.6,0.2-0.9c0.2-0.1,0.4-0.3,0.6-0.4c0.1,0,0.2,0,0.2-0.1 c0.1,0,0.2,0,0.2-0.1c0.1,0,0.2,0,0.2-0.1c0.1,0,0.2,0,0.4-0.1c0.1,0,0.2,0,0.4-0.1c0.4-0.2,1-0.3,1.3-0.6c1.1-1,2.2-2,3.3-3.1 c0.4-0.4,0.8-0.9,1.2-1.4c0-0.4,0.2-0.6,0.6-0.6c1.6-1.1,2.5-2.8,3.3-4.5c-0.1,0-0.2-0.1-0.3-0.1c-0.2,0.1-0.3,0.2-0.5,0.3 c-0.3,0.4-0.6,0.8-1,1.2c-0.2,0.2-0.3,0.3-0.5,0.5C405.2,287.6,405.1,287.7,405,287.8L405,287.8z"/></g><g><path class="st15" d="M482.7,205c0,0.1,0,0.2,0,0.3c0.5,0,1.1,0,1.6,0c0.1,0,0.2,0,0.2,0c1.5,0.7,1.8,1.4,1.6,3.1 c0,0.2,0,0.4,0,0.7c0,0.1,0,0.2,0,0.2c0.1,0.4,0.1,0.8,0.2,1.2c0,0.1,0,0.2,0.1,0.2c0.1,0.6,0.3,1.3,0.4,1.9c0,0.1,0,0.2,0.1,0.2 c0,0.3,0.1,0.6,0.1,1c0,0.1,0,0.2,0,0.4c0.3,1.3,0.4,2.6,0.8,3.9c0.5,1.4,0.6,2.9,0.9,4.4c0.1,0.8,0.3,1.5,0.4,2.3 c0,0.2,0,0.5,0.1,0.7c0.1,0.3,0.1,0.6,0.2,0.9c0,0.1,0.1,0.2,0.1,0.2c0,0.1,0,0.2,0,0.2c0,0.3,0,0.6,0.1,0.8c0,0.1,0,0.2,0,0.4 c0,0.2,0.1,0.3,0.1,0.5c0.1,0.4,0.1,0.7,0.2,1.1c0,0.1,0,0.2,0.1,0.2c0,0.2,0.1,0.3,0.1,0.5c0,0.2,0,0.4,0,0.6 c0.1,0.4,0.1,0.8,0.2,1.1c0.1,0.2,0.3,0.3,0.4,0.4c0.1-0.2,0.3-0.3,0.4-0.5c0.1-0.2,0-0.5,0-0.7c-0.1-3.4-0.7-6.7-1.7-9.9 c-0.4-1.2-0.7-2.5-1-3.7c-0.1-0.1-0.1-0.1-0.2-0.2c0-0.1,0.1-0.3,0.1-0.4c-0.4-2.4-0.8-4.7-1.2-7c0-0.1,0-0.1-0.1-0.2 c0-0.1,0-0.2,0-0.2c0-0.4,0-0.9,0-1.3c-0.1-0.3-0.2-0.5-0.2-0.8c0-1,0.1-2,0.1-3c-1.3-0.1-2.6-0.2-4-0.3 C482.8,204.5,482.8,204.8,482.7,205z"/></g><g><path class="st16" d="M501.8,193.2c-3.9-1.1-8.1-1-12.3-0.9c0,0.1,0,0.1-0.1,0.2c0.3,0.1,0.6,0.3,0.9,0.4c1,0.2,1.9,0.6,2.7,1.3 c0.2,0.2,0.6,0.3,0.9,0.3c1.5-0.2,3.1-0.6,4.6-0.8C499.6,193.4,500.8,193.3,501.8,193.2z"/></g><g><path class="st17" d="M386.6,273.9c4.3-0.4,8.6-1,12.6-2.7c0-0.1,0-0.2-0.1-0.2c-1,0.2-1.9,0.4-2.9,0.7c-2.4,0.9-5,1.2-7.6,1.6 c-0.7,0.1-1.5,0.3-2.2,0.5C386.6,273.8,386.6,273.8,386.6,273.9z"/></g><g><path class="st18" d="M480.8,187.5c-0.5-0.5-0.6-1.3-0.2-1.7c1-0.8,3.2-1.1,4.1,0c0.6,0.6,1,1.2,1.5,1.9c0.3,0.4,0.1,0.7-0.3,0.8 c-0.8,0.1-1.6,0.2-2.3,0.3C482.6,188.7,481.6,188.3,480.8,187.5z M483.5,185.4c-1-0.2-1.8,0.1-2.6,0.6c-0.1,0.1-0.1,0.4-0.1,0.5 c0.4,1.1,1.7,1.9,3,1.8c0.8-0.1,1.5-0.2,2.4-0.4C485.5,186.8,484.8,185.8,483.5,185.4z"/></g><g><path class="st11" d="M407.7,284.4c-0.1,0.2-0.2,0.4-0.3,0.6c0,0.1,0,0.2,0,0.2c0.1,0,0.3,0,0.4,0c0.5-0.8,1.1-1.5,1.3-2.5 c0.1-0.5,0.3-0.9,0.5-1.4c-0.1,0-0.1,0-0.2,0C408.8,282.4,408.2,283.4,407.7,284.4z"/></g><g><path class="st10" d="M472.3,181.1c0.5-0.2,1-0.5,1.5-0.7c0.1,0,0.2-0.1,0.2-0.1c0.2-0.1,0.3-0.1,0.5-0.2 c0.1-0.1,0.2-0.1,0.3-0.2c0.3-0.1,0.6-0.2,0.8-0.3c0.1,0,0.2-0.1,0.3-0.1c0.3-0.1,0.6-0.2,1-0.3c0.1,0,0.2,0,0.3-0.1 c0.5-0.1,1-0.1,1.4-0.2c0.1,0,0.3,0,0.4-0.1c0.1,0,0.2,0,0.4,0c0,0,0-0.1,0-0.1c-0.1,0-0.2-0.1-0.3-0.1c-2.5,0.2-4.8,1-6.9,2.2 c-0.1,0-0.1,0.1-0.1,0.2l0,0C472.1,181.1,472.2,181.1,472.3,181.1z"/></g><g><path class="st10" d="M386.6,273.9c0-0.1,0-0.1,0-0.2c-1,0.1-1.9,0.2-2.9,0.3c-0.2,0-0.4,0-0.6-0.1c0,0.1,0,0.2,0,0.3 C384.3,274.1,385.5,274,386.6,273.9z"/></g><g><path class="st12" d="M486.9,204.6c0,1-0.1,2-0.1,3c0,0.3,0.1,0.5,0.2,0.8c0-1.2,0.1-2.4,0.1-3.6 C487.1,204.8,487,204.7,486.9,204.6z"/></g><g><path class="st10" d="M482.6,178.8c0.5,0.1,1,0.1,1.4,0.2c0.5,0.1,1,0.2,1.6,0.3c0.2,0,0.3,0,0.5,0c0,0,0-0.1,0-0.1 c-0.4-0.1-0.7-0.2-1.1-0.3c-0.4-0.1-0.6-0.2-0.8-0.5c0,0,0,0,0,0c-0.2,0.2-0.4,0.4-0.8,0.3c-0.3-0.1-0.6,0-0.9,0.1 C482.6,178.7,482.6,178.7,482.6,178.8z"/></g><g><path class="st12" d="M482.6,178.8c0,0,0-0.1,0-0.1c-0.5,0-1.1,0-1.6,0c-0.2,0-0.5,0-0.7,0c-0.1,0-0.2,0-0.2,0c0,0,0,0.1,0,0.1 C480.9,178.7,481.8,178.7,482.6,178.8z"/></g><g><path class="st10" d="M477.6,266.3c-0.3-0.1-0.6-0.7-1-0.1c0.6,0,0.5,0.4,0.4,0.8C477.6,266.9,477.8,266.7,477.6,266.3z"/></g><g><path class="st10" d="M409.4,281.3c0.1,0,0.1,0,0.2,0c0.2-0.5,0.3-1.1,0.5-1.6c-0.1,0-0.2,0-0.2-0.1 C409.6,280.2,409.5,280.8,409.4,281.3z"/></g><g><path class="st12" d="M485.7,179.3c-0.5-0.1-1-0.2-1.6-0.3c0,0.1,0,0.2,0,0.3C484.6,179.2,485.1,179.2,485.7,179.3z"/></g><g><path class="st10" d="M478.3,264.9c-0.1,0.3-0.3,0.6-0.4,0.8C478.3,265.7,478.3,265.3,478.3,264.9z"/></g><g><path class="st19" d="M489.6,227.7c0-0.3-0.1-0.6-0.1-0.8C489.5,227.2,489.5,227.5,489.6,227.7z"/></g><g><path class="st12" d="M467,191.7c0,0.3,0,0.6-0.1,0.9C467,192.2,467,191.9,467,191.7z"/></g><g><path class="st10" d="M395.7,296.5c-0.3,0.2-0.5,0.5-0.2,0.9C395.6,297.1,395.7,296.8,395.7,296.5z"/></g><g><path class="st10" d="M404.2,290.1c-0.4,0-0.6,0.2-0.6,0.6C403.8,290.5,404,290.3,404.2,290.1z"/></g><g><path class="st10" d="M480.3,178.6c0.2,0,0.5,0,0.7,0C480.8,178.3,480.6,178.3,480.3,178.6z"/></g><g><path class="st12" d="M466.5,199.8c0,0.2,0,0.5-0.1,0.7C466.5,200.3,466.5,200,466.5,199.8z"/></g><g><path class="st12" d="M466.4,201c0,0.2,0,0.5,0,0.7C466.4,201.5,466.4,201.3,466.4,201z"/></g><g><path class="st19" d="M489.2,225.6c0-0.2,0-0.5-0.1-0.7C489.2,225.1,489.2,225.3,489.2,225.6z"/></g><g><path class="st10" d="M468.7,183.7c0.2-0.2,0.4-0.4,0.6-0.6C468.9,183.1,468.7,183.3,468.7,183.7z"/></g><g><path class="st10" d="M469.6,182.8c0.2-0.2,0.4-0.3,0.5-0.5C470,182.5,469.8,182.6,469.6,182.8z"/></g><g><path class="st19" d="M490.1,231c0-0.2,0-0.4,0-0.6C490,230.6,490,230.8,490.1,231z"/></g><g><path class="st10" d="M395.9,297.9c0.2,0.1,0.4,0.2,0.6,0.3C396.3,298,396.1,298,395.9,297.9z"/></g><g><path class="st10" d="M471.5,181.5c0.1,0,0.3-0.1,0.4-0.1c0.1-0.1,0.1-0.1,0.2-0.2l0,0C471.8,181.2,471.6,181.3,471.5,181.5z"/></g><g><path class="st19" d="M489.7,228.6c0-0.2,0-0.3-0.1-0.5C489.6,228.3,489.7,228.4,489.7,228.6z"/></g><g><path class="st10" d="M480.1,178.7c0,0,0-0.1,0-0.1c-0.2,0-0.3,0.1-0.5,0.1C479.7,178.7,479.9,178.7,480.1,178.7z"/></g><g><path class="st12" d="M465.4,197.4c0-0.2,0-0.3,0-0.5C465.4,197,465.4,197.2,465.4,197.4z"/></g><g><path class="st10" d="M470.6,182c0.1-0.1,0.3-0.2,0.4-0.3C470.9,181.8,470.7,181.9,470.6,182z"/></g><g><path class="st10" d="M407.8,285.2c-0.1,0-0.2,0-0.4,0c0,0.1-0.1,0.2-0.1,0.3c0.1,0,0.2,0.1,0.3,0.1 C407.6,285.5,407.7,285.4,407.8,285.2z"/></g><g><path class="st10" d="M397.8,295.8c-0.1,0-0.2,0-0.4,0.1C397.6,295.8,397.7,295.8,397.8,295.8z"/></g><g><path class="st12" d="M487,214.3c0-0.1,0-0.2,0-0.4C487,214,487,214.1,487,214.3z"/></g><g><path class="st10" d="M476.3,266.5c-0.1,0.1-0.2,0.3-0.2,0.4C476.1,266.8,476.2,266.6,476.3,266.5z"/></g><g><path class="st10" d="M397.1,295.9c-0.1,0-0.2,0-0.2,0.1C396.9,295.9,397,295.9,397.1,295.9z"/></g><g><path class="st10" d="M396.6,296c-0.1,0-0.2,0-0.2,0.1C396.4,296.1,396.5,296.1,396.6,296z"/></g><g><path class="st19" d="M489.5,226.7c0-0.1-0.1-0.2-0.1-0.2C489.4,226.5,489.4,226.6,489.5,226.7z"/></g><g><path class="st19" d="M488.2,217.6c0.1,0.1,0.1,0.1,0.2,0.2C488.4,217.7,488.3,217.7,488.2,217.6z"/></g><g><path class="st12" d="M486.9,212.9c0-0.1,0-0.2-0.1-0.2C486.9,212.8,486.9,212.8,486.9,212.9z"/></g><g><path class="st12" d="M486.4,210.7c0-0.1,0-0.2-0.1-0.2C486.4,210.6,486.4,210.7,486.4,210.7z"/></g><g><path class="st12" d="M487,209.8c0,0.1,0,0.2,0,0.2C487,209.9,487,209.8,487,209.8z"/></g><g><path class="st12" d="M468,189.7c-0.1,0.1-0.1,0.2-0.2,0.3C467.9,189.9,468,189.8,468,189.7z"/></g><g><path class="st12" d="M486.2,209.3c0-0.1,0-0.2,0-0.2C486.2,209.1,486.2,209.2,486.2,209.3z"/></g><g><path class="st12" d="M484.6,205.3c-0.1,0-0.2,0-0.2,0C484.4,205.3,484.5,205.3,484.6,205.3z"/></g><g><path class="st10" d="M471.1,181.7c0.1-0.1,0.2-0.1,0.3-0.2C471.3,181.6,471.2,181.6,471.1,181.7z"/></g><g><path class="st12" d="M466.8,198.3c0,0.1,0,0.2-0.1,0.2C466.7,198.5,466.7,198.4,466.8,198.3z"/></g><g><path class="st12" d="M465.8,192.3c0-0.1,0-0.2,0-0.2C465.9,192.1,465.8,192.2,465.8,192.3z"/></g><g><path class="st12" d="M479.4,178.8c0,0,0,0.1,0,0.1c0.1,0,0.2-0.1,0.3-0.1C479.5,178.8,479.4,178.8,479.4,178.8z"/></g><g><path class="st12" d="M467.3,190.9c-0.1,0.1-0.1,0.2-0.2,0.3C467.2,191.1,467.2,191,467.3,190.9z"/></g><g><path class="st10" d="M476.5,266.2c-0.1,0.1-0.2,0.2-0.3,0.3C476.4,266.4,476.5,266.3,476.5,266.2z"/></g><g><path class="st12" d="M470.4,188.1c-0.1,0-0.2,0-0.2,0C470.2,188.1,470.3,188.1,470.4,188.1z"/></g><g><path class="st10" d="M470.2,182.3c0.1-0.1,0.2-0.1,0.3-0.2C470.4,182.2,470.3,182.2,470.2,182.3z"/></g><g><path class="st19" d="M489.9,229.9c0-0.1,0-0.2-0.1-0.2C489.9,229.8,489.9,229.9,489.9,229.9z"/></g><g><path class="st10" d="M477.2,267.8C477.2,267.8,477.2,267.8,477.2,267.8C477.2,267.8,477.2,267.8,477.2,267.8 C477.1,267.8,477.1,267.8,477.2,267.8C477.1,267.8,477.2,267.8,477.2,267.8z"/></g><g><path class="st10" d="M382.1,274.2c0-0.1,0-0.1-0.1-0.2C382.1,274,382.1,274.1,382.1,274.2z"/></g><g><path class="st9" d="M395.7,298.5c-1.1,0-2.2-0.2-3.3,0.3c0.2,0.4,0.4,0.9,1.1,0.7c0.9-0.3,1.1-0.1,1.3,0.8c0.5,0,1,0.1,1.5,0.1 c0.7,0.1,1.5,0.1,2.2,0.1c0.1,0,0.2,0.3,0.3,0.4c0.2,0,0.4,0,0.6,0c0.3-0.8,0.5-0.9,1-0.4c-0.1,0.2-0.1,0.3-0.2,0.5 c0.3,0,0.5,0.1,0.8,0.1c0.2,0,0.4,0.1,0.6,0.1c0.2,0,0.4,0,0.6,0c0.6-0.1,0.8,0.1,0.7,0.7c0.2,0,0.3,0,0.5,0 c0.1-0.5,0.5-0.4,0.7-0.3c0.2,0,0.3,0.3,0.4,0.5c0.1,0,0.1,0,0.2,0c-0.1-0.4,0.2-0.5,0.5-0.6c0.4-0.1,0.6,0.2,0.6,0.6 c0.1,0,0.2,0,0.4,0c0-0.5,0.4-0.6,0.7-0.6c0.3,0,0.7,0.2,1.1,0.3c0.3-0.4,0.6-0.6,1.1-0.3c0.4,0.3,0.6,0.7,0.9,1 c0.1-0.1,0.2-0.1,0.2-0.2c-0.2-0.4-0.3-0.7-0.6-1.1c-0.2-0.3-0.2-0.5,0.1-0.7c0-0.4-0.2-0.6-0.7-0.6c-0.7,0-1.3-0.2-2-0.3 c-0.1,0.1-0.1,0.1-0.2,0.2c0-0.1-0.1-0.3-0.1-0.4c-0.8-0.3-1.5-0.4-2.4,0c-0.4,0.2-1.1,0.1-1.6,0c-1.2-0.4-2.5-0.6-3.7-0.5 c-0.1,0.1-0.1,0.1-0.2,0.2c0-0.1-0.1-0.2-0.1-0.3c-0.3,0-0.6-0.1-0.9-0.1c-0.1,0-0.2,0.1-0.3,0.1c-0.3,0.1-0.6,0.3-0.9,0.3 c-0.1,0-0.2-0.4-0.3-0.6c-0.1,0-0.2,0-0.4,0c-0.1,0.1-0.2,0.2-0.3,0.4c0,0,0,0,0.1,0c0,0.1,0,0.2,0,0.3c0,0-0.1,0-0.1,0 c0-0.1,0-0.2,0-0.3C395.8,298.8,395.8,298.7,395.7,298.5z"/></g><g><path class="st10" d="M390,300.3c0-0.3-0.1-0.7-0.4-0.6c-0.5,0.2-0.9,0-1.3-0.1c-0.4-0.2-0.9-0.4-1.3-0.6 c-0.2-0.1-0.3-0.3-0.4-0.4c-0.7,0.2-1.4,0.5-2,0.7c-0.1,0-0.2,0-0.3,0c-0.5,0.1-1,0.1-1.5,0.2c-0.1,0.2-0.2,0.4-0.3,0.6 c-0.2-0.1-0.4-0.2-0.5-0.4c-0.8,0.3-1.5,0.7-2.3,1c-1,0.3-2,0.5-3.1,0.6c-1.6,0.2-3.2,0.4-4.7,1c-0.1,0.3-0.3,0.3-0.5,0.1 c-0.1,0-0.2,0-0.2,0c-0.1,0-0.2,0-0.3,0.1c-0.1,0-0.2,0-0.4,0.1c-0.1,0.1-0.2,0.2-0.2,0.3c0-0.1-0.1-0.1-0.1-0.2 c-1.3,0.1-2.7,0.2-4,0.4c0,0.1,0,0.3,0,0.4c1.4,0,2.8,0,4.1-0.1c0.2,0,0.5-0.1,0.7-0.1c0.1,0,0.2,0,0.3-0.1c0.1,0,0.2,0,0.2-0.1 c0.1,0,0.2,0,0.2-0.1c0.1,0,0.2-0.1,0.3-0.1c0.1,0,0.1,0,0.2,0c1.7-0.8,3.6-0.9,5.4-1.1c0.5-0.1,1-0.2,1.5-0.3 c0.1,0,0.2-0.1,0.2-0.1c0.2-0.1,0.3-0.1,0.5-0.2c0.1-0.1,0.2-0.1,0.3-0.2c0.1-0.1,0.3-0.1,0.4-0.2c0.2-0.1,0.3-0.1,0.5-0.2 c0.6-0.1,1.2-0.2,1.7-0.3c1.4-0.4,2.8-0.3,4.1-0.2C388,300.3,389,300.3,390,300.3z"/></g><g><path class="st10" d="M398.9,301c-0.1-0.1-0.2-0.4-0.3-0.4c-0.7-0.1-1.5-0.1-2.2-0.1c-0.5,0-1-0.1-1.5-0.1 c-0.2-0.9-0.5-1.1-1.3-0.8c-0.6,0.2-0.8-0.3-1.1-0.7c-0.2,0.1-0.4,0.2-0.6,0.2c0,0-0.1,0.1-0.1,0.1c0.1,0.4,0.2,0.7,0.4,1.1 c0.6,0,1.3,0,2,0c-0.4,0.3-0.7,0.6-1,0.8c0,0.1,0,0.1,0,0.2c0.3,0,0.6,0,0.8,0c0.1,0,0.2,0,0.2,0 C395.8,301.2,397.4,301.1,398.9,301z"/></g><g><path class="st10" d="M410.1,302.5c-0.3-0.3-0.6-0.7-0.9-1c-0.4-0.3-0.8-0.2-1.1,0.3c-0.4-0.1-0.7-0.3-1.1-0.3 c-0.3,0-0.8,0.1-0.7,0.6c0.8,0,1.6,0,2.4,0c0.1,0.1,0.1,0.1,0.2,0.2c-0.1,0-0.2,0-0.3,0.1c0,0-0.1,0-0.1,0 c-0.3,0.1-0.6,0.1-0.9,0.2c-0.1,0-0.2,0-0.3,0c-0.3,0.1-0.7,0.2-1,0.3l0,0l0,0c0.1,0.2,0.1,0.3,0.2,0.5c0.2,0,0.3,0,0.5,0 c0.4,0,0.7,0,1.1,0.1c0.3,0.1,0.6,0.2,1,0.3c0.2,0.1,0.4,0.2,0.6,0.2c0.2-0.2,0.7-0.4,0.5-0.9c-0.1-0.1-0.2-0.1-0.3-0.2 c0.1-0.1,0.1-0.1,0.2-0.2C410.1,302.7,410.1,302.6,410.1,302.5z"/></g><g><path class="st10" d="M403,302c0.1-0.6-0.2-0.8-0.7-0.7c-0.2,0-0.4,0-0.6,0c-0.2,0-0.3,0.1-0.5,0.1c-0.3,0-0.6,0.1-0.8,0.1 c-0.3,0.1-0.5,0.2-0.8,0.3c-0.1,0.1-0.1,0.1-0.2,0.2c0,0,0,0.1,0,0.1c0.6,0.1,1.3,0.2,1.9,0.2c0.3,0,0.5,0,0.8,0 C402.4,302.2,402.7,302.1,403,302z"/></g><g><path class="st10" d="M400.3,301.1c0.1-0.2,0.1-0.3,0.2-0.5c-0.6-0.5-0.7-0.4-1,0.4C399.8,301,400.1,301.1,400.3,301.1z"/></g><g><path class="st10" d="M406,302.1c-0.1-0.4-0.2-0.6-0.6-0.6c-0.3,0-0.5,0.2-0.5,0.6C405.2,302.1,405.6,302.1,406,302.1z"/></g><g><path class="st10" d="M404.6,302.1c-0.1-0.2-0.2-0.4-0.4-0.5c-0.3-0.1-0.7-0.2-0.7,0.3c0.1,0.1,0.2,0.1,0.4,0.2 C404.1,302.2,404.4,302.1,404.6,302.1z"/></g><g><path class="st10" d="M403.9,302.2c-0.1-0.1-0.2-0.1-0.4-0.2c-0.2,0-0.3,0-0.5,0c-0.3,0.1-0.6,0.2-1,0.2 C402.7,302.2,403.3,302.2,403.9,302.2z"/></g><g><path class="st10" d="M408.2,303.4c-0.4,0-0.7,0-1.1-0.1C407.4,303.3,407.8,303.4,408.2,303.4z"/></g><g><path class="st10" d="M406.4,302.8c0.3-0.1,0.7-0.2,1-0.3C407.1,302.6,406.7,302.7,406.4,302.8z"/></g><g><path class="st10" d="M407.7,302.5c0.3-0.1,0.6-0.1,0.9-0.2C408.2,302.4,407.9,302.5,407.7,302.5z"/></g><g><path class="st10" d="M399.6,301.7c0.3-0.1,0.5-0.2,0.8-0.3C400.1,301.6,399.8,301.7,399.6,301.7z"/></g><g><path class="st10" d="M371.1,303.3c-0.2,0-0.5,0.1-0.7,0.1C370.6,303.4,370.8,303.3,371.1,303.3z"/></g><g><path class="st10" d="M406.6,303.3c-0.1-0.2-0.1-0.3-0.2-0.5C406.2,303.1,406.2,303.2,406.6,303.3z"/></g><g><path class="st10" d="M381.2,300.8c-0.2,0.1-0.3,0.1-0.5,0.2C380.8,300.9,381,300.8,381.2,300.8z"/></g><g><path class="st10" d="M401.2,301.4c0.2,0,0.3-0.1,0.5-0.1c-0.2,0-0.4-0.1-0.6-0.1C401.2,301.3,401.2,301.3,401.2,301.4z"/></g><g><path class="st10" d="M394.3,301.3c-0.1,0-0.2,0-0.2,0C394.1,301.3,394.2,301.3,394.3,301.3z"/></g><g><path class="st10" d="M379.5,301.5c-0.1,0-0.2,0.1-0.2,0.1C379.3,301.6,379.4,301.6,379.5,301.5z"/></g><g><path class="st10" d="M408.7,302.3c0.1,0,0.2,0,0.3-0.1c-0.1-0.1-0.1-0.1-0.2-0.2C408.7,302.2,408.7,302.3,408.7,302.3z"/></g><g><path class="st10" d="M372.1,303c-0.1,0-0.2,0.1-0.3,0.1C371.9,303.1,372,303.1,372.1,303z"/></g><g><path class="st10" d="M371.6,303.2c-0.1,0-0.2,0-0.2,0.1C371.4,303.2,371.5,303.2,371.6,303.2z"/></g><g><path class="st10" d="M380.3,301.2c-0.1,0.1-0.2,0.1-0.3,0.2C380.1,301.3,380.2,301.2,380.3,301.2z"/></g><g><path class="st10" d="M399.4,302c0,0,0-0.1,0-0.1C399.4,301.9,399.3,301.9,399.4,302C399.3,302,399.4,302,399.4,302z"/></g><g><path class="st18" d="M360.5,296.8c-0.6,0.5-1.2,1-1.8,1.6c-0.7,0.9-1.7,1.4-2.8,1.9c-1.7,0.8-3.4,1.8-5.1,2.7 c0.5,0.7,1.1,0.6,1.6,0.6c0.2-0.1,0.4-0.2,0.7-0.3c-0.7-0.6-0.5-1.1,0.3-1.5c2-0.9,4.2-1.4,5.8-3.1c0.6-0.6,1.2-1.3,1.8-1.9 C360.9,296.8,360.7,296.8,360.5,296.8z"/></g><g><path class="st10" d="M353.1,303.3c-0.2,0.1-0.4,0.2-0.7,0.3c1,0,1.9,0,2.9,0c0-0.1,0-0.2,0-0.2 C354.6,303.3,353.9,303.3,353.1,303.3z"/></g><g><path class="st10" d="M362.2,303.6c-0.2,0-0.3,0-0.5,0C361.9,303.6,362,303.6,362.2,303.6z"/></g><g><path class="st10" d="M363.3,303.4c-0.1,0-0.2,0-0.4,0C363.1,303.5,363.2,303.5,363.3,303.4z"/></g><g><path class="st10" d="M365.2,303.2c-0.1,0-0.2,0-0.3,0.1C365,303.2,365.1,303.2,365.2,303.2z"/></g><g><path class="st10" d="M364.4,303.3c-0.1,0-0.2,0-0.2,0C364.2,303.3,364.3,303.3,364.4,303.3z"/></g><g><path class="st17" d="M376.1,282.4c-0.1,0.1-0.1,0.1-0.2,0.2c-0.3,0.2-0.5,0.5-0.8,0.7c-0.2,0.2-0.3,0.3-0.5,0.5 c-0.7,0.7-1.4,1.4-2,2.1c-0.5,0.5-0.8,1.2-1.2,1.7c-0.2,0.2-0.5,0.3-0.7,0.5c-0.1,0.1-0.2,0.2-0.3,0.3c0,0-0.1,0.1-0.1,0.1 c-0.1,0-0.1,0.1-0.2,0.1c-0.8,0.7-1.5,1.4-2.3,2.1c-0.1,0.1-0.2,0.2-0.3,0.3c0,0-0.1,0.1-0.1,0.1c-0.1,0.1-0.2,0.2-0.4,0.3 c-0.3,0.3-0.5,0.5-0.8,0.8c-0.1,0.1-0.2,0.2-0.3,0.3c-0.2,0.2-0.5,0.4-0.7,0.6c-0.1,0.1-0.2,0.2-0.3,0.2 c-0.1,0.1-0.2,0.1-0.3,0.2c-0.4,0.3-0.7,0.6-1.1,1l0,0c-0.2,0.2-0.4,0.4-0.6,0.5c-0.2,0.2-0.3,0.4-0.5,0.6 c0.5-0.3,1.1-0.5,1.6-0.8c0.4-0.2,0.7-0.5,1-0.8c0.2-0.1,0.3-0.3,0.4-0.4c1.1-1.1,2.1-2.2,3.2-3.2c1.2-1.1,2.5-2,3.7-3.1 c1.3-1.3,2.6-2.7,3.8-4c0.5-0.5,0.9-1.1,1.3-1.7c-0.1-0.1-0.1-0.1-0.2-0.2C376.9,281.7,376.5,282.1,376.1,282.4z"/></g><g><path class="st10" d="M363.5,294.5c0.4-0.3,0.7-0.6,1.1-1c-0.2,0-0.4,0.1-0.6,0.1C363.9,293.9,363.7,294.2,363.5,294.5z"/></g><g><path class="st10" d="M365.9,292.4c0.1-0.1,0.2-0.2,0.3-0.3C366.1,292.2,366,292.3,365.9,292.4z"/></g><g><path class="st10" d="M367,291.3c0.1-0.1,0.2-0.2,0.4-0.3C367.2,291.2,367.1,291.2,367,291.3z"/></g><g><path class="st10" d="M367.4,291c0.1-0.1,0.2-0.2,0.3-0.3C367.7,290.8,367.5,290.9,367.4,291z"/></g><g><path class="st10" d="M364.9,293.3c0.1-0.1,0.2-0.2,0.3-0.2C365.1,293.1,365,293.2,364.9,293.3z"/></g><g><path class="st10" d="M370.3,288.4c0.1-0.1,0.2-0.2,0.3-0.3C370.5,288.2,370.4,288.3,370.3,288.4z"/></g><g><path class="st9" d="M377.5,281.6c-0.4,0.6-0.8,1.2-1.3,1.7c-1.2,1.4-2.5,2.8-3.8,4c-1.2,1.1-2.5,2-3.7,3.1 c-1.1,1-2.2,2.1-3.2,3.2c-0.1,0.1-0.3,0.3-0.4,0.4c-0.3,0.3-0.6,0.6-1,0.8c-0.5,0.3-1.1,0.5-1.6,0.8l0,0c0,0.1,0,0.1,0,0.2 c-0.3,0.2-0.6,0.5-0.9,0.7c-0.2,0.1-0.4,0.2-0.5,0.4v0c-0.6,0.6-1.2,1.3-1.8,1.9c-1.6,1.7-3.8,2.2-5.8,3.1 c-0.8,0.4-0.9,0.9-0.3,1.5c0.8,0,1.5,0,2.3,0.1c1.7,0,3.4,0.1,5.1,0c1.6-0.1,3.1-0.4,4.7-0.7c1.9-0.3,3.8-0.6,5.7-1 c1.9-0.4,3.8-0.8,5.7-1.2c0.6-0.1,1.2-0.2,1.8-0.4c0.6-0.2,1.1-0.4,1.7-0.7c0.3-0.1,0.6-0.3,0.9-0.4c0.8-0.3,1.6-0.6,2.4-0.9 c0.7-0.2,1.5-0.4,2.3-0.6c1.6-0.3,3-1.1,4.1-2.3c0,0,0.1-0.1,0.1-0.1c0.9-1.4,2.3-2,3.8-2.6c1.1-0.4,2.2-0.9,3.2-1.4 c0.5-0.2,0.9-0.7,1.3-1c1.5-1.2,3-2.4,4.5-3.6c0.4-0.3,0.7-0.8,1.1-1.2c0.8-1,1.7-2,2.5-3c0.8-1,1.2-2.1,1.5-3.3 c0.1-0.6,0.3-1.2,0.5-1.7c0.5-1.1,0.2-2.1,0-3.1c0-0.2-0.5-0.5-0.8-0.5c-2.1-0.1-4.2-0.2-6.3,0c-2,0.2-4,0.7-6,1 c-2.9,0.5-5.7,0.9-8.6,1.3c-0.9,0.1-1.8-0.1-2.7,0c-0.7,0-1.3,0.3-1.7,0.9c-0.2,0.2-0.3,0.4-0.5,0.6c-0.5,0.6-1,1.1-1.6,1.6 c-0.4,0.3-0.8,0.6-1.2,0.9C378.4,280.7,377.9,281.1,377.5,281.6z"/></g><g><path class="st10" d="M361.6,296.4c0.3-0.2,0.6-0.5,0.9-0.7c-0.1-0.1-0.1-0.1-0.2-0.2c-0.3,0.2-0.6,0.5-0.9,0.7 C361.5,296.3,361.5,296.4,361.6,296.4z"/></g><g><path class="st10" d="M362.9,295c0.2-0.2,0.4-0.4,0.6-0.5C363.3,294.6,363.1,294.8,362.9,295z"/></g><g><path class="st10" d="M361.6,296.4c-0.1-0.1-0.1-0.1-0.2-0.2c-0.1,0.2-0.3,0.4-0.4,0.5C361.2,296.7,361.4,296.5,361.6,296.4z"/></g><g><path class="st17" d="M362.3,295.5c0.1,0.1,0.1,0.1,0.2,0.2c0-0.1,0-0.1,0-0.2C362.4,295.6,362.4,295.5,362.3,295.5z"/></g><g><path class="st10" d="M377.5,281.6c0.5-0.5,1-0.9,1.4-1.4c0-0.1-0.1-0.2-0.2-0.3c0,0-0.1,0-0.1,0c-0.4,0.5-0.9,1-1.3,1.6 C377.3,281.5,377.4,281.5,377.5,281.6z"/></g><g><path class="st12" d="M479,178.9c-0.1,0-0.3,0-0.4,0.1C478.7,179,478.9,178.9,479,178.9z"/></g><g><path class="st12" d="M472.1,181.1c-0.1,0.1-0.1,0.1-0.2,0.2c0.1-0.1,0.3-0.2,0.4-0.2C472.2,181.1,472.1,181.1,472.1,181.1z"/></g><g><path class="st12" d="M474,180.2c-0.1,0-0.2,0.1-0.2,0.1C473.8,180.3,473.9,180.3,474,180.2z"/></g><g><path class="st12" d="M477.2,179.2c-0.1,0-0.2,0-0.3,0.1C477,179.2,477.1,179.2,477.2,179.2z"/></g><g><path class="st12" d="M475.9,179.5c-0.1,0-0.2,0.1-0.3,0.1C475.8,179.6,475.9,179.6,475.9,179.5z"/></g><g><path class="st12" d="M474.9,179.9c-0.1,0.1-0.2,0.1-0.3,0.2C474.6,180,474.7,179.9,474.9,179.9z"/></g><g><path class="st7" d="M411.8,270.8c0.1,0,0.2,0,0.2,0c0.6,0,1.2-0.2,1.4,0.7c0.2,1.2-0.1,1.8-1,2.1c-1,0.4-1.2,0.6-1.2,1.6 c0,0.2,0,0.4,0,0.7c0,0.3,0.1,0.5,0.5,0.5c2.1,0.1,4.2,0.2,6.4,0.2c2.7,0,5.1-0.7,7.6-1.9c1.8-0.9,3.8-1.4,5.7-2.1 c0.8-0.3,1.7-0.5,2.5-0.6c0.9-0.1,1.8-0.2,2.7-0.2c1.8-0.1,3.6-0.1,5.3-0.3c1.9-0.1,3.6-0.8,5.3-1.5c1.4-0.6,2.8-1.1,4.2-1.7 c1-0.4,1.9-1,2.9-1.4c1.1-0.5,2.2-1,3.3-1.4c1.2-0.4,1.9-1.1,2-2.3c0.1-1,0.2-1.9,0.2-2.9c0.1-1.1,0.4-1.5,1.4-1.9 c0.8-0.3,1.5-0.6,2.2-0.9c0.2-0.1,0.4-0.4,0.4-0.7c0.1-1,0.2-2,0.2-3c0-1.1,0.3-1.9,1.2-2.6c0.6-0.4,0.6-1.1,0.7-1.7 c0.2-1,0.4-2,0.6-3.1c0.3-1.6,0.6-3.2,0.7-4.8c0.1-1.7,0.1-3.4,0-5c0-1.4-0.4-2.7-1.1-4c-0.8-1.4-1.7-2.6-3-3.6 c-0.4-0.3-0.7-0.7-0.9-1.2c-0.3-0.7-0.9-1-1.5-1.4c-2.2-1.1-4.6-1.2-7-1.2c-0.9,0-1.9,0-2.8,0c-1.3,0.1-2.3,0.9-3.5,1.4 c-0.6,0.3-1.3,0.6-1.9,0.9c-0.8,0.4-1.6,0.9-2.4,1.2c-2,0.9-4.1,1.4-6.2,1.9c-0.7,0.2-1.4,0.5-2.1,0.7c-1.1,0.3-2.2,0.6-3.3,0.9 c-2.6,0.7-5.2,1.3-7.8,2.1c-0.8,0.2-1.5,0.7-2.2,1.2c-1.6,1.1-3.1,2.3-4.6,3.4c-1.5,1.1-2.4,2.5-3.1,4.2c-0.5,1.3-0.8,2.6-0.8,4 c0,2.2-0.8,4.1-2.7,5.4c-1.3,0.9-2,2.1-1.9,3.8c0.1,1.2,0.2,2.5,0.4,3.7c0.3,1.3-0.2,2.4-1,3.4c-0.8,1-0.8,1.4,0.4,2.2 c0.6,0.4,1.2,0.8,1.8,1.1C411.8,268,412.2,268.9,411.8,270.8z"/></g><g><path class="st10" d="M409.8,300.6c-0.3,0.2-0.3,0.4-0.1,0.7c0.2,0.3,0.4,0.7,0.6,1.1c0.2,0,0.5-0.1,0.7-0.1c0-0.1,0-0.2,0-0.3 C410.7,301.5,410.2,301.1,409.8,300.6z"/></g><g><path class="st10" d="M397.7,299c0.1,0,0.2-0.1,0.3-0.1c-0.1-0.1-0.2-0.2-0.4-0.3c-0.1,0.1-0.2,0.1-0.2,0.2 C397.4,298.8,397.6,298.9,397.7,299z"/></g><g><path class="st10" d="M406.8,299.5c0,0.1,0.1,0.3,0.1,0.4c0.1-0.1,0.1-0.1,0.2-0.2C407.1,299.6,406.9,299.6,406.8,299.5z"/></g><g><path class="st10" d="M410,302.7c-0.1,0.1-0.1,0.1-0.2,0.2c0.1,0.1,0.2,0.1,0.3,0.2C410.1,303,410.1,302.9,410,302.7z"/></g><g><path class="st10" d="M398.8,298.9c0,0.1,0.1,0.2,0.1,0.3c0.1-0.1,0.1-0.2,0.2-0.2C399,298.9,398.9,298.9,398.8,298.9z"/></g><g><path class="st10" d="M411.1,301.9c0,0.1,0,0.2,0,0.3c0.1,0,0.2-0.1,0.4-0.2C411.2,302,411.2,302,411.1,301.9z"/></g><g><path class="st10" d="M391.5,295.1c0-0.5,0.4-0.4,0.7-0.6c0.3-0.2,0.8,0,0.8-0.6c-0.9,0.3-1.8,0.5-2.3,1.4 C390.9,295.2,391.2,295.1,391.5,295.1z"/></g><g><path class="st10" d="M404.7,285.8c0.1,0,0.3,0,0.4,0c0.2,0,0.4,0,0.5-0.1c-0.1-0.2-0.2-0.4-0.3-0.6 C405.2,285.4,404.9,285.6,404.7,285.8z"/></g><g><path class="st10" d="M382,299.8c0.2,0.1,0.4,0.2,0.5,0.4c0.1-0.2,0.2-0.4,0.3-0.6C382.6,299.6,382.3,299.7,382,299.8z"/></g><g><path class="st10" d="M396.4,292.3c0.5,0.3,0.9,0.1,1.1-0.5C397.2,292,396.8,292.1,396.4,292.3z"/></g><g><path class="st10" d="M399.4,290.5c0.3-0.1,0.6-0.2,0.9-0.4c0,0-0.1-0.3-0.1-0.4C399.9,290,399.6,290.3,399.4,290.5z"/></g><g><path class="st10" d="M402.9,287.6c0.1,0.1,0.2,0.2,0.3,0.2c0.1,0,0.2-0.2,0.2-0.3c-0.1-0.1-0.2-0.1-0.3-0.2 C403.1,287.5,403,287.6,402.9,287.6z"/></g><g><path class="st10" d="M398.1,291.5c0.4,0.2,0.6,0.1,0.7-0.5C398.6,291.2,398.4,291.3,398.1,291.5z"/></g><g><path class="st10" d="M394.5,293.1c0.4,0.3,0.6,0.1,0.8-0.3C395,292.9,394.8,293,394.5,293.1z"/></g><g><path class="st10" d="M387.7,298c0.2,0,0.5,0.1,0.7,0.1c0,0,0.1-0.1,0.1-0.1c-0.1-0.1-0.2-0.2-0.3-0.3 C387.9,297.8,387.8,297.9,387.7,298z"/></g><g><path class="st10" d="M402,288.4c0.2,0.1,0.4,0.2,0.5,0.2c0-0.1,0.1-0.1,0.1-0.2c-0.1-0.1-0.3-0.1-0.5-0.2 C402.2,288.3,402.1,288.3,402,288.4z"/></g><g><path class="st10" d="M391.1,295.7c0.4,0.3,0.5,0,0.5-0.3C391.4,295.5,391.3,295.6,391.1,295.7z"/></g><g><path class="st10" d="M398.9,291c0.4,0.1,0.6-0.1,0.5-0.5C399.2,290.7,399,290.9,398.9,291z"/></g><g><path class="st10" d="M370.2,302.7c0,0.1,0.1,0.1,0.1,0.2c0.1-0.1,0.2-0.2,0.2-0.3C370.5,302.7,370.3,302.7,370.2,302.7z"/></g><g><path class="st10" d="M405.7,284.9c0.4,0.1,0.4-0.2,0.4-0.5C405.9,284.5,405.8,284.7,405.7,284.9z"/></g><g><path class="st10" d="M371.4,302.5c0.2,0.2,0.4,0.2,0.5-0.1C371.8,302.4,371.6,302.4,371.4,302.5z"/></g><g><path class="st10" d="M404,286.4c0.1-0.1,0.2-0.2,0.4-0.4C404.2,286.2,404.1,286.3,404,286.4z"/></g><g><path class="st10" d="M384.3,299.3c0.1,0,0.2,0,0.3,0C384.5,299.3,384.4,299.3,384.3,299.3z"/></g><g><path class="st10" d="M370.9,302.6c0.1,0,0.2,0,0.3-0.1C371.1,302.5,371,302.6,370.9,302.6z"/></g><g><path class="st10" d="M390.5,295.2C390.5,295.2,390.4,295.2,390.5,295.2C390.4,295.2,390.4,295.2,390.5,295.2 C390.4,295.3,390.5,295.2,390.5,295.2C390.5,295.2,390.5,295.2,390.5,295.2z"/></g><g><path class="st10" d="M391.5,299c-0.4-0.1-0.8-0.2-1.2-0.3c-0.2,0.1-0.3,0.2-0.5,0.3c0.5,0.4,1.4,0.5,1.7,0.2 C391.5,299.2,391.5,299.1,391.5,299z"/></g><g><path class="st10" d="M392.3,296.5c0.4-0.1,0.8-0.2,1.2-0.3c-0.3,0-0.6-0.1-0.9-0.1C392.4,296,392.3,296.2,392.3,296.5z"/></g><g><path class="st10" d="M407.3,285.5c0-0.1,0.1-0.2,0.1-0.3c0-0.1,0-0.2,0-0.2c-0.6,0-0.6,0.4-0.6,0.8 C407,285.7,407.1,285.6,407.3,285.5z"/></g><g><path class="st10" d="M403.8,287.6c0.2-0.1,0.4-0.2,0.5-0.3c0-0.1-0.1-0.2-0.1-0.2c-0.2,0.1-0.4,0.2-0.6,0.3 C403.7,287.5,403.8,287.5,403.8,287.6z"/></g><g><path class="st10" d="M401.5,291.3c0.2-0.2,0.4-0.3,0.6-0.5C401.6,290.7,401.6,290.7,401.5,291.3z"/></g><g><path class="st10" d="M405.4,287.4c0.2-0.2,0.3-0.3,0.5-0.5C405.5,286.9,405.2,287,405.4,287.4z"/></g><g><path class="st10" d="M391.2,297.2c0.2-0.1,0.3-0.3,0.5-0.4C391,296.8,391,296.8,391.2,297.2z"/></g><g><path class="st10" d="M401.6,290.2c-0.1-0.1-0.2-0.1-0.3-0.2c0,0-0.1,0.1-0.1,0.1c0.1,0,0.1,0.1,0.2,0.1c0,0,0.1,0,0.1,0 C401.5,290.2,401.5,290.2,401.6,290.2z"/></g><g><path class="st10" d="M405,287.8c-0.1-0.1-0.1-0.3-0.2-0.4c-0.1,0.1-0.1,0.1-0.2,0.2C404.8,287.7,404.9,287.7,405,287.8 L405,287.8z"/></g><g><path class="st10" d="M391.5,299c0,0.1,0,0.1,0,0.2c0.1,0,0.2,0,0.2,0c0,0,0.1-0.1,0.1-0.1C391.7,299.1,391.6,299.1,391.5,299z" /></g><g><path class="st10" d="M401.5,290.3C401.4,290.3,401.4,290.2,401.5,290.3c0,0.1,0,0.1,0,0.2c0.1,0,0.1-0.1,0.2-0.1 C401.6,290.3,401.5,290.3,401.5,290.3z"/></g><g><path class="st10" d="M398.3,294.3c0-0.1-0.1-0.1-0.1-0.2c0,0-0.1,0.1-0.1,0.2C398.1,294.3,398.2,294.3,398.3,294.3z"/></g><g><path class="st14" d="M401.5,290.3c0.1,0,0.1,0,0.2,0.1c0-0.1-0.1-0.1-0.1-0.2C401.5,290.2,401.5,290.2,401.5,290.3z"/></g><g><path class="st10" d="M397.7,299c-0.1-0.1-0.2-0.2-0.4-0.3c-0.3,0-0.6,0-0.9-0.1c0.1,0.2,0.2,0.6,0.3,0.6 C397.1,299.2,397.4,299.1,397.7,299z"/></g><g><path class="st10" d="M395.9,299c0.1-0.1,0.2-0.2,0.2-0.4c-0.1,0-0.2,0-0.4-0.1C395.8,298.7,395.8,298.8,395.9,299z"/></g><g><path class="st10" d="M486.2,188c-0.6-1.2-1.3-2.2-2.7-2.6c-1-0.2-1.8,0.1-2.6,0.6c-0.1,0.1-0.1,0.4-0.1,0.5 c0.4,1.1,1.7,1.9,3,1.8C484.6,188.3,485.3,188.1,486.2,188z"/></g><g><path class="st10" d="M395.8,299c0,0.1,0,0.2,0,0.3c0,0,0.1,0,0.1,0c0-0.1,0-0.2,0-0.3C395.8,299,395.8,299,395.8,299z"/></g></g></g></svg>